<svg width="138" height="106" viewBox="0 0 138 106" fill="none" xmlns="http://www.w3.org/2000/svg">
<path fill-rule="evenodd" clip-rule="evenodd" d="M92.2211 0.544693C87.2501 1.95555 82.8813 7.68245 82.8863 12.7808C82.8913 18.2342 85.936 23.2632 90.3617 25.1246C94.9163 27.0413 96.4412 26.9578 101.447 24.5172C115.322 17.7535 107.075 -3.67078 92.2211 0.544693ZM99.6357 8.02636C102.329 9.92594 102.626 14.9982 100.203 17.6942C96.7168 21.5738 88.8738 18.5399 88.8738 13.3128C88.8738 10.4579 92.6326 6.46064 95.3168 6.46064C96.4722 6.46064 98.4154 7.16557 99.6357 8.02636ZM69.4013 18.0291C65.5567 19.3263 55.5588 22.5352 47.1826 25.1588C33.1793 29.5462 31.954 30.1214 31.954 32.3056C31.954 33.6119 32.5162 34.8508 33.2022 35.0579C44.5443 38.485 49.3974 40.4781 53.237 43.2837C60.354 48.4847 61.4125 50.7413 61.4125 60.7108C61.4125 67.9481 61.6741 69.3298 63.0971 69.6073C67.9253 70.5506 69.9345 57.1117 66.2237 48.6959C63.8371 43.2817 57.3952 37.1807 51.0491 34.3238L46.4336 32.2463L58.3798 28.4501C64.9495 26.3625 70.4907 24.8209 70.6935 25.024C70.8952 25.2282 70.5756 26.3092 69.9815 27.4264C68.6164 29.9947 68.5904 35.1685 69.9305 37.6896C72.5768 42.6693 83.6881 44.2923 96.6938 41.5983C103.881 40.11 105.85 39.0461 105.85 36.6528C105.85 33.6491 104.428 33.4107 96.4282 35.075C81.8837 38.0999 73.836 36.6276 75.4867 31.2437C76.2157 28.8674 79.2424 22.9917 81.0868 20.3721C82.0055 19.0679 81.9756 18.3428 80.955 17.1039C79.2674 15.0565 77.8793 15.1671 69.4013 18.0291ZM17.9737 46.2563C11.0894 49.4762 3.6908 57.2495 1.58377 63.4772C0.711999 66.0535 -0.000997546 71.3611 1.04767e-06 75.2719C1.04767e-06 81.037 0.544235 83.5258 2.87395 88.4171C8.33127 99.8759 16.7005 105.306 29.7721 105.869C37.4013 106.198 38.5817 105.976 44.3156 103.133C52.0008 99.3238 59.2236 92.3138 73.144 75.1572C89.9553 54.4368 95.6683 50.2837 107.426 50.2344C113.577 50.2083 115.133 50.5995 119.409 53.2502C131.776 60.9149 135.411 76.7813 127.512 88.6111C121.383 97.7903 109.945 101.961 99.2043 98.9326C93.3346 97.2774 87.2461 91.4238 86.3414 86.5648C85.3578 81.2864 88.6981 74.6283 94.3382 70.625C99.3241 67.0863 100.213 63.5436 96.2574 62.9744C90.2809 62.1156 79.8865 75.6952 79.8865 84.3615C79.8865 92.8548 87.6995 102.464 96.6379 104.963C98.684 105.535 103.503 106.002 107.348 106C122.495 105.991 134.155 96.3704 137.287 81.2984C141.234 62.2986 128.372 45.1471 109.232 43.8881C94.6337 42.9277 87.2102 47.8642 67.9094 71.3631C55.8593 86.0338 47.1097 94.6498 41.3268 97.5399C38.6086 98.8975 35.3522 99.4787 30.4561 99.4787C24.6373 99.4787 22.6871 99.0181 18.8175 96.7264C2.07708 86.8172 1.8504 63.5043 18.3951 53.2502C22.731 50.5623 24.1999 50.2043 30.8775 50.2043C40.7087 50.2043 46.3457 53.0652 49.701 59.7575C53.245 66.8268 50.9832 73.7222 43.34 79.1474C38.4748 82.6017 37.634 86.1454 41.5465 86.7086C47.4781 87.5613 57.9174 73.9897 57.9174 65.425C57.9174 56.9941 51.1689 48.4555 41.905 45.1642C35.0766 42.7377 24.4606 43.2224 17.9737 46.2563Z" fill="#F7B512"/>
</svg>
