<svg width="72" height="72" viewBox="0 0 72 72" fill="none" xmlns="http://www.w3.org/2000/svg">
<path d="M14.8559 58.1302C6.66412 58.1302 0 51.4654 0 43.2736C0 35.0818 6.66412 28.417 14.8559 28.417C23.0476 28.417 29.7118 35.0819 29.7118 43.2736C29.7118 51.4654 23.0476 58.1302 14.8559 58.1302ZM14.8559 30.8423C8.00062 30.8423 2.42383 36.4191 2.42383 43.2736C2.42383 50.1282 8.00062 55.705 14.8559 55.705C21.7111 55.705 27.2879 50.1282 27.2879 43.2736C27.2879 36.4191 21.7111 30.8423 14.8559 30.8423Z" fill="#F7B512"/>
<path d="M57.144 58.1302C48.9522 58.1302 42.2881 51.4654 42.2881 43.2736C42.2881 35.0818 48.9522 28.417 57.144 28.417C65.3357 28.417 71.9998 35.0819 71.9998 43.2736C71.9998 51.4654 65.3357 58.1302 57.144 58.1302ZM57.144 30.8423C50.2887 30.8423 44.7119 36.4191 44.7119 43.2736C44.7119 50.1282 50.2887 55.705 57.144 55.705C63.9992 55.705 69.576 50.1282 69.576 43.2736C69.576 36.4191 63.9992 30.8423 57.144 30.8423Z" fill="#F7B512"/>
<path d="M51.3902 25.5005H26.8149C26.1453 25.5005 25.603 24.9576 25.603 24.2879C25.603 23.6182 26.1453 23.0753 26.8149 23.0753H51.3902C52.0599 23.0753 52.6021 23.6182 52.6021 24.2879C52.6021 24.9576 52.0599 25.5005 51.3902 25.5005Z" fill="#F7B512"/>
<path d="M14.8547 44.4862C14.6338 44.4862 14.4102 44.4261 14.2105 44.2994C13.6428 43.9426 13.4729 43.1943 13.8297 42.6273L25.7889 23.6416C26.147 23.0753 26.8974 22.9061 27.4609 23.2621C28.0286 23.6189 28.1985 24.3672 27.8418 24.9342L15.8826 43.9199C15.6518 44.2859 15.2582 44.4862 14.8547 44.4862Z" fill="#F7B512"/>
<path d="M37.1716 42.514C36.897 42.514 36.6209 42.4213 36.3944 42.2316C35.8804 41.8026 35.8125 41.0381 36.2415 40.5242L50.4602 23.5106C50.8892 22.996 51.6552 22.928 52.1677 23.3577C52.6816 23.7867 52.7496 24.5512 52.3206 25.0651L38.1018 42.0787C37.8625 42.3654 37.5171 42.514 37.1716 42.514Z" fill="#F7B512"/>
<path d="M34.5001 42.1028C34.0314 42.1028 33.5841 41.8281 33.3858 41.3687L22.2903 15.5609C22.0269 14.9458 22.3101 14.2329 22.926 13.9689C23.539 13.7041 24.2526 13.988 24.5187 14.6039L35.6143 40.4116C35.8776 41.0261 35.5945 41.7396 34.9786 42.0037C34.8229 42.0709 34.66 42.1028 34.5001 42.1028Z" fill="#F7B512"/>
<path d="M32.9384 44.4863H14.856C14.1863 44.4863 13.644 43.9433 13.644 43.2736C13.644 42.604 14.1863 42.061 14.856 42.061H32.9384C33.6081 42.061 34.1504 42.604 34.1504 43.2736C34.1504 43.9433 33.6081 44.4863 32.9384 44.4863Z" fill="#F7B512"/>
<path d="M30.3487 16.295H19.9512C19.2815 16.295 18.7393 15.7521 18.7393 15.0824C18.7393 14.4127 19.2815 13.8698 19.9512 13.8698H30.3487C31.0184 13.8698 31.5607 14.4127 31.5607 15.0824C31.5607 15.7521 31.0184 16.295 30.3487 16.295Z" fill="#F7B512"/>
<path d="M57.1439 44.4863C56.6229 44.4863 56.1429 44.1486 55.9844 43.6255L50.2306 24.6397C50.1952 24.5257 50.1782 24.4068 50.1782 24.2879V16.8083C50.1782 16.1386 50.7205 15.5956 51.3901 15.5956C52.0598 15.5956 52.6021 16.1386 52.6021 16.8083V24.1081L58.3034 42.9218C58.4988 43.5625 58.1364 44.2399 57.495 44.4339C57.3789 44.4693 57.26 44.4863 57.1439 44.4863Z" fill="#F7B512"/>
<path d="M58.8698 25.3766C58.2001 25.3766 57.6578 24.8337 57.6578 24.164C57.6578 23.4943 58.2001 22.9514 58.8698 22.9514C60.2176 22.9514 61.3559 21.8322 61.3559 20.507C61.3559 19.1358 60.2402 18.0209 58.8698 18.0209H51.3901C50.7205 18.0209 50.1782 17.4779 50.1782 16.8083C50.1782 16.1386 50.7205 15.5956 51.3901 15.5956H58.8698C61.5767 15.5956 63.7797 17.7993 63.7797 20.507C63.7797 23.1921 61.5767 25.3766 58.8698 25.3766Z" fill="#F7B512"/>
<path d="M35.528 47.0757C33.4312 47.0757 31.7266 45.3697 31.7266 43.2736C31.7266 41.1775 33.4312 39.4722 35.528 39.4722C37.6233 39.4722 39.3279 41.1775 39.3279 43.2736C39.3279 45.3697 37.6233 47.0757 35.528 47.0757ZM35.528 41.8975C34.7564 41.8975 34.1504 42.502 34.1504 43.2736C34.1504 44.046 34.7564 44.6505 35.528 44.6505C36.2996 44.6505 36.9041 44.046 36.9041 43.2736C36.9041 42.502 36.2996 41.8975 35.528 41.8975Z" fill="#F7B512"/>
</svg>
