<svg width="72" height="72" viewBox="0 0 72 72" fill="none" xmlns="http://www.w3.org/2000/svg">
<path d="M14.3596 34.2553H60.8693C61.0648 34.2534 61.2517 34.1743 61.3894 34.0353C61.527 33.8964 61.6042 33.7087 61.6042 33.5131C61.6042 33.3175 61.527 33.1298 61.3894 32.9908C61.2517 32.8518 61.0648 32.7728 60.8693 32.7709H57.2382C58.5777 31.9182 59.6806 30.7416 60.4449 29.3498C61.2093 27.9581 61.6105 26.3961 61.6114 24.8082C61.6114 19.6001 57.3732 15.3623 52.1645 15.3623C50.1655 15.3629 48.219 16.0018 46.6085 17.1858L44.9309 15.2286L45.2324 14.3592H47.1913C47.3868 14.3573 47.5738 14.2783 47.7114 14.1393C47.849 14.0003 47.9262 13.8126 47.9262 13.617C47.9262 13.4214 47.849 13.2338 47.7114 13.0948C47.5738 12.9558 47.3868 12.8767 47.1913 12.8748H42.2171C42.119 12.8739 42.0217 12.8923 41.9308 12.9292C41.8399 12.9661 41.7572 13.0206 41.6875 13.0896C41.6178 13.1586 41.5625 13.2408 41.5247 13.3313C41.487 13.4218 41.4675 13.5189 41.4675 13.617C41.4675 13.7151 41.487 13.8122 41.5247 13.9028C41.5625 13.9933 41.6178 14.0754 41.6875 14.1445C41.7572 14.2135 41.8399 14.268 41.9308 14.3049C42.0217 14.3417 42.119 14.3602 42.2171 14.3592H43.6612L40.3245 23.9809C40.0662 23.8942 39.8331 23.7455 39.6456 23.5478C39.458 23.3502 39.3218 23.1096 39.2487 22.8471C37.9992 18.3809 35.6446 15.2852 32.5965 14.0028C32.7267 13.3046 32.8352 12.5946 32.922 11.8728H34.7566C34.8547 11.8738 34.952 11.8553 35.0429 11.8184C35.1338 11.7815 35.2165 11.727 35.2861 11.658C35.3559 11.589 35.4112 11.5068 35.4489 11.4163C35.4867 11.3258 35.5061 11.2287 35.5061 11.1306C35.5061 11.0325 35.4867 10.9354 35.4489 10.8448C35.4112 10.7543 35.3559 10.6722 35.2861 10.6032C35.2165 10.5341 35.1338 10.4796 35.0429 10.4428C34.952 10.4059 34.8547 10.3874 34.7566 10.3884H27.2956C27.1975 10.3874 27.1002 10.4059 27.0093 10.4428C26.9184 10.4796 26.8357 10.5341 26.766 10.6032C26.6963 10.6722 26.641 10.7543 26.6032 10.8448C26.5655 10.9354 26.546 11.0325 26.546 11.1306C26.546 11.2287 26.5655 11.3258 26.6032 11.4163C26.641 11.5068 26.6963 11.589 26.766 11.658C26.8357 11.727 26.9184 11.7815 27.0093 11.8184C27.1002 11.8553 27.1975 11.8738 27.2956 11.8728H31.4259C31.2559 13.2591 30.9896 14.632 30.6289 15.9813C29.5645 15.5742 28.4349 15.3644 27.2953 15.3621C22.8427 15.3621 18.9834 18.5275 18.0609 22.8226H11.1304C10.9335 22.8226 10.7448 22.9009 10.6056 23.04C10.4665 23.1792 10.3883 23.3679 10.3882 23.5647V60.8694C10.3883 61.0663 10.4665 61.255 10.6056 61.3942C10.7448 61.5333 10.9335 61.6115 11.1304 61.6116H60.8693C61.0648 61.6097 61.2517 61.5306 61.3894 61.3917C61.527 61.2527 61.6042 61.065 61.6042 60.8694C61.6042 60.6738 61.527 60.4861 61.3894 60.3471C61.2517 60.2082 61.0648 60.1291 60.8693 60.1272H57.2383C58.5777 59.2745 59.6806 58.0979 60.445 56.7062C61.2093 55.3144 61.6105 53.7525 61.6114 52.1646C61.6114 46.9564 57.3732 42.7188 52.1645 42.7188C50.1657 42.7194 48.2194 43.3581 46.6089 44.542L44.9309 42.5843L45.2321 41.7156H47.191C47.3866 41.7137 47.5735 41.6347 47.7111 41.4957C47.8487 41.3567 47.9259 41.169 47.9259 40.9734C47.9259 40.7778 47.8487 40.5902 47.7111 40.4512C47.5735 40.3122 47.3866 40.2332 47.191 40.2312H42.2171C42.119 40.2303 42.0217 40.2487 41.9308 40.2856C41.8399 40.3225 41.7572 40.377 41.6875 40.446C41.6178 40.515 41.5625 40.5972 41.5247 40.6877C41.487 40.7782 41.4675 40.8753 41.4675 40.9734C41.4675 41.0715 41.487 41.1686 41.5247 41.2592C41.5625 41.3497 41.6178 41.4318 41.6875 41.5009C41.7572 41.5699 41.8399 41.6244 41.9308 41.6613C42.0217 41.6981 42.119 41.7166 42.2171 41.7156H43.6612L40.3245 51.3373C40.0662 51.2506 39.8331 51.1019 39.6456 50.9043C39.4581 50.7067 39.3218 50.4661 39.2487 50.2037C37.9992 45.7392 35.6448 42.6426 32.5965 41.3592C32.7267 40.6608 32.8352 39.9509 32.922 39.2293H34.7566C34.8547 39.2302 34.952 39.2118 35.0429 39.1749C35.1338 39.138 35.2165 39.0835 35.2861 39.0145C35.3559 38.9455 35.4112 38.8633 35.4489 38.7728C35.4867 38.6823 35.5061 38.5851 35.5061 38.4871C35.5061 38.389 35.4867 38.2919 35.4489 38.2013C35.4112 38.1108 35.3559 38.0286 35.2861 37.9596C35.2165 37.8906 35.1338 37.8361 35.0429 37.7992C34.952 37.7624 34.8547 37.7439 34.7566 37.7448H27.2956C27.1975 37.7439 27.1002 37.7624 27.0093 37.7992C26.9184 37.8361 26.8357 37.8906 26.766 37.9596C26.6963 38.0286 26.641 38.1108 26.6032 38.2013C26.5655 38.2919 26.546 38.389 26.546 38.4871C26.546 38.5851 26.5655 38.6823 26.6032 38.7728C26.641 38.8633 26.6963 38.9455 26.766 39.0145C26.8357 39.0835 26.9184 39.138 27.0093 39.1749C27.1002 39.2118 27.1975 39.2302 27.2956 39.2293H31.4259C31.2559 40.6156 30.9896 41.9884 30.6289 43.3378C29.5645 42.9306 28.4349 42.7208 27.2953 42.7186C22.8427 42.7186 18.9833 45.8842 18.0608 50.1792H14.36L14.3596 34.2553ZM14.3596 32.7709V26.7937H18.0604C18.3268 28.0167 18.8331 29.1746 19.55 30.2006C20.2669 31.2266 21.1802 32.1002 22.2369 32.7709H14.3596ZM52.1645 16.8468C53.7077 16.8462 55.2179 17.2941 56.5112 18.1361C57.8046 18.978 58.8254 20.1777 59.4494 21.5891C60.0735 23.0006 60.2739 24.563 60.0263 26.0863C59.7787 27.6095 59.0938 29.028 58.0548 30.1691C57.0158 31.3103 55.6676 32.1249 54.1742 32.5138C52.6807 32.9028 51.1064 32.8494 49.6428 32.36C48.1792 31.8707 46.8893 30.9665 45.9301 29.7576C44.9709 28.5486 44.3837 27.087 44.24 25.5504H52.1645C52.3064 25.5504 52.4454 25.5096 52.5649 25.4329C52.6845 25.3563 52.7795 25.247 52.8388 25.118C52.8981 24.989 52.9192 24.8457 52.8996 24.7051C52.8799 24.5645 52.8204 24.4324 52.728 24.3246L47.5752 18.3138C48.9152 17.3595 50.5194 16.8467 52.1645 16.8468ZM50.551 24.066H44.24C44.4088 22.2656 45.1878 20.5768 46.4478 19.2797L50.551 24.066ZM44.3674 16.8527L45.4757 18.1457C43.8933 19.7325 42.9288 21.8317 42.7556 24.066H41.8659L44.3674 16.8527ZM32.2887 15.4819C34.7829 16.6581 36.7334 19.3668 37.8188 23.2461C38.0011 23.9045 38.393 24.4855 38.935 24.9013C39.4771 25.317 40.1399 25.5448 40.823 25.5501H42.7556C42.8714 27.0067 43.323 28.4166 44.075 29.6693C44.827 30.9221 45.859 31.9836 47.09 32.7706H32.3687C33.7398 31.8993 34.8626 30.6886 35.6282 29.2559C36.3939 27.8231 36.7765 26.2169 36.7389 24.5928C36.7013 22.9688 36.2448 21.382 35.4136 19.9862C34.5825 18.5904 33.4049 17.433 31.9949 16.6261C32.1004 16.2491 32.1974 15.8671 32.2887 15.4819ZM27.295 16.8468C28.2905 16.848 29.2769 17.0371 30.2022 17.4043C29.3713 19.9381 28.2078 22.2738 26.6932 24.3745C26.6362 24.4536 26.5954 24.5431 26.573 24.6379C26.5506 24.7327 26.5472 24.831 26.5628 24.9272C26.5784 25.0233 26.6128 25.1155 26.6641 25.1983C26.7153 25.2812 26.7823 25.3532 26.8614 25.4101C26.9404 25.4671 27.0299 25.5079 27.1247 25.5303C27.2196 25.5526 27.3179 25.5561 27.414 25.5405C27.5102 25.5249 27.6023 25.4905 27.6852 25.4392C27.7681 25.388 27.84 25.3209 27.897 25.2419C29.464 23.0529 30.6922 20.6402 31.5402 18.0851C33.0004 19.0045 34.1221 20.3738 34.736 21.9864C35.35 23.5991 35.4228 25.3677 34.9436 27.0254C34.4645 28.6831 33.4592 30.14 32.0795 31.1764C30.6999 32.2128 29.0206 32.7724 27.295 32.7709C23.6498 32.7709 20.4766 30.2553 19.5846 26.7937H19.8346C20.3612 26.7937 20.8662 26.5845 21.2385 26.2122C21.6109 25.8398 21.8201 25.3348 21.8201 24.8082C21.8201 24.2817 21.6109 23.7767 21.2385 23.4043C20.8662 23.032 20.3612 22.8228 19.8346 22.8228H19.5849C20.4774 19.3618 23.6502 16.8468 27.295 16.8468ZM14.3596 60.1272V54.1512H18.0604C18.3269 55.3739 18.8332 56.5316 19.55 57.5573C20.2668 58.5831 21.1798 59.4566 22.2364 60.1272H14.3596ZM52.1645 44.2032C53.7077 44.2026 55.2179 44.6505 56.5112 45.4925C57.8046 46.3344 58.8254 47.5341 59.4494 48.9455C60.0735 50.357 60.2739 51.9194 60.0263 53.4427C59.7787 54.9659 59.0938 56.3844 58.0548 57.5255C57.0158 58.6667 55.6676 59.4813 54.1742 59.8702C52.6807 60.2592 51.1064 60.2058 49.6428 59.7164C48.1792 59.2271 46.8893 58.3229 45.9301 57.114C44.9709 55.905 44.3837 54.4434 44.24 52.9068H52.1645C52.3064 52.9068 52.4454 52.866 52.5649 52.7893C52.6845 52.7127 52.7795 52.6034 52.8388 52.4744C52.8981 52.3454 52.9192 52.2021 52.8996 52.0615C52.8799 51.9209 52.8204 51.7888 52.728 51.681L47.5757 45.6696C48.9156 44.7156 50.5196 44.203 52.1645 44.2032ZM50.551 51.4224H44.24C44.4088 49.622 45.1878 47.9333 46.4478 46.6361L50.551 51.4224ZM44.3674 44.2091L45.4757 45.5021C43.8933 47.0889 42.9288 49.1881 42.7556 51.4224H41.8659L44.3674 44.2091ZM32.2886 42.8386C34.7831 44.0158 36.7336 46.7244 37.8188 50.6025C38.0011 51.2609 38.393 51.8419 38.935 52.2577C39.4771 52.6734 40.1399 52.9012 40.823 52.9065H42.7556C42.8714 54.3631 43.323 55.773 44.075 57.0257C44.827 58.2784 45.859 59.3399 47.09 60.1269H32.3687C33.7398 59.2557 34.8626 58.045 35.6282 56.6122C36.3939 55.1795 36.7765 53.5733 36.7389 51.9492C36.7013 50.3251 36.2448 48.7383 35.4136 47.3426C34.5825 45.9468 33.4049 44.7894 31.9949 43.9825C32.1002 43.6055 32.1981 43.2242 32.2886 42.8386ZM27.295 44.2032C28.2905 44.2044 29.2769 44.3935 30.2022 44.7607C29.3713 47.2945 28.2078 49.6302 26.6932 51.7309C26.5781 51.8906 26.5312 52.0894 26.5627 52.2836C26.5943 52.4778 26.7017 52.6516 26.8613 52.7666C27.021 52.8816 27.2198 52.9286 27.414 52.897C27.6082 52.8655 27.782 52.7581 27.897 52.5984C29.464 50.4094 30.6922 47.9967 31.5402 45.4416C33.0005 46.361 34.1221 47.7303 34.7361 49.3429C35.35 50.9556 35.4228 52.7242 34.9436 54.3819C34.4645 56.0395 33.4592 57.4964 32.0795 58.5328C30.6998 59.5692 29.0206 60.1288 27.295 60.1272C23.6502 60.1272 20.4774 57.6122 19.5849 54.1512H19.8346C20.3613 54.1512 20.8664 53.942 21.2389 53.5695C21.6113 53.1971 21.8206 52.6919 21.8206 52.1652C21.8206 51.6385 21.6113 51.1334 21.2389 50.7609C20.8664 50.3885 20.3613 50.1792 19.8346 50.1792H19.5849C20.4774 46.7183 23.6501 44.2032 27.295 44.2032ZM19.8346 51.6637C19.901 51.6629 19.9668 51.6753 20.0284 51.7001C20.0899 51.725 20.1459 51.7618 20.1932 51.8084C20.2404 51.8551 20.2779 51.9107 20.3035 51.9719C20.329 52.0332 20.3422 52.0989 20.3422 52.1653C20.3422 52.2316 20.329 52.2974 20.3035 52.3586C20.2779 52.4199 20.2404 52.4754 20.1932 52.5221C20.1459 52.5687 20.0899 52.6056 20.0284 52.6304C19.9668 52.6553 19.901 52.6676 19.8346 52.6668H13.6173C13.4205 52.6669 13.2318 52.7451 13.0926 52.8843C12.9534 53.0235 12.8752 53.2122 12.8751 53.409V60.1272H11.8726V24.3072H19.8346C19.9009 24.3064 19.9667 24.3188 20.0282 24.3436C20.0896 24.3684 20.1456 24.4052 20.1928 24.4518C20.2399 24.4984 20.2774 24.5539 20.3029 24.6151C20.3285 24.6763 20.3416 24.7419 20.3416 24.8082C20.3416 24.8745 20.3285 24.9402 20.3029 25.0013C20.2774 25.0625 20.2399 25.118 20.1928 25.1646C20.1456 25.2112 20.0896 25.248 20.0282 25.2728C19.9667 25.2976 19.9009 25.31 19.8346 25.3092H13.6173C13.4205 25.3093 13.2318 25.3876 13.0926 25.5267C12.9534 25.6659 12.8752 25.8546 12.8751 26.0515V50.9215C12.8752 51.1183 12.9534 51.307 13.0926 51.4462C13.2318 51.5854 13.4205 51.6636 13.6173 51.6637H19.8346Z" fill="#F7B512"/>
</svg>
