<svg width="72" height="72" viewBox="0 0 72 72" fill="none" xmlns="http://www.w3.org/2000/svg">
<path d="M14.8559 58.1302C6.66412 58.1302 0 51.4654 0 43.2736C0 35.0818 6.66412 28.417 14.8559 28.417C23.0476 28.417 29.7118 35.0819 29.7118 43.2736C29.7118 51.4654 23.0476 58.1302 14.8559 58.1302ZM14.8559 30.8423C8.00062 30.8423 2.42383 36.4191 2.42383 43.2736C2.42383 50.1282 8.00062 55.705 14.8559 55.705C21.7111 55.705 27.2879 50.1282 27.2879 43.2736C27.2879 36.4191 21.7111 30.8423 14.8559 30.8423Z" fill="#F7B512"/>
<path d="M57.1442 58.1302C48.9524 58.1302 42.2883 51.4654 42.2883 43.2736C42.2883 35.0818 48.9524 28.417 57.1442 28.417C65.336 28.417 72.0001 35.0819 72.0001 43.2736C72.0001 51.4654 65.336 58.1302 57.1442 58.1302ZM57.1442 30.8423C50.289 30.8423 44.7122 36.4191 44.7122 43.2736C44.7122 50.1282 50.289 55.705 57.1442 55.705C63.9995 55.705 69.5763 50.1282 69.5763 43.2736C69.5763 36.4191 63.9995 30.8423 57.1442 30.8423Z" fill="#F7B512"/>
<path d="M51.3902 25.5005H26.8149C26.1453 25.5005 25.603 24.9576 25.603 24.2879C25.603 23.6182 26.1453 23.0753 26.8149 23.0753H51.3902C52.0599 23.0753 52.6021 23.6182 52.6021 24.2879C52.6021 24.9576 52.0599 25.5005 51.3902 25.5005Z" fill="#F7B512"/>
<path d="M14.8545 44.4862C14.6336 44.4862 14.4099 44.4261 14.2103 44.2994C13.6425 43.9426 13.4727 43.1943 13.8294 42.6273L25.7886 23.6416C26.1468 23.0753 26.8972 22.9061 27.4607 23.2621C28.0284 23.6189 28.1983 24.3672 27.8415 24.9342L15.8823 43.9199C15.6516 44.2859 15.258 44.4862 14.8545 44.4862Z" fill="#F7B512"/>
<path d="M37.1716 42.514C36.897 42.514 36.6209 42.4213 36.3944 42.2316C35.8804 41.8026 35.8125 41.0381 36.2415 40.5242L50.4602 23.5106C50.8892 22.996 51.6552 22.928 52.1677 23.3577C52.6816 23.7867 52.7496 24.5512 52.3206 25.0651L38.1018 42.0787C37.8625 42.3654 37.5171 42.514 37.1716 42.514Z" fill="#F7B512"/>
<path d="M34.5001 42.1028C34.0314 42.1028 33.5841 41.8281 33.3858 41.3687L22.2903 15.5609C22.0269 14.9458 22.3101 14.2329 22.926 13.9689C23.539 13.7041 24.2526 13.988 24.5187 14.6039L35.6143 40.4116C35.8776 41.0261 35.5945 41.7396 34.9786 42.0037C34.8229 42.0709 34.66 42.1028 34.5001 42.1028Z" fill="#F7B512"/>
<path d="M32.9384 44.4863H14.856C14.1863 44.4863 13.644 43.9433 13.644 43.2736C13.644 42.604 14.1863 42.061 14.856 42.061H32.9384C33.6081 42.061 34.1504 42.604 34.1504 43.2736C34.1504 43.9433 33.6081 44.4863 32.9384 44.4863Z" fill="#F7B512"/>
<path d="M30.349 16.295H19.9514C19.2818 16.295 18.7395 15.7521 18.7395 15.0824C18.7395 14.4127 19.2817 13.8698 19.9514 13.8698H30.349C31.0187 13.8698 31.5609 14.4127 31.5609 15.0824C31.5609 15.7521 31.0187 16.295 30.349 16.295Z" fill="#F7B512"/>
<path d="M57.1442 44.4863C56.6231 44.4863 56.1432 44.1486 55.9846 43.6255L50.2308 24.6397C50.1954 24.5257 50.1785 24.4068 50.1785 24.2879V16.8083C50.1785 16.1386 50.7207 15.5956 51.3904 15.5956C52.06 15.5956 52.6023 16.1386 52.6023 16.8083V24.1081L58.3037 42.9218C58.4991 43.5625 58.1366 44.2399 57.4953 44.4339C57.3792 44.4693 57.2602 44.4863 57.1442 44.4863Z" fill="#F7B512"/>
<path d="M58.87 25.3766C58.2003 25.3766 57.6581 24.8337 57.6581 24.164C57.6581 23.4943 58.2003 22.9514 58.87 22.9514C60.2178 22.9514 61.3561 21.8322 61.3561 20.507C61.3561 19.1358 60.2405 18.0209 58.87 18.0209H51.3904C50.7207 18.0209 50.1785 17.4779 50.1785 16.8083C50.1785 16.1386 50.7207 15.5956 51.3904 15.5956H58.87C61.577 15.5956 63.78 17.7993 63.78 20.507C63.78 23.1921 61.577 25.3766 58.87 25.3766Z" fill="#F7B512"/>
<path d="M35.5277 47.0757C33.4309 47.0757 31.7263 45.3697 31.7263 43.2736C31.7263 41.1775 33.4309 39.4722 35.5277 39.4722C37.6231 39.4722 39.3277 41.1775 39.3277 43.2736C39.3277 45.3697 37.6231 47.0757 35.5277 47.0757ZM35.5277 41.8975C34.7561 41.8975 34.1502 42.502 34.1502 43.2736C34.1502 44.046 34.7561 44.6505 35.5277 44.6505C36.2993 44.6505 36.9039 44.046 36.9039 43.2736C36.9039 42.502 36.2993 41.8975 35.5277 41.8975Z" fill="#F7B512"/>
</svg>
