<svg width="102" height="103" viewBox="0 0 102 103" fill="none" xmlns="http://www.w3.org/2000/svg">
<path d="M21.0458 82.6113C9.44084 82.6113 0 73.1694 0 61.5644C0 49.9594 9.44084 40.5176 21.0458 40.5176C32.6508 40.5176 42.0917 49.9594 42.0917 61.5644C42.0917 73.1694 32.6508 82.6113 21.0458 82.6113ZM21.0458 43.9533C11.3342 43.9533 3.43376 51.8538 3.43376 61.5644C3.43376 71.275 11.3342 79.1755 21.0458 79.1755C30.7574 79.1755 38.6579 71.275 38.6579 61.5644C38.6579 51.8538 30.7574 43.9533 21.0458 43.9533Z" fill="#F7B512"/>
<path d="M80.954 82.6113C69.349 82.6113 59.9082 73.1694 59.9082 61.5644C59.9082 49.9594 69.349 40.5176 80.954 40.5176C92.559 40.5176 102 49.9594 102 61.5644C102 73.1694 92.559 82.6113 80.954 82.6113ZM80.954 43.9533C71.2424 43.9533 63.342 51.8538 63.342 61.5644C63.342 71.275 71.2424 79.1755 80.954 79.1755C90.6656 79.1755 98.5661 71.275 98.5661 61.5644C98.5661 51.8538 90.6656 43.9533 80.954 43.9533Z" fill="#F7B512"/>
<path d="M72.8029 36.386H37.9879C37.0392 36.386 36.271 35.6168 36.271 34.6681C36.271 33.7194 37.0392 32.9502 37.9879 32.9502H72.8029C73.7516 32.9502 74.5197 33.7194 74.5197 34.6681C74.5197 35.6168 73.7516 36.386 72.8029 36.386Z" fill="#F7B512"/>
<path d="M21.0436 63.2822C20.7308 63.2822 20.4139 63.1969 20.1311 63.0174C19.3268 62.512 19.0861 61.452 19.5915 60.6487L36.5337 33.7522C37.0411 32.9499 38.1041 32.7103 38.9024 33.2147C39.7067 33.7201 39.9474 34.7801 39.442 35.5834L22.4998 62.4799C22.1729 62.9984 21.6153 63.2822 21.0436 63.2822Z" fill="#F7B512"/>
<path d="M52.6596 60.4881C52.2705 60.4881 51.8794 60.3567 51.5585 60.0879C50.8304 59.4802 50.7341 58.3971 51.3419 57.6691L71.4851 33.5665C72.0929 32.8375 73.1779 32.7412 73.904 33.3499C74.6321 33.9576 74.7283 35.0407 74.1206 35.7688L53.9773 59.8713C53.6384 60.2775 53.149 60.4881 52.6596 60.4881Z" fill="#F7B512"/>
<path d="M48.875 59.9057C48.2112 59.9057 47.5774 59.5166 47.2966 58.8657L31.5779 22.3048C31.2048 21.4333 31.6059 20.4234 32.4784 20.0493C33.3469 19.6743 34.3578 20.0764 34.7348 20.9489L50.4535 57.5098C50.8266 58.3803 50.4254 59.3912 49.553 59.7652C49.3323 59.8605 49.1017 59.9057 48.875 59.9057Z" fill="#F7B512"/>
<path d="M46.6628 63.282H21.046C20.0973 63.282 19.3291 62.5128 19.3291 61.5641C19.3291 60.6154 20.0973 59.8462 21.046 59.8462H46.6628C47.6115 59.8462 48.3797 60.6154 48.3797 61.5641C48.3797 62.5128 47.6115 63.282 46.6628 63.282Z" fill="#F7B512"/>
<path d="M42.9941 23.3447H28.2642C27.3156 23.3447 26.5474 22.5755 26.5474 21.6268C26.5474 20.6781 27.3155 19.9089 28.2642 19.9089H42.9941C43.9428 19.9089 44.711 20.6781 44.711 21.6268C44.711 22.5755 43.9428 23.3447 42.9941 23.3447Z" fill="#F7B512"/>
<path d="M80.954 63.2821C80.2159 63.2821 79.536 62.8038 79.3113 62.0627L71.1601 35.1662C71.11 35.0047 71.0859 34.8362 71.0859 34.6678V24.0716C71.0859 23.1229 71.8541 22.3538 72.8028 22.3538C73.7515 22.3538 74.5197 23.1229 74.5197 24.0716V34.413L82.5967 61.0658C82.8734 61.9734 82.36 62.9331 81.4514 63.2079C81.2869 63.2581 81.1185 63.2821 80.954 63.2821Z" fill="#F7B512"/>
<path d="M83.3989 36.2102C82.4502 36.2102 81.6821 35.441 81.6821 34.4923C81.6821 33.5436 82.4502 32.7744 83.3989 32.7744C85.3084 32.7744 86.921 31.1889 86.921 29.3115C86.921 27.369 85.3405 25.7895 83.3989 25.7895H72.8028C71.8541 25.7895 71.0859 25.0203 71.0859 24.0716C71.0859 23.1229 71.8541 22.3538 72.8028 22.3538H83.3989C87.2338 22.3538 90.3547 25.4756 90.3547 29.3115C90.3547 33.1154 87.2338 36.2102 83.3989 36.2102Z" fill="#F7B512"/>
<path d="M50.3311 66.9508C47.3607 66.9508 44.9458 64.534 44.9458 61.5645C44.9458 58.5951 47.3607 56.1792 50.3311 56.1792C53.2996 56.1792 55.7144 58.5951 55.7144 61.5645C55.7144 64.534 53.2996 66.9508 50.3311 66.9508ZM50.3311 59.615C49.238 59.615 48.3796 60.4714 48.3796 61.5645C48.3796 62.6586 49.238 63.5151 50.3311 63.5151C51.4242 63.5151 52.2807 62.6586 52.2807 61.5645C52.2807 60.4714 51.4242 59.615 50.3311 59.615Z" fill="#F7B512"/>
</svg>
