<svg width="102" height="102" viewBox="0 0 102 102" fill="none" xmlns="http://www.w3.org/2000/svg">
<path d="M94.318 47.3823H7.68172C4.32374 47.3823 1.60156 50.1027 1.60156 53.4585C1.60156 56.8143 4.32374 59.5347 7.68172 59.5347H94.318C97.6759 59.5347 100.398 56.8143 100.398 53.4585C100.398 50.1027 97.6759 47.3823 94.318 47.3823Z" stroke="#F7B512" stroke-width="2.855" stroke-linecap="round" stroke-linejoin="round"/>
<path d="M18.6865 59.5425V87.3694H13.1323V59.5425" stroke="#F7B512" stroke-width="2.855" stroke-linecap="round" stroke-linejoin="round"/>
<path d="M88.8672 59.5425V87.3694H83.313V59.5425" stroke="#F7B512" stroke-width="2.855" stroke-linecap="round" stroke-linejoin="round"/>
<path d="M18.6865 77.6953L50.9998 59.5425" stroke="#F7B512" stroke-width="2.855" stroke-linecap="round" stroke-linejoin="round"/>
<path d="M83.3133 77.6953L51 59.5425" stroke="#F7B512" stroke-width="2.855" stroke-linecap="round" stroke-linejoin="round"/>
<path d="M41.6924 23.197C41.6918 24.7027 42.0104 26.1914 42.6272 27.5649C43.2439 28.9385 44.1447 30.1657 45.2704 31.1658C45.4746 31.3472 45.7383 31.4475 46.0114 31.4475C46.2846 31.4475 46.5483 31.3472 46.7525 31.1658C47.9359 30.1112 48.8695 28.8062 49.4854 27.3456C50.1013 25.885 50.384 24.3055 50.3131 22.722C50.2421 21.1385 49.8192 19.5906 49.0751 18.191C48.331 16.7914 47.2845 15.5751 46.0114 14.6306C44.6732 15.6226 43.5857 16.914 42.8357 18.4015C42.0858 19.8889 41.6942 21.5312 41.6924 23.197Z" stroke="#F7B512" stroke-width="2.855" stroke-linecap="round" stroke-linejoin="round"/>
<path d="M47.6372 30.2813C48.9096 30.2873 50.1683 30.018 51.3268 29.4918C52.4853 28.9656 53.5163 28.195 54.349 27.2328C55.1817 26.2707 55.7964 25.1398 56.1509 23.9178C56.5054 22.6957 56.5914 21.4114 56.4028 20.1531C54.239 19.8284 52.0314 20.3136 50.2031 21.5157" stroke="#F7B512" stroke-width="2.855" stroke-linecap="round" stroke-linejoin="round"/>
<path d="M41.8281 21.5156C40.0112 20.3143 37.8158 19.8236 35.6603 20.137C35.4699 21.3926 35.5528 22.6745 35.9034 23.8951C36.2539 25.1157 36.8639 26.2462 37.6917 27.2094C38.5194 28.1725 39.5453 28.9456 40.6993 29.4758C41.8533 30.0059 43.1082 30.2807 44.3781 30.2812" stroke="#F7B512" stroke-width="2.855" stroke-linecap="round" stroke-linejoin="round"/>
<path d="M47.0713 30.855C48.1788 31.5246 49.4199 31.9427 50.7068 32.0798C51.9937 32.217 53.295 32.0698 54.5188 31.6487C55.7426 31.2276 56.8589 30.5429 57.7889 29.6429C58.719 28.7429 59.44 27.6496 59.901 26.4403C58.7077 25.529 57.3049 24.9317 55.821 24.7031" stroke="#F7B512" stroke-width="2.855" stroke-linecap="round" stroke-linejoin="round"/>
<path d="M44.9438 30.855C43.8369 31.5245 42.5964 31.9426 41.31 32.0797C40.0236 32.2169 38.7229 32.0696 37.4997 31.6485C36.2765 31.2273 35.1608 30.5425 34.2316 29.6426C33.3023 28.7426 32.5822 27.6494 32.1221 26.4403C33.3146 25.5278 34.7178 24.9304 36.2021 24.7031" stroke="#F7B512" stroke-width="2.855" stroke-linecap="round" stroke-linejoin="round"/>
<path d="M46.0117 27.5879V25.5957" stroke="#F7B512" stroke-width="2.855" stroke-linecap="round" stroke-linejoin="round"/>
<path d="M8.98096 55.6619H21.3006" stroke="#F7B512" stroke-width="2.855" stroke-linecap="round" stroke-linejoin="round"/>
<path d="M26.1294 55.6619H28.5678" stroke="#F7B512" stroke-width="2.855" stroke-linecap="round" stroke-linejoin="round"/>
<path d="M91.8955 32.5604H69.328C68.2403 32.5583 67.1976 32.1253 66.4285 31.3561C65.6593 30.5869 65.2262 29.5443 65.2241 28.4565C65.2283 27.3701 65.6623 26.3296 66.4313 25.5621C67.2002 24.7946 68.2416 24.3627 69.328 24.3606H89.5368H89.9591C92.4772 24.6236 92.1824 28.4406 89.6483 28.4406H70.1727" stroke="#F7B512" stroke-width="2.855" stroke-linecap="round" stroke-linejoin="round"/>
<path d="M59.3592 44.1387H36.7598C35.6755 44.1303 34.6381 43.6948 33.8729 42.9265C33.1076 42.1582 32.676 41.1192 32.6719 40.0348C32.6761 38.9477 33.1098 37.9063 33.8785 37.1376C34.6472 36.3688 35.6887 35.9351 36.7758 35.9309H56.9686C57.1093 35.9228 57.2503 35.9228 57.3909 35.9309C59.9091 36.1859 59.6142 40.0109 57.0802 40.0109H37.6364" stroke="#F7B512" stroke-width="2.855" stroke-linecap="round" stroke-linejoin="round"/>
<path d="M65.1924 44.1387H87.7997C88.8861 44.1345 89.9267 43.7005 90.6942 42.9316C91.4616 42.1626 91.8936 41.1212 91.8957 40.0348C91.8936 38.9484 91.4616 37.907 90.6942 37.1381C89.9267 36.3691 88.8861 35.9351 87.7997 35.9309H67.583C67.445 35.9228 67.3066 35.9228 67.1686 35.9309C64.6425 36.1859 64.9454 40.0109 67.4794 40.0109H86.9152" stroke="#F7B512" stroke-width="2.855" stroke-linecap="round" stroke-linejoin="round"/>
</svg>
