<svg width="72" height="72" viewBox="0 0 72 72" fill="none" xmlns="http://www.w3.org/2000/svg">
<path d="M66.5775 33.4463H5.42249C3.05215 33.4463 1.13062 35.3665 1.13062 37.7353C1.13062 40.1041 3.05215 42.0244 5.42249 42.0244H66.5775C68.9478 42.0244 70.8694 40.1041 70.8694 37.7353C70.8694 35.3665 68.9478 33.4463 66.5775 33.4463Z" stroke="#F7B512" stroke-width="2" stroke-linecap="round" stroke-linejoin="round"/>
<path d="M13.1906 42.03V61.6725H9.27002V42.03" stroke="#F7B512" stroke-width="2" stroke-linecap="round" stroke-linejoin="round"/>
<path d="M62.7299 42.03V61.6725H58.8093V42.03" stroke="#F7B512" stroke-width="2" stroke-linecap="round" stroke-linejoin="round"/>
<path d="M13.1907 54.8437L36 42.03" stroke="#F7B512" stroke-width="2" stroke-linecap="round" stroke-linejoin="round"/>
<path d="M58.8094 54.8437L36 42.03" stroke="#F7B512" stroke-width="2" stroke-linecap="round" stroke-linejoin="round"/>
<path d="M29.4299 16.3744C29.4295 17.4372 29.6544 18.488 30.0898 19.4576C30.5251 20.4272 31.161 21.2935 31.9556 21.9994C32.0997 22.1275 32.2858 22.1982 32.4787 22.1982C32.6715 22.1982 32.8577 22.1275 33.0018 21.9994C33.8372 21.255 34.4961 20.3338 34.9309 19.3028C35.3656 18.2718 35.5652 17.1569 35.5151 16.0391C35.465 14.9213 35.1665 13.8287 34.6413 12.8407C34.116 11.8527 33.3773 10.9942 32.4787 10.3275C31.5341 11.0278 30.7664 11.9393 30.237 12.9893C29.7076 14.0392 29.4312 15.1985 29.4299 16.3744Z" stroke="#F7B512" stroke-width="2" stroke-linecap="round" stroke-linejoin="round"/>
<path d="M33.6262 21.375C34.5244 21.3792 35.4129 21.1891 36.2306 20.8177C37.0484 20.4462 37.7762 19.9023 38.364 19.2231C38.9517 18.544 39.3856 17.7457 39.6359 16.8831C39.8861 16.0204 39.9468 15.1139 39.8137 14.2256C38.2863 13.9965 36.728 14.339 35.4375 15.1875" stroke="#F7B512" stroke-width="2" stroke-linecap="round" stroke-linejoin="round"/>
<path d="M29.5257 15.1875C28.2432 14.3395 26.6935 13.9931 25.172 14.2144C25.0375 15.1007 25.0961 16.0055 25.3435 16.8671C25.591 17.7287 26.0216 18.5268 26.6059 19.2066C27.1902 19.8865 27.9143 20.4322 28.7289 20.8064C29.5435 21.1807 30.4293 21.3746 31.3257 21.375" stroke="#F7B512" stroke-width="2" stroke-linecap="round" stroke-linejoin="round"/>
<path d="M33.2268 21.78C34.0086 22.2526 34.8846 22.5478 35.793 22.6446C36.7015 22.7414 37.62 22.6375 38.4839 22.3403C39.3477 22.043 40.1357 21.5597 40.7922 20.9244C41.4487 20.2891 41.9576 19.5174 42.2831 18.6638C41.4408 18.0205 40.4505 17.5989 39.4031 17.4375" stroke="#F7B512" stroke-width="2" stroke-linecap="round" stroke-linejoin="round"/>
<path d="M31.7249 21.78C30.9436 22.2526 30.0679 22.5477 29.1599 22.6445C28.2519 22.7413 27.3337 22.6374 26.4703 22.3401C25.6069 22.0428 24.8193 21.5594 24.1634 20.9242C23.5074 20.2889 22.9991 19.5172 22.6743 18.6638C23.5161 18.0196 24.5066 17.5979 25.5543 17.4375" stroke="#F7B512" stroke-width="2" stroke-linecap="round" stroke-linejoin="round"/>
<path d="M32.4788 19.4738V18.0675" stroke="#F7B512" stroke-width="2" stroke-linecap="round" stroke-linejoin="round"/>
<path d="M6.33936 39.2906H15.0356" stroke="#F7B512" stroke-width="2" stroke-linecap="round" stroke-linejoin="round"/>
<path d="M18.4443 39.2906H20.1656" stroke="#F7B512" stroke-width="2" stroke-linecap="round" stroke-linejoin="round"/>
<path d="M64.8674 22.9837H48.9374C48.1696 22.9823 47.4336 22.6766 46.8906 22.1336C46.3477 21.5907 46.042 20.8547 46.0405 20.0869C46.0435 19.32 46.3498 18.5855 46.8926 18.0437C47.4354 17.502 48.1705 17.1971 48.9374 17.1956H63.2024H63.5005C65.278 17.3812 65.0699 20.0756 63.2812 20.0756H49.5337" stroke="#F7B512" stroke-width="2" stroke-linecap="round" stroke-linejoin="round"/>
<path d="M41.9006 31.1569H25.9481C25.1827 31.151 24.4505 30.8435 23.9103 30.3012C23.37 29.7589 23.0654 29.0255 23.0625 28.26C23.0655 27.4926 23.3716 26.7575 23.9142 26.2149C24.4569 25.6722 25.192 25.3661 25.9594 25.3631H40.2131C40.3124 25.3574 40.412 25.3574 40.5112 25.3631C42.2887 25.5431 42.0806 28.2431 40.2919 28.2431H26.5669" stroke="#F7B512" stroke-width="2" stroke-linecap="round" stroke-linejoin="round"/>
<path d="M46.0181 31.1569H61.9762C62.7431 31.1539 63.4776 30.8476 64.0193 30.3048C64.5611 29.762 64.866 29.0269 64.8674 28.26C64.866 27.4931 64.5611 26.758 64.0193 26.2152C63.4776 25.6724 62.7431 25.3661 61.9762 25.3631H47.7056C47.6082 25.3574 47.5105 25.3574 47.4131 25.3631C45.6299 25.5431 45.8437 28.2431 47.6324 28.2431H61.3518" stroke="#F7B512" stroke-width="2" stroke-linecap="round" stroke-linejoin="round"/>
</svg>
