<svg width="72" height="72" viewBox="0 0 72 72" fill="none" xmlns="http://www.w3.org/2000/svg">
<path d="M61.086 39.42C60.5033 38.3743 60.1975 37.1971 60.1975 36C60.1975 34.8029 60.5033 33.6257 61.086 32.58L62.685 30.048C62.9706 29.6368 63.1572 29.165 63.2301 28.6697C63.3031 28.1744 63.2605 27.6688 63.1057 27.1927C62.9508 26.7166 62.688 26.2827 62.3376 25.925C61.9872 25.5674 61.5589 25.2956 61.086 25.131L58.305 24.021C57.2219 23.5159 56.2856 22.7427 55.5848 21.7746C54.8839 20.8066 54.4417 19.6757 54.3 18.489L54.105 15.489C54.0939 14.9884 53.9673 14.4972 53.735 14.0537C53.5027 13.6101 53.171 13.2263 52.7659 12.9321C52.3607 12.6379 51.8931 12.4413 51.3994 12.3577C50.9057 12.274 50.3994 12.3056 49.92 12.45L47.019 13.185C45.8448 13.4238 44.629 13.3575 43.4877 12.9925C42.3464 12.6274 41.3177 11.9759 40.5 11.1L38.586 8.79601C38.2825 8.39802 37.8913 8.07544 37.4428 7.8534C36.9942 7.63136 36.5005 7.51584 36 7.51584C35.4995 7.51584 35.0058 7.63136 34.5573 7.8534C34.1087 8.07544 33.7175 8.39802 33.414 8.79601L31.5 11.1C30.6853 11.9761 29.6599 12.629 28.5214 12.9966C27.3829 13.3642 26.1692 13.4342 24.996 13.2L22.095 12.465C21.6147 12.3178 21.1067 12.2841 20.6111 12.3664C20.1155 12.4487 19.6457 12.6448 19.2387 12.9393C18.8317 13.2338 18.4985 13.6187 18.2654 14.0637C18.0322 14.5087 17.9054 15.0017 17.895 15.504L17.7 18.504C17.5568 19.6922 17.1124 20.8242 16.4088 21.7923C15.7052 22.7605 14.7659 23.5329 13.68 24.036L10.899 25.146C10.4262 25.3106 9.9978 25.5824 9.64743 25.94C9.29706 26.2977 9.03418 26.7316 8.87934 27.2077C8.7245 27.6838 8.6819 28.1894 8.75488 28.6847C8.82786 29.18 9.01443 29.6518 9.30001 30.063L10.899 32.595C11.4817 33.6407 11.7876 34.8179 11.7876 36.015C11.7876 37.2121 11.4817 38.3893 10.899 39.435L9.30001 41.967C9.01443 42.3783 8.82786 42.85 8.75488 43.3453C8.6819 43.8407 8.7245 44.3462 8.87934 44.8223C9.03418 45.2984 9.29706 45.7323 9.64743 46.09C9.9978 46.4476 10.4262 46.7194 10.899 46.884L13.68 47.994C14.7663 48.4974 15.7059 49.2702 16.4095 50.239C17.1131 51.2077 17.5573 52.3403 17.7 53.529L17.895 56.514C17.9054 57.0163 18.0322 57.5093 18.2654 57.9543C18.4985 58.3993 18.8317 58.7842 19.2387 59.0787C19.6457 59.3732 20.1155 59.5693 20.6111 59.6516C21.1067 59.7339 21.6147 59.7002 22.095 59.553L24.996 58.818C26.1692 58.5838 27.3829 58.6538 28.5214 59.0214C29.6599 59.389 30.6853 60.0419 31.5 60.918L33.414 63.222C33.7175 63.62 34.1087 63.9426 34.5573 64.1646C35.0058 64.3867 35.4995 64.5022 36 64.5022C36.5005 64.5022 36.9942 64.3867 37.4428 64.1646C37.8913 63.9426 38.2825 63.62 38.586 63.222L40.5 60.918C41.3147 60.0419 42.3402 59.389 43.4787 59.0214C44.6171 58.6538 45.8308 58.5838 47.004 58.818L49.905 59.553C50.3844 59.6974 50.8908 59.729 51.3844 59.6454C51.8781 59.5618 52.3457 59.3652 52.7509 59.071C53.156 58.7768 53.4877 58.3929 53.72 57.9494C53.9523 57.5058 54.0789 57.0146 54.09 56.514L54.285 53.529C54.4277 52.3403 54.8719 51.2077 55.5755 50.239C56.2791 49.2702 57.2187 48.4974 58.305 47.994L61.086 46.884C61.5589 46.7194 61.9872 46.4476 62.3376 46.09C62.688 45.7323 62.9508 45.2984 63.1057 44.8223C63.2605 44.3462 63.3031 43.8407 63.2301 43.3453C63.1572 42.85 62.9706 42.3783 62.685 41.967L61.086 39.42Z" stroke="#F7B512" stroke-width="2" stroke-linecap="round" stroke-linejoin="round"/>
<path d="M25.5 36L32.499 42.999L46.5 29.001" stroke="#F7B512" stroke-width="2" stroke-linecap="round" stroke-linejoin="round"/>
</svg>
