<svg width="72" height="72" viewBox="0 0 72 72" fill="none" xmlns="http://www.w3.org/2000/svg">
<path d="M14.3598 34.2553H60.8695C61.0651 34.2534 61.252 34.1743 61.3896 34.0353C61.5272 33.8964 61.6044 33.7087 61.6044 33.5131C61.6044 33.3175 61.5272 33.1298 61.3896 32.9908C61.252 32.8518 61.0651 32.7728 60.8695 32.7709H57.2385C58.5779 31.9182 59.6808 30.7416 60.4452 29.3498C61.2095 27.9581 61.6107 26.3961 61.6117 24.8082C61.6117 19.6001 57.3735 15.3623 52.1647 15.3623C50.1658 15.3629 48.2193 16.0018 46.6087 17.1858L44.9311 15.2286L45.2327 14.3592H47.1915C47.3871 14.3573 47.574 14.2783 47.7116 14.1393C47.8492 14.0003 47.9264 13.8126 47.9264 13.617C47.9264 13.4214 47.8492 13.2338 47.7116 13.0948C47.574 12.9558 47.3871 12.8767 47.1915 12.8748H42.2173C42.1192 12.8739 42.0219 12.8923 41.931 12.9292C41.8401 12.9661 41.7575 13.0206 41.6878 13.0896C41.6181 13.1586 41.5627 13.2408 41.525 13.3313C41.4872 13.4218 41.4678 13.5189 41.4678 13.617C41.4678 13.7151 41.4872 13.8122 41.525 13.9028C41.5627 13.9933 41.6181 14.0754 41.6878 14.1445C41.7575 14.2135 41.8401 14.268 41.931 14.3049C42.0219 14.3417 42.1192 14.3602 42.2173 14.3592H43.6614L40.3247 23.9809C40.0664 23.8942 39.8333 23.7455 39.6458 23.5478C39.4583 23.3502 39.322 23.1096 39.249 22.8471C37.9995 18.3809 35.6448 15.2852 32.5968 14.0028C32.7269 13.3046 32.8354 12.5946 32.9223 11.8728H34.7568C34.8549 11.8738 34.9522 11.8553 35.0431 11.8184C35.134 11.7815 35.2167 11.727 35.2864 11.658C35.3561 11.589 35.4114 11.5068 35.4492 11.4163C35.4869 11.3258 35.5064 11.2287 35.5064 11.1306C35.5064 11.0325 35.4869 10.9354 35.4492 10.8448C35.4114 10.7543 35.3561 10.6722 35.2864 10.6032C35.2167 10.5341 35.134 10.4796 35.0431 10.4428C34.9522 10.4059 34.8549 10.3874 34.7568 10.3884H27.2958C27.1977 10.3874 27.1004 10.4059 27.0095 10.4428C26.9186 10.4796 26.836 10.5341 26.7663 10.6032C26.6966 10.6722 26.6412 10.7543 26.6035 10.8448C26.5657 10.9354 26.5463 11.0325 26.5463 11.1306C26.5463 11.2287 26.5657 11.3258 26.6035 11.4163C26.6412 11.5068 26.6966 11.589 26.7663 11.658C26.836 11.727 26.9186 11.7815 27.0095 11.8184C27.1004 11.8553 27.1977 11.8738 27.2958 11.8728H31.4262C31.2561 13.2591 30.9898 14.632 30.6291 15.9813C29.5648 15.5742 28.4351 15.3644 27.2955 15.3621C22.843 15.3621 18.9836 18.5275 18.0611 22.8226H11.1306C10.9338 22.8226 10.7451 22.9009 10.6059 23.04C10.4667 23.1792 10.3885 23.3679 10.3884 23.5647V60.8694C10.3885 61.0663 10.4667 61.255 10.6059 61.3942C10.7451 61.5333 10.9338 61.6115 11.1306 61.6116H60.8695C61.0651 61.6097 61.252 61.5306 61.3896 61.3917C61.5272 61.2527 61.6044 61.065 61.6044 60.8694C61.6044 60.6738 61.5272 60.4861 61.3896 60.3471C61.252 60.2082 61.0651 60.1291 60.8695 60.1272H57.2385C58.578 59.2745 59.6809 58.0979 60.4452 56.7062C61.2096 55.3144 61.6108 53.7525 61.6117 52.1646C61.6117 46.9564 57.3735 42.7188 52.1647 42.7188C50.1659 42.7194 48.2196 43.3581 46.6092 44.542L44.9311 42.5843L45.2324 41.7156H47.1912C47.3868 41.7137 47.5737 41.6347 47.7113 41.4957C47.849 41.3567 47.9262 41.169 47.9262 40.9734C47.9262 40.7778 47.849 40.5902 47.7113 40.4512C47.5737 40.3122 47.3868 40.2332 47.1912 40.2312H42.2173C42.1192 40.2303 42.0219 40.2487 41.931 40.2856C41.8401 40.3225 41.7575 40.377 41.6878 40.446C41.6181 40.515 41.5627 40.5972 41.525 40.6877C41.4872 40.7782 41.4678 40.8753 41.4678 40.9734C41.4678 41.0715 41.4872 41.1686 41.525 41.2592C41.5627 41.3497 41.6181 41.4318 41.6878 41.5009C41.7575 41.5699 41.8401 41.6244 41.931 41.6613C42.0219 41.6981 42.1192 41.7166 42.2173 41.7156H43.6614L40.3247 51.3373C40.0665 51.2506 39.8334 51.1019 39.6458 50.9043C39.4583 50.7067 39.3221 50.4661 39.249 50.2037C37.9995 45.7392 35.6451 42.6426 32.5968 41.3592C32.7269 40.6608 32.8354 39.9509 32.9223 39.2293H34.7568C34.8549 39.2302 34.9522 39.2118 35.0431 39.1749C35.134 39.138 35.2167 39.0835 35.2864 39.0145C35.3561 38.9455 35.4114 38.8633 35.4492 38.7728C35.4869 38.6823 35.5064 38.5851 35.5064 38.4871C35.5064 38.389 35.4869 38.2919 35.4492 38.2013C35.4114 38.1108 35.3561 38.0286 35.2864 37.9596C35.2167 37.8906 35.134 37.8361 35.0431 37.7992C34.9522 37.7624 34.8549 37.7439 34.7568 37.7448H27.2958C27.1977 37.7439 27.1004 37.7624 27.0095 37.7992C26.9186 37.8361 26.836 37.8906 26.7663 37.9596C26.6966 38.0286 26.6412 38.1108 26.6035 38.2013C26.5657 38.2919 26.5463 38.389 26.5463 38.4871C26.5463 38.5851 26.5657 38.6823 26.6035 38.7728C26.6412 38.8633 26.6966 38.9455 26.7663 39.0145C26.836 39.0835 26.9186 39.138 27.0095 39.1749C27.1004 39.2118 27.1977 39.2302 27.2958 39.2293H31.4262C31.2561 40.6156 30.9898 41.9884 30.6291 43.3378C29.5648 42.9306 28.4351 42.7208 27.2955 42.7186C22.843 42.7186 18.9836 45.8842 18.061 50.1792H14.3602L14.3598 34.2553ZM14.3598 32.7709V26.7937H18.0606C18.327 28.0167 18.8334 29.1746 19.5503 30.2006C20.2672 31.2266 21.1804 32.1002 22.2372 32.7709H14.3598ZM52.1647 16.8468C53.708 16.8462 55.2181 17.2941 56.5115 18.1361C57.8048 18.978 58.8256 20.1777 59.4497 21.5891C60.0738 23.0006 60.2742 24.563 60.0266 26.0863C59.779 27.6095 59.094 29.028 58.055 30.1691C57.0161 31.3103 55.6679 32.1249 54.1744 32.5138C52.681 32.9028 51.1067 32.8494 49.6431 32.36C48.1794 31.8707 46.8896 30.9665 45.9304 29.7576C44.9712 28.5486 44.384 27.087 44.2402 25.5504H52.1647C52.3067 25.5504 52.4457 25.5096 52.5652 25.4329C52.6847 25.3563 52.7797 25.247 52.8391 25.118C52.8984 24.989 52.9194 24.8457 52.8998 24.7051C52.8802 24.5645 52.8206 24.4324 52.7282 24.3246L47.5755 18.3138C48.9155 17.3595 50.5196 16.8467 52.1647 16.8468ZM50.5512 24.066H44.2402C44.4091 22.2656 45.1881 20.5768 46.448 19.2797L50.5512 24.066ZM44.3676 16.8527L45.4759 18.1457C43.8935 19.7325 42.9291 21.8317 42.7559 24.066H41.8662L44.3676 16.8527ZM32.289 15.4819C34.7831 16.6581 36.7337 19.3668 37.8191 23.2461C38.0014 23.9045 38.3932 24.4855 38.9353 24.9013C39.4774 25.317 40.1401 25.5448 40.8233 25.5501H42.7559C42.8716 27.0067 43.3232 28.4166 44.0752 29.6693C44.8272 30.9221 45.8592 31.9836 47.0903 32.7706H32.3689C33.74 31.8993 34.8628 30.6886 35.6285 29.2559C36.3941 27.8231 36.7767 26.2169 36.7391 24.5928C36.7015 22.9688 36.245 21.382 35.4139 19.9862C34.5827 18.5904 33.4051 17.433 31.9952 16.6261C32.1007 16.2491 32.1977 15.8671 32.289 15.4819ZM27.2953 16.8468C28.2908 16.848 29.2771 17.0371 30.2025 17.4043C29.3715 19.9381 28.2081 22.2738 26.6934 24.3745C26.6364 24.4536 26.5956 24.5431 26.5733 24.6379C26.5509 24.7327 26.5474 24.831 26.563 24.9272C26.5787 25.0233 26.6131 25.1155 26.6643 25.1983C26.7155 25.2812 26.7826 25.3532 26.8616 25.4101C26.9407 25.4671 27.0302 25.5079 27.125 25.5303C27.2198 25.5526 27.3181 25.5561 27.4143 25.5405C27.5104 25.5249 27.6026 25.4905 27.6855 25.4392C27.7683 25.388 27.8403 25.3209 27.8972 25.2419C29.4643 23.0529 30.6925 20.6402 31.5404 18.0851C33.0007 19.0045 34.1224 20.3738 34.7363 21.9864C35.3502 23.5991 35.4231 25.3677 34.9439 27.0254C34.4647 28.6831 33.4594 30.14 32.0798 31.1764C30.7001 32.2128 29.0208 32.7724 27.2953 32.7709C23.65 32.7709 20.4768 30.2553 19.5848 26.7937H19.8348C20.3614 26.7937 20.8664 26.5845 21.2388 26.2122C21.6111 25.8398 21.8203 25.3348 21.8203 24.8082C21.8203 24.2817 21.6111 23.7767 21.2388 23.4043C20.8664 23.032 20.3614 22.8228 19.8348 22.8228H19.5851C20.4776 19.3618 23.6504 16.8468 27.2953 16.8468ZM14.3598 60.1272V54.1512H18.0606C18.3271 55.3739 18.8334 56.5316 19.5502 57.5573C20.267 58.5831 21.1801 59.4566 22.2366 60.1272H14.3598ZM52.1647 44.2032C53.708 44.2026 55.2181 44.6505 56.5115 45.4925C57.8048 46.3344 58.8256 47.5341 59.4497 48.9455C60.0738 50.357 60.2742 51.9194 60.0266 53.4427C59.779 54.9659 59.094 56.3844 58.055 57.5255C57.0161 58.6667 55.6679 59.4813 54.1744 59.8702C52.681 60.2592 51.1067 60.2058 49.6431 59.7164C48.1794 59.2271 46.8896 58.3229 45.9304 57.114C44.9712 55.905 44.384 54.4434 44.2402 52.9068H52.1647C52.3067 52.9068 52.4457 52.866 52.5652 52.7893C52.6847 52.7127 52.7797 52.6034 52.8391 52.4744C52.8984 52.3454 52.9194 52.2021 52.8998 52.0615C52.8802 51.9209 52.8206 51.7888 52.7282 51.681L47.5759 45.6696C48.9158 44.7156 50.5198 44.203 52.1647 44.2032ZM50.5512 51.4224H44.2402C44.4091 49.622 45.1881 47.9333 46.448 46.6361L50.5512 51.4224ZM44.3676 44.2091L45.4759 45.5021C43.8936 47.0889 42.9291 49.1881 42.7559 51.4224H41.8662L44.3676 44.2091ZM32.2888 42.8386C34.7834 44.0158 36.7339 46.7244 37.8191 50.6025C38.0014 51.2609 38.3932 51.8419 38.9353 52.2577C39.4774 52.6734 40.1401 52.9012 40.8233 52.9065H42.7559C42.8716 54.3631 43.3232 55.773 44.0752 57.0257C44.8272 58.2784 45.8592 59.3399 47.0903 60.1269H32.3689C33.74 59.2557 34.8628 58.045 35.6285 56.6122C36.3941 55.1795 36.7767 53.5733 36.7391 51.9492C36.7015 50.3251 36.245 48.7383 35.4139 47.3426C34.5827 45.9468 33.4051 44.7894 31.9952 43.9825C32.1005 43.6055 32.1983 43.2242 32.2888 42.8386ZM27.2953 44.2032C28.2908 44.2044 29.2771 44.3935 30.2025 44.7607C29.3715 47.2945 28.2081 49.6302 26.6934 51.7309C26.5784 51.8906 26.5314 52.0894 26.563 52.2836C26.5945 52.4778 26.7019 52.6516 26.8616 52.7666C27.0212 52.8816 27.22 52.9286 27.4142 52.897C27.6085 52.8655 27.7822 52.7581 27.8972 52.5984C29.4642 50.4094 30.6924 47.9967 31.5404 45.4416C33.0007 46.361 34.1224 47.7303 34.7363 49.3429C35.3502 50.9556 35.4231 52.7242 34.9439 54.3819C34.4647 56.0395 33.4594 57.4964 32.0798 58.5328C30.7001 59.5692 29.0208 60.1288 27.2953 60.1272C23.6504 60.1272 20.4776 57.6122 19.5851 54.1512H19.8348C20.3615 54.1512 20.8667 53.942 21.2391 53.5695C21.6116 53.1971 21.8208 52.6919 21.8208 52.1652C21.8208 51.6385 21.6116 51.1334 21.2391 50.7609C20.8667 50.3885 20.3615 50.1792 19.8348 50.1792H19.5851C20.4776 46.7183 23.6503 44.2032 27.2953 44.2032ZM19.8348 51.6637C19.9012 51.6629 19.9671 51.6753 20.0286 51.7001C20.0902 51.725 20.1462 51.7618 20.1934 51.8084C20.2406 51.8551 20.2781 51.9107 20.3037 51.9719C20.3293 52.0332 20.3425 52.0989 20.3425 52.1653C20.3425 52.2316 20.3293 52.2974 20.3037 52.3586C20.2781 52.4199 20.2406 52.4754 20.1934 52.5221C20.1462 52.5687 20.0902 52.6056 20.0286 52.6304C19.9671 52.6553 19.9012 52.6676 19.8348 52.6668H13.6176C13.4207 52.6669 13.232 52.7451 13.0928 52.8843C12.9537 53.0235 12.8755 53.2122 12.8754 53.409V60.1272H11.8729V24.3072H19.8348C19.9011 24.3064 19.9669 24.3188 20.0284 24.3436C20.0899 24.3684 20.1458 24.4052 20.193 24.4518C20.2402 24.4984 20.2776 24.5539 20.3032 24.6151C20.3287 24.6763 20.3419 24.7419 20.3419 24.8082C20.3419 24.8745 20.3287 24.9402 20.3032 25.0013C20.2776 25.0625 20.2402 25.118 20.193 25.1646C20.1458 25.2112 20.0899 25.248 20.0284 25.2728C19.9669 25.2976 19.9011 25.31 19.8348 25.3092H13.6176C13.4207 25.3093 13.232 25.3876 13.0928 25.5267C12.9537 25.6659 12.8755 25.8546 12.8754 26.0515V50.9215C12.8755 51.1183 12.9537 51.307 13.0928 51.4462C13.232 51.5854 13.4207 51.6636 13.6176 51.6637H19.8348Z" fill="#F7B512"/>
</svg>
