<svg width="102" height="103" viewBox="0 0 102 103" fill="none" xmlns="http://www.w3.org/2000/svg">
<path d="M20.3429 48.7883H86.2317C86.5087 48.7856 86.7735 48.6736 86.9685 48.4767C87.1634 48.2798 87.2728 48.014 87.2728 47.7369C87.2728 47.4598 87.1634 47.1939 86.9685 46.997C86.7735 46.8001 86.5087 46.6881 86.2317 46.6854H81.0877C82.9853 45.4774 84.5477 43.8106 85.6305 41.8389C86.7134 39.8673 87.2817 37.6544 87.2831 35.405C87.2831 28.0267 81.2789 22.0233 73.8998 22.0233C71.068 22.0241 68.3105 22.9292 66.0289 24.6066L63.6523 21.8339L64.0795 20.6023H66.8545C67.1316 20.5995 67.3964 20.4875 67.5913 20.2907C67.7863 20.0938 67.8957 19.8279 67.8957 19.5508C67.8957 19.2737 67.7863 19.0078 67.5913 18.8109C67.3964 18.614 67.1316 18.5021 66.8545 18.4993H59.8077C59.6688 18.498 59.5309 18.5241 59.4022 18.5764C59.2734 18.6286 59.1563 18.7058 59.0575 18.8036C58.9588 18.9014 58.8804 19.0178 58.8269 19.146C58.7734 19.2743 58.7459 19.4118 58.7459 19.5508C58.7459 19.6898 58.7734 19.8273 58.8269 19.9556C58.8804 20.0838 58.9588 20.2002 59.0575 20.298C59.1563 20.3958 59.2734 20.473 59.4022 20.5252C59.5309 20.5774 59.6688 20.6036 59.8077 20.6023H61.8535L57.1266 34.2329C56.7607 34.1101 56.4304 33.8994 56.1648 33.6194C55.8991 33.3394 55.7061 32.9986 55.6026 32.6267C53.8325 26.2996 50.4967 21.914 46.1786 20.0974C46.363 19.1082 46.5167 18.1023 46.6397 17.0798H49.2387C49.3777 17.0812 49.5155 17.055 49.6443 17.0027C49.773 16.9505 49.8902 16.8733 49.9889 16.7755C50.0877 16.6777 50.166 16.5614 50.2195 16.4331C50.273 16.3049 50.3006 16.1673 50.3006 16.0283C50.3006 15.8894 50.273 15.7518 50.2195 15.6235C50.166 15.4953 50.0877 15.3789 49.9889 15.2811C49.8902 15.1834 49.773 15.1061 49.6443 15.0539C49.5155 15.0017 49.3777 14.9755 49.2387 14.9769H38.6689C38.53 14.9755 38.3921 15.0017 38.2634 15.0539C38.1346 15.1061 38.0175 15.1834 37.9187 15.2811C37.82 15.3789 37.7416 15.4953 37.6881 15.6235C37.6346 15.7518 37.6071 15.8894 37.6071 16.0283C37.6071 16.1673 37.6346 16.3049 37.6881 16.4331C37.7416 16.5614 37.82 16.6777 37.9187 16.7755C38.0175 16.8733 38.1346 16.9505 38.2634 17.0027C38.3921 17.055 38.53 17.0812 38.6689 17.0798H44.5203C44.2794 19.0438 43.9021 20.9886 43.3911 22.9002C41.8833 22.3234 40.283 22.0262 38.6685 22.023C32.3608 22.023 26.8934 26.5073 25.5864 32.592H15.7682C15.4894 32.5921 15.222 32.7029 15.0249 32.9C14.8277 33.0972 14.7169 33.3645 14.7168 33.6434V86.4917C14.7169 86.7705 14.8277 87.0379 15.0249 87.2351C15.222 87.4322 15.4894 87.543 15.7682 87.5431H86.2317C86.5087 87.5404 86.7735 87.4284 86.9685 87.2315C87.1634 87.0346 87.2728 86.7688 87.2728 86.4917C87.2728 86.2146 87.1634 85.9487 86.9685 85.7518C86.7735 85.5549 86.5087 85.4429 86.2317 85.4402H81.0878C82.9853 84.2322 84.5477 82.5654 85.6306 80.5938C86.7134 78.6221 87.2818 76.4093 87.2831 74.1599C87.2831 66.7815 81.2789 60.7782 73.8998 60.7782C71.0683 60.7791 68.311 61.684 66.0295 63.3612L63.6523 60.5878L64.0791 59.3572H66.8541C67.1312 59.3544 67.396 59.2425 67.5909 59.0456C67.7859 58.8487 67.8953 58.5828 67.8953 58.3057C67.8953 58.0286 67.7859 57.7627 67.5909 57.5658C67.396 57.3689 67.1312 57.257 66.8541 57.2542H59.8077C59.6688 57.2529 59.5309 57.279 59.4022 57.3313C59.2734 57.3835 59.1563 57.4607 59.0575 57.5585C58.9588 57.6563 58.8804 57.7727 58.8269 57.9009C58.7734 58.0292 58.7459 58.1667 58.7459 58.3057C58.7459 58.4447 58.7734 58.5822 58.8269 58.7105C58.8804 58.8387 58.9588 58.9551 59.0575 59.0529C59.1563 59.1507 59.2734 59.2279 59.4022 59.2801C59.5309 59.3323 59.6688 59.3585 59.8077 59.3572H61.8535L57.1266 72.9878C56.7607 72.865 56.4305 72.6544 56.1648 72.3744C55.8991 72.0944 55.7061 71.7537 55.6026 71.3818C53.8325 65.0572 50.4971 60.6703 46.1786 58.8523C46.363 57.8629 46.5167 56.857 46.6397 55.8348H49.2387C49.3777 55.8362 49.5155 55.81 49.6443 55.7578C49.773 55.7055 49.8902 55.6283 49.9889 55.5305C50.0877 55.4327 50.166 55.3164 50.2195 55.1881C50.273 55.0599 50.3006 54.9223 50.3006 54.7833C50.3006 54.6444 50.273 54.5068 50.2195 54.3785C50.166 54.2503 50.0877 54.1339 49.9889 54.0361C49.8902 53.9384 49.773 53.8611 49.6443 53.8089C49.5155 53.7567 49.3777 53.7305 49.2387 53.7319H38.6689C38.53 53.7305 38.3921 53.7567 38.2634 53.8089C38.1346 53.8611 38.0175 53.9384 37.9187 54.0361C37.82 54.1339 37.7416 54.2503 37.6881 54.3785C37.6346 54.5068 37.6071 54.6444 37.6071 54.7833C37.6071 54.9223 37.6346 55.0599 37.6881 55.1881C37.7416 55.3164 37.82 55.4327 37.9187 55.5305C38.0175 55.6283 38.1346 55.7055 38.2634 55.7578C38.3921 55.81 38.53 55.8362 38.6689 55.8348H44.5203C44.2794 57.7988 43.9021 59.7436 43.3911 61.6552C41.8833 61.0784 40.283 60.7811 38.6685 60.778C32.3608 60.778 26.8933 65.2626 25.5863 71.3472H20.3435L20.3429 48.7883ZM20.3429 46.6854V38.2178H25.5857C25.9632 39.9503 26.6805 41.5907 27.6961 43.0442C28.7117 44.4976 30.0055 45.7352 31.5025 46.6854H20.3429ZM73.8998 24.1263C76.0861 24.1254 78.2255 24.76 80.0578 25.9528C81.89 27.1455 83.3362 28.8451 84.2203 30.8446C85.1043 32.8442 85.3883 35.0576 85.0375 37.2155C84.6867 39.3735 83.7164 41.383 82.2445 42.9996C80.7726 44.6162 78.8627 45.7702 76.747 46.3213C74.6313 46.8723 72.401 46.7966 70.3275 46.1034C68.2541 45.4101 66.4268 44.1293 65.0679 42.4166C63.709 40.7039 62.8772 38.6332 62.6735 36.4564H73.8998C74.101 36.4563 74.2979 36.3986 74.4672 36.29C74.6365 36.1814 74.7712 36.0266 74.8552 35.8438C74.9392 35.6611 74.9691 35.4581 74.9412 35.2589C74.9134 35.0597 74.8291 34.8726 74.6982 34.7199L67.3985 26.2045C69.2968 24.8526 71.5693 24.1261 73.8998 24.1263ZM71.6141 34.3535H62.6735C62.9127 31.8029 64.0163 29.4105 65.8013 27.5729L71.6141 34.3535ZM62.854 24.1347L64.424 25.9663C62.1824 28.2144 60.8161 31.1883 60.5707 34.3535H59.3103L62.854 24.1347ZM45.7425 22.1926C49.2759 23.859 52.0392 27.6963 53.5769 33.192C53.8351 34.1247 54.3902 34.9479 55.1582 35.5368C55.9261 36.1258 56.8651 36.4485 57.8328 36.456H60.5707C60.7347 38.5194 61.3744 40.5168 62.4398 42.2915C63.5051 44.0662 64.9671 45.57 66.7111 46.685H45.8559C47.7982 45.4507 49.3889 43.7356 50.4735 41.7058C51.5582 39.6761 52.1002 37.4006 52.0469 35.0999C51.9937 32.7991 51.347 30.5511 50.1695 28.5737C48.9921 26.5964 47.3238 24.9567 45.3264 23.8136C45.4758 23.2796 45.6132 22.7383 45.7425 22.1926ZM38.6681 24.1263C40.0785 24.1279 41.4758 24.3959 42.7867 24.916C41.6095 28.5056 39.9613 31.8145 37.8155 34.7906C37.7348 34.9025 37.677 35.0293 37.6453 35.1637C37.6136 35.298 37.6087 35.4372 37.6308 35.5735C37.653 35.7097 37.7017 35.8403 37.7743 35.9577C37.8469 36.075 37.9419 36.177 38.0538 36.2577C38.1658 36.3384 38.2926 36.3962 38.4269 36.4279C38.5613 36.4596 38.7005 36.4645 38.8368 36.4424C38.973 36.4202 39.1035 36.3715 39.2209 36.2989C39.3383 36.2263 39.4403 36.1313 39.521 36.0194C41.7409 32.9182 43.4809 29.5002 44.6822 25.8806C46.7508 27.183 48.3399 29.1229 49.2096 31.4075C50.0793 33.6921 50.1825 36.1976 49.5037 38.546C48.8248 40.8944 47.4007 42.9583 45.4462 44.4266C43.4917 45.8948 41.1127 46.6876 38.6681 46.6854C33.5041 46.6854 29.0087 43.1216 27.7451 38.2178H28.0992C28.8452 38.2178 29.5606 37.9214 30.0881 37.3939C30.6156 36.8664 30.9119 36.151 30.9119 35.405C30.9119 34.659 30.6156 33.9436 30.0881 33.4161C29.5606 32.8886 28.8452 32.5923 28.0992 32.5923H27.7455C29.0099 27.6892 33.5046 24.1263 38.6681 24.1263ZM20.3429 85.4402V76.9742H25.5857C25.9633 78.7063 26.6805 80.3464 27.696 81.7996C28.7115 83.2527 30.005 84.4901 31.5017 85.4402H20.3429ZM73.8998 62.8812C76.0861 62.8803 78.2255 63.5149 80.0578 64.7077C81.89 65.9004 83.3362 67.6 84.2203 69.5995C85.1043 71.5991 85.3883 73.8125 85.0375 75.9704C84.6867 78.1284 83.7164 80.1379 82.2445 81.7545C80.7726 83.3711 78.8627 84.5251 76.747 85.0762C74.6313 85.6272 72.401 85.5515 70.3275 84.8583C68.2541 84.165 66.4268 82.8842 65.0679 81.1715C63.709 79.4588 62.8772 77.3881 62.6735 75.2113H73.8998C74.101 75.2112 74.2979 75.1535 74.4672 75.0449C74.6365 74.9363 74.7712 74.7815 74.8552 74.5987C74.9392 74.416 74.9691 74.213 74.9412 74.0138C74.9134 73.8146 74.8291 73.6275 74.6982 73.4748L67.3991 64.9586C69.2973 63.6071 71.5696 62.8809 73.8998 62.8812ZM71.6141 73.1084H62.6735C62.9127 70.5578 64.0163 68.1654 65.8013 66.3278L71.6141 73.1084ZM62.854 62.8896L64.424 64.7212C62.1824 66.9693 60.8161 69.9432 60.5707 73.1084H59.3103L62.854 62.8896ZM45.7423 60.948C49.2763 62.6158 52.0395 66.4529 53.5769 71.9469C53.8351 72.8796 54.3903 73.7027 55.1582 74.2917C55.9261 74.8806 56.8651 75.2033 57.8328 75.2109H60.5707C60.7347 77.2743 61.3744 79.2717 62.4398 81.0464C63.5051 82.8211 64.9671 84.3249 66.7111 85.4398H45.8559C47.7982 84.2055 49.3889 82.4904 50.4735 80.4607C51.5582 78.431 52.1002 76.1555 52.0469 73.8547C51.9937 71.5539 51.347 69.306 50.1695 67.3286C48.9921 65.3513 47.3238 63.7116 45.3264 62.5685C45.4755 62.0345 45.6142 61.4943 45.7423 60.948ZM38.6681 62.8812C40.0785 62.8828 41.4758 63.1508 42.7867 63.671C41.6095 67.2605 39.9613 70.5694 37.8155 73.5455C37.6525 73.7716 37.5861 74.0533 37.6308 74.3284C37.6754 74.6036 37.8276 74.8497 38.0537 75.0127C38.2799 75.1757 38.5615 75.2421 38.8367 75.1974C39.1118 75.1528 39.358 75.0006 39.521 74.7745C41.7408 71.6733 43.4808 68.2553 44.6822 64.6357C46.7508 65.9381 48.3399 67.8779 49.2096 70.1625C50.0793 72.4471 50.1826 74.9526 49.5037 77.301C48.8249 79.6494 47.4007 81.7133 45.4462 83.1815C43.4916 84.6497 41.1127 85.4424 38.6681 85.4402C33.5046 85.4402 29.0099 81.8773 27.7455 76.9742H28.0992C28.8454 76.9742 29.561 76.6778 30.0886 76.1502C30.6162 75.6225 30.9127 74.9069 30.9127 74.1607C30.9127 73.4146 30.6162 72.6989 30.0886 72.1713C29.561 71.6437 28.8454 71.3473 28.0992 71.3473H27.7455C29.0099 66.4443 33.5045 62.8812 38.6681 62.8812ZM28.0992 73.4502C28.1932 73.4491 28.2865 73.4666 28.3737 73.5018C28.4609 73.537 28.5403 73.5892 28.6072 73.6553C28.6741 73.7214 28.7272 73.8001 28.7634 73.8869C28.7997 73.9736 28.8183 74.0667 28.8183 74.1608C28.8183 74.2548 28.7997 74.3479 28.7634 74.4347C28.7272 74.5215 28.6741 74.6002 28.6072 74.6663C28.5403 74.7324 28.4609 74.7845 28.3737 74.8197C28.2865 74.8549 28.1932 74.8725 28.0992 74.8714H19.2914C19.0126 74.8715 18.7452 74.9823 18.5481 75.1794C18.3509 75.3766 18.2401 75.644 18.24 75.9228V85.4402H16.8197V34.6952H28.0992C28.1931 34.6941 28.2863 34.7116 28.3734 34.7468C28.4605 34.7819 28.5398 34.834 28.6066 34.9C28.6734 34.9661 28.7265 35.0447 28.7627 35.1314C28.7989 35.218 28.8175 35.311 28.8175 35.405C28.8175 35.4989 28.7989 35.5919 28.7627 35.6786C28.7265 35.7652 28.6734 35.8439 28.6066 35.9099C28.5398 35.9759 28.4605 36.028 28.3734 36.0632C28.2863 36.0983 28.1931 36.1159 28.0992 36.1147H19.2914C19.0126 36.1149 18.7452 36.2257 18.548 36.4229C18.3509 36.62 18.2401 36.8874 18.24 37.1662V72.3988C18.2401 72.6776 18.3509 72.945 18.5481 73.1421C18.7452 73.3393 19.0126 73.4501 19.2914 73.4502H28.0992Z" fill="#F7B512"/>
</svg>
