<svg width="72" height="72" viewBox="0 0 72 72" fill="none" xmlns="http://www.w3.org/2000/svg">
<path d="M47.0871 31.5362L45.2688 29.7179L29.7182 45.2685L31.5364 47.0868L47.0871 31.5362Z" fill="#F7B512"/>
<path d="M42.2819 26.7323L40.4636 24.914L24.9139 40.4637L26.7321 42.282L42.2819 26.7323Z" fill="#F7B512"/>
<path d="M36.252 61.6307C35.2646 61.6307 34.2759 61.2553 33.525 60.5031L11.4969 38.475C9.99388 36.9707 9.99388 34.524 11.4969 33.0197L12.6656 31.8523C14.1686 30.348 16.6153 30.3467 18.1209 31.8523L40.1477 53.8791C41.652 55.3834 41.652 57.8301 40.1477 59.3344L38.9816 60.5019C38.2282 61.2553 37.2407 61.6307 36.252 61.6307ZM15.3926 33.2949C15.0634 33.2949 14.733 33.4209 14.4823 33.6703L13.3149 34.8377C12.8134 35.3391 12.8134 36.1543 13.3149 36.657L35.3417 58.6851C35.8432 59.1879 36.6596 59.1853 37.161 58.6851L38.3272 57.5177C38.8286 57.015 38.8286 56.2011 38.3272 55.6984L16.3016 33.6703C16.0509 33.4196 15.7217 33.2949 15.3926 33.2949Z" fill="#F7B512"/>
<path d="M29.236 64.224C28.2061 64.224 27.2367 63.8216 26.5077 63.0939L20.1139 56.7C19.6111 56.1973 19.6111 55.3847 20.1139 54.882C20.6166 54.3793 21.4291 54.3793 21.9319 54.882L28.3257 61.2759C28.8117 61.7631 29.659 61.7631 30.1437 61.2759L31.3124 60.1084C31.5554 59.8654 31.6891 59.5427 31.6891 59.1994C31.6891 58.8548 31.5554 58.5334 31.3137 58.2917C30.811 57.789 30.811 56.9764 31.3124 56.4724C31.8126 55.9697 32.6277 55.9697 33.1304 56.4711C33.8594 57.1989 34.2606 58.1683 34.2606 59.1994C34.2606 60.2293 33.8594 61.1987 33.1304 61.9264L31.963 63.0939C31.2353 63.8229 30.2671 64.224 29.236 64.224Z" fill="#F7B512"/>
<path d="M16.2077 52.2604C15.8786 52.2604 15.5494 52.1344 15.2987 51.8837L8.90484 45.4898C7.40184 43.9856 7.40184 41.5401 8.90484 40.0358L10.0736 38.8684C11.5778 37.3641 14.0246 37.3641 15.5288 38.8684C16.0316 39.3711 16.0316 40.1837 15.5288 40.6864C15.0261 41.1891 14.2136 41.1891 13.7108 40.6864C13.2094 40.1824 12.393 40.1837 11.8916 40.6864L10.7241 41.8538C10.224 42.3553 10.224 43.1704 10.7241 43.6718L17.1167 50.0657C17.6194 50.5684 17.6194 51.381 17.1167 51.8837C16.866 52.1357 16.5368 52.2604 16.2077 52.2604Z" fill="#F7B512"/>
<path d="M20.7656 65.3593C19.7769 65.3593 18.7895 64.9839 18.0373 64.2317L7.76833 53.9614C7.04061 53.235 6.63818 52.2656 6.63818 51.2344C6.63818 50.2046 7.03933 49.2351 7.76833 48.5074L8.93575 47.34C10.3925 45.8833 12.933 45.8833 14.391 47.34C14.8925 47.8427 14.8925 48.6566 14.391 49.158C13.8883 49.6607 13.0745 49.6607 12.5718 49.158C12.087 48.6707 11.2398 48.6707 10.755 49.158L9.58633 50.3254C9.34333 50.5684 9.20961 50.8911 9.20961 51.2344C9.20961 51.579 9.34333 51.9004 9.58504 52.1421L19.8553 62.4137C20.3568 62.9164 21.1719 62.9164 21.6746 62.4137L22.842 61.2463C23.3422 60.7449 23.3422 59.9297 22.842 59.4283C22.3406 58.9256 22.3406 58.1117 22.842 57.6103C23.3448 57.1076 24.1586 57.1076 24.6613 57.6103C26.163 59.1146 26.163 61.56 24.6613 63.0643L23.4926 64.2317C22.7418 64.9839 21.753 65.3593 20.7656 65.3593Z" fill="#F7B512"/>
<path d="M56.6075 41.2766C55.6188 41.2766 54.6313 40.8999 53.8792 40.1477L31.8523 18.1196C30.348 16.6166 30.348 14.1686 31.8523 12.6643L33.0198 11.4969C34.5228 9.99386 36.9695 9.99257 38.475 11.4969L60.5032 33.525C62.0075 35.028 62.0075 37.476 60.5032 38.9803L59.3358 40.1464C58.5823 40.8999 57.5949 41.2766 56.6075 41.2766ZM35.7481 12.9394C35.4189 12.9394 35.0885 13.0641 34.8378 13.3149L33.6703 14.4823C33.1689 14.9837 33.1689 15.7989 33.6703 16.3016L55.6972 38.3297C56.2012 38.8324 57.0151 38.8311 57.5165 38.3297L58.6839 37.1623C59.1853 36.6609 59.1853 35.8457 58.6839 35.343L36.657 13.3149C36.4063 13.0654 36.0772 12.9394 35.7481 12.9394Z" fill="#F7B512"/>
<path d="M59.1996 34.2604C58.1684 34.2604 57.199 33.858 56.4713 33.1303C55.9699 32.6276 55.9699 31.8137 56.4726 31.3123C56.9753 30.8109 57.7892 30.8096 58.2919 31.3136C58.7766 31.797 59.6213 31.8009 60.1086 31.3136L61.276 30.1461C61.519 29.9031 61.6527 29.5804 61.6527 29.2371C61.6527 28.8939 61.519 28.5711 61.276 28.3281L54.8822 21.933C54.3794 21.4303 54.3794 20.6177 54.8822 20.115C55.3849 19.6123 56.1974 19.6123 56.7002 20.115L63.094 26.5089C63.8217 27.2366 64.2242 28.206 64.2242 29.2359C64.2242 30.2657 63.8217 31.2351 63.094 31.9641L61.9266 33.1316C61.1989 33.8593 60.2294 34.2604 59.1996 34.2604Z" fill="#F7B512"/>
<path d="M50.9747 17.4934C50.6456 17.4934 50.3164 17.3674 50.0657 17.1167L43.6719 10.7229C43.1692 10.2214 42.3566 10.2214 41.8539 10.7229L40.6864 11.8903C40.185 12.3917 40.185 13.2069 40.6864 13.7096C41.1892 14.2123 41.1892 15.0249 40.6864 15.5276C40.1837 16.0303 39.3712 16.0303 38.8684 15.5276C37.3642 14.0246 37.3642 11.5766 38.8684 10.0723L40.0359 8.90486C41.5414 7.40186 43.9869 7.40315 45.4899 8.90486L51.8837 15.2987C52.3864 15.8014 52.3864 16.614 51.8837 17.1167C51.633 17.3687 51.3039 17.4934 50.9747 17.4934Z" fill="#F7B512"/>
<path d="M60.3374 25.7889C59.3487 25.7889 58.3625 25.4134 57.6104 24.6626C57.1077 24.1599 57.1077 23.346 57.6104 22.8433C58.1131 22.3406 58.9257 22.3419 59.4284 22.8433C59.9285 23.3447 60.7462 23.3447 61.2464 22.8433L62.4138 21.6759C62.9152 21.1744 62.9152 20.3593 62.4138 19.8566L52.1435 9.58628C51.6575 9.10157 50.8141 9.10028 50.3255 9.58628L49.1581 10.7537C48.9151 10.9967 48.7814 11.3194 48.7814 11.6627C48.7814 12.006 48.9151 12.3287 49.1581 12.5717C49.6608 13.0744 49.6608 13.8883 49.1581 14.391C48.6554 14.8937 47.8428 14.8924 47.3401 14.391C46.6124 13.662 46.21 12.6939 46.21 11.6627C46.21 10.6316 46.6124 9.66343 47.3401 8.93443L48.5075 7.767C49.9655 6.309 52.5074 6.31028 53.9628 7.767L64.2318 18.036C65.7361 19.539 65.7361 21.987 64.2318 23.4913L63.0644 24.6587C62.3122 25.4121 61.3235 25.7889 60.3374 25.7889Z" fill="#F7B512"/>
<path d="M14.6791 65.3001C13.9925 65.3001 13.3471 65.0327 12.8611 64.5467L7.45211 59.139C6.45053 58.1361 6.45053 56.5058 7.45211 55.503L9.29068 53.6657L11.1087 55.4837L9.27011 57.321L14.6791 62.7287L16.5164 60.8914L18.3344 62.7094L16.4971 64.5467C16.0124 65.0327 15.367 65.3001 14.6791 65.3001Z" fill="#F7B512"/>
<path d="M62.7095 18.3343L60.8915 16.5163L62.7288 14.679L57.3211 9.27L55.4838 11.1086L53.6658 9.29057L55.5031 7.45328C56.5046 6.45171 58.1375 6.45171 59.1391 7.45328L64.5468 12.8623C65.0328 13.3483 65.3002 13.9937 65.3002 14.6803C65.3002 15.3681 65.0328 16.0136 64.5468 16.4996L62.7095 18.3343Z" fill="#F7B512"/>
</svg>
