<svg width="88" height="89" viewBox="0 0 88 89" fill="none" xmlns="http://www.w3.org/2000/svg">
<path d="M15.5 1L1 15.5L1.5 20L3.5 21.5H8L18 11.5L19 10.5L20 9.5L21 8.5L21.5 3.5V2L20 1H15.5Z" fill="#F7B512"/>
<path d="M3.5 30.5C4 30.1667 9.8 24.5 29 4.5H29.5H35L39.5 8.5V13.5L24.5 28.5L14.5 39H7.5L3.5 30.5Z" fill="#F7B512"/>
<path d="M31 26.5L27.5 30L26 35L54.5 62.5H59.5L62.5 59L63.5 54.5L35 26.5H31Z" fill="#F7B512"/>
<path d="M50.5 75.5L75.5 51H81L85 55V59.5L60 84.5L54 84L50.5 81V75.5Z" fill="#F7B512"/>
<path d="M69 87L68 82C68.1663 81.8337 71.1848 78.9147 81.9189 68.5781L82.5 68H87V69H87.5V74.5L75.5 87L69.5 87.5L69 87Z" fill="#F7B512"/>
<path d="M82 68.5C81.9729 68.5261 81.9459 68.5521 81.9189 68.5781M81.9189 68.5781C71.1848 78.9147 68.1662 81.8338 68 82L69 87L69.5 87.5L75.5 87L87.5 74.5V69H87V67.5V68H82.5L81.9189 68.5781ZM1 15.5C11.8 4.7 15.1667 1.33333 15.5 1H20L21.5 2V3.5L21 8.5L20 9.5L19 10.5L18 11.5L8 21.5H3.5L1.5 20L1 15.5ZM29 4.5C9.8 24.5 4 30.1667 3.5 30.5L7.5 39H14.5L24.5 28.5L39.5 13.5V8.5L35 4.5H29.5H29ZM27.5 30L31 26.5H35L63.5 54.5L62.5 59L59.5 62.5H54.5L26 35L27.5 30ZM75.5 51L50.5 75.5V81L54 84L60 84.5L85 59.5V55L81 51H75.5Z" stroke="#FAA831"/>
</svg>
