<svg width="102" height="102" viewBox="0 0 102 102" fill="none" xmlns="http://www.w3.org/2000/svg">
<path d="M66.7072 44.6762L64.1313 42.1003L42.1013 64.1304L44.6771 66.7063L66.7072 44.6762Z" fill="#F7B512"/>
<path d="M59.8991 37.8708L57.3232 35.2949L35.2945 57.3237L37.8703 59.8996L59.8991 37.8708Z" fill="#F7B512"/>
<path d="M51.3571 87.3102C49.9583 87.3102 48.5576 86.7784 47.4939 85.7128L16.2874 54.5063C14.1581 52.3752 14.1581 48.9091 16.2874 46.778L17.943 45.1241C20.0723 42.9931 23.5385 42.9912 25.6714 45.1241L56.8761 76.3288C59.0071 78.4599 59.0071 81.9261 56.8761 84.0572L55.224 85.711C54.1567 86.7784 52.7578 87.3102 51.3571 87.3102ZM21.8063 47.1678C21.34 47.1678 20.8719 47.3463 20.5167 47.6996L18.8629 49.3535C18.1525 50.0638 18.1525 51.2186 18.8629 51.9308L50.0676 83.1373C50.7779 83.8495 51.9345 83.8459 52.6449 83.1373L54.2969 81.4835C55.0073 80.7713 55.0073 79.6183 54.2969 78.9062L23.094 47.6996C22.7389 47.3445 22.2726 47.1678 21.8063 47.1678Z" fill="#F7B512"/>
<path d="M41.4176 90.984C39.9587 90.984 38.5853 90.4139 37.5525 89.3829L28.4946 80.325C27.7824 79.6128 27.7824 78.4616 28.4946 77.7495C29.2068 77.0373 30.3579 77.0373 31.0701 77.7495L40.128 86.8074C40.8165 87.4978 42.0169 87.4978 42.7035 86.8074L44.3592 85.1536C44.7035 84.8093 44.8929 84.3521 44.8929 83.8658C44.8929 83.3777 44.7035 82.9223 44.361 82.5799C43.6489 81.8677 43.6489 80.7166 44.3592 80.0026C45.0678 79.2904 46.2225 79.2904 46.9347 80.0008C47.9675 81.0317 48.5358 82.405 48.5358 83.8658C48.5358 85.3248 47.9675 86.6981 46.9347 87.7291L45.2809 89.3829C44.2499 90.4157 42.8784 90.984 41.4176 90.984Z" fill="#F7B512"/>
<path d="M22.9612 74.0356C22.4949 74.0356 22.0286 73.8571 21.6735 73.502L12.6155 64.444C10.4862 62.3129 10.4862 58.8486 12.6155 56.7175L14.2712 55.0636C16.4022 52.9326 19.8684 52.9326 21.9995 55.0636C22.7117 55.7758 22.7117 56.927 21.9995 57.6391C21.2873 58.3513 20.1362 58.3513 19.424 57.6391C18.7136 56.9251 17.557 56.927 16.8467 57.6391L15.1928 59.293C14.4843 60.0034 14.4843 61.1581 15.1928 61.8685L24.249 70.9265C24.9611 71.6386 24.9611 72.7898 24.249 73.502C23.8938 73.859 23.4275 74.0356 22.9612 74.0356Z" fill="#F7B512"/>
<path d="M29.4182 92.5924C28.0175 92.5924 26.6186 92.0606 25.5531 90.995L11.0053 76.4455C9.9744 75.4163 9.4043 74.043 9.4043 72.5822C9.4043 71.1232 9.97258 69.7499 11.0053 68.719L12.6592 67.0651C14.7229 65.0014 18.322 65.0014 20.3875 67.0651C21.0979 67.7773 21.0979 68.9302 20.3875 69.6406C19.6753 70.3528 18.5224 70.3528 17.8102 69.6406C17.1235 68.9503 15.9232 68.9503 15.2365 69.6406L13.5808 71.2944C13.2366 71.6387 13.0472 72.0959 13.0472 72.5822C13.0472 73.0703 13.2366 73.5257 13.579 73.8681L28.1286 88.4195C28.8389 89.1317 29.9937 89.1317 30.7059 88.4195L32.3598 86.7657C33.0683 86.0553 33.0683 84.9005 32.3598 84.1902C31.6494 83.478 31.6494 82.325 32.3598 81.6147C33.0719 80.9025 34.2249 80.9025 34.9371 81.6147C37.0645 83.7457 37.0645 87.2101 34.9371 89.3412L33.2814 90.995C32.2177 92.0606 30.817 92.5924 29.4182 92.5924Z" fill="#F7B512"/>
<path d="M80.194 58.4752C78.7933 58.4752 77.3944 57.9416 76.3289 56.876L45.1242 25.6695C42.9931 23.5402 42.9931 20.0722 45.1242 17.9412L46.778 16.2873C48.9073 14.1581 52.3735 14.1562 54.5064 16.2873L85.7129 47.4939C87.844 49.6231 87.844 53.0911 85.7129 55.2222L84.059 56.8742C82.9917 57.9416 81.5928 58.4752 80.194 58.4752ZM50.6431 18.331C50.1768 18.331 49.7087 18.5076 49.3535 18.8628L47.6997 20.5167C46.9893 21.227 46.9893 22.3818 47.6997 23.094L78.9044 54.3005C79.6184 55.0127 80.7714 55.0109 81.4817 54.3005L83.1356 52.6467C83.8459 51.9363 83.8459 50.7815 83.1356 50.0694L51.9309 18.8628C51.5757 18.5095 51.1094 18.331 50.6431 18.331Z" fill="#F7B512"/>
<path d="M83.8663 48.5356C82.4055 48.5356 81.0322 47.9655 80.0012 46.9346C79.2909 46.2224 79.2909 45.0695 80.0031 44.3591C80.7152 43.6488 81.8682 43.6469 82.5804 44.3609C83.2671 45.0458 84.4637 45.0513 85.1541 44.3609L86.8079 42.7071C87.1522 42.3628 87.3416 41.9056 87.3416 41.4193C87.3416 40.933 87.1522 40.4758 86.8079 40.1316L77.75 31.0718C77.0378 30.3596 77.0378 29.2085 77.75 28.4963C78.4621 27.7841 79.6133 27.7841 80.3254 28.4963L89.3834 37.5543C90.4143 38.5852 90.9845 39.9585 90.9845 41.4175C90.9845 42.8765 90.4143 44.2498 89.3834 45.2826L87.7296 46.9364C86.6986 47.9674 85.3253 48.5356 83.8663 48.5356Z" fill="#F7B512"/>
<path d="M72.2147 24.7824C71.7484 24.7824 71.2821 24.6039 70.9269 24.2488L61.869 15.1908C61.1568 14.4804 60.0057 14.4804 59.2935 15.1908L57.6396 16.8447C56.9293 17.555 56.9293 18.7098 57.6396 19.422C58.3518 20.1342 58.3518 21.2853 57.6396 21.9975C56.9274 22.7097 55.7763 22.7097 55.0641 21.9975C52.9331 19.8682 52.9331 16.4002 55.0641 14.2692L56.718 12.6153C58.8509 10.486 62.3152 10.4879 64.4445 12.6153L73.5024 21.6733C74.2146 22.3854 74.2146 23.5366 73.5024 24.2488C73.1473 24.6058 72.681 24.7824 72.2147 24.7824Z" fill="#F7B512"/>
<path d="M85.4782 36.5342C84.0775 36.5342 82.6805 36.0024 81.615 34.9387C80.9028 34.2265 80.9028 33.0735 81.615 32.3613C82.3271 31.6492 83.4783 31.651 84.1905 32.3613C84.899 33.0717 86.0574 33.0717 86.766 32.3613L88.4198 30.7075C89.1302 29.9971 89.1302 28.8423 88.4198 28.1302L73.8702 13.5806C73.1817 12.8939 71.9869 12.8921 71.2947 13.5806L69.6409 15.2345C69.2966 15.5787 69.1072 16.0359 69.1072 16.5222C69.1072 17.0085 69.2966 17.4657 69.6409 17.81C70.3531 18.5221 70.3531 19.6751 69.6409 20.3873C68.9287 21.0995 67.7776 21.0976 67.0654 20.3873C66.0345 19.3545 65.4644 17.983 65.4644 16.5222C65.4644 15.0614 66.0345 13.6899 67.0654 12.6571L68.7192 11.0033C70.7847 8.93778 74.3857 8.9396 76.4476 11.0033L90.9953 25.551C93.1264 27.6803 93.1264 31.1483 90.9953 33.2793L89.3415 34.9332C88.2759 36.0006 86.8752 36.5342 85.4782 36.5342Z" fill="#F7B512"/>
<path d="M20.7956 92.5085C19.8229 92.5085 18.9086 92.1296 18.2201 91.4411L10.5573 83.7802C9.13844 82.3595 9.13844 80.0499 10.5573 78.6292L13.162 76.0264L15.7375 78.6019L13.1328 81.2047L20.7956 88.8656L23.3984 86.2628L25.9739 88.8383L23.3711 91.4411C22.6844 92.1296 21.77 92.5085 20.7956 92.5085Z" fill="#F7B512"/>
<path d="M88.8388 25.9735L86.2633 23.398L88.8661 20.7952L81.2052 13.1325L78.6024 15.7371L76.0269 13.1616L78.6297 10.5588C80.0486 9.13991 82.3618 9.13991 83.7807 10.5588L91.4416 18.2215C92.1301 18.91 92.509 19.8244 92.509 20.797C92.509 21.7715 92.1301 22.6859 91.4416 23.3744L88.8388 25.9735Z" fill="#F7B512"/>
</svg>
