<svg width="72" height="72" viewBox="0 0 72 72" fill="none" xmlns="http://www.w3.org/2000/svg">
<path d="M70.28 72H70.2853C70.9584 72 71.5716 71.6223 71.8486 71.0364C71.9845 70.7483 72.0302 70.4289 71.9804 70.1166C71.9306 69.8043 71.7874 69.5124 71.5679 69.276L66.9665 64.329C65.7551 62.9702 63.7311 62.5506 62.0378 63.3094C61.4376 63.5791 60.9135 63.9815 60.5088 64.4833L60.143 64.9378L57.8472 65.3293L50.1754 63.2657C47.4391 62.5304 44.5471 62.5036 41.7964 63.1883L41.1695 63.3443L34.0721 56.2201C33.8076 53.959 32.7325 51.8546 31.0288 50.2634L29.9263 49.2323C29.1761 45.5219 30.2383 41.6194 32.8026 38.7287L33.5102 37.9309C34.6221 36.77 35.3255 35.2819 35.492 33.7057L36.6757 33.8757L36.5737 34.2501C36.2519 35.4375 36.2118 36.6784 36.4563 37.8825C37.0349 40.7116 39.1621 43.0687 42.0077 44.0338L42.6451 44.2497C42.8605 44.3226 43.0928 44.3377 43.3166 44.2933C43.5404 44.2489 43.7471 44.1467 43.9142 43.9978C44.0813 43.8488 44.2023 43.6589 44.2639 43.4487C44.3256 43.2386 44.3256 43.0163 44.2639 42.8062L43.5353 40.3225C43.3336 39.6378 43.2918 38.9192 43.4128 38.2174C43.5338 37.5155 43.8146 36.8476 44.2355 36.2607C45.3581 34.6915 45.4515 32.6866 44.4793 31.0284L44.2043 30.5594C44.4391 29.9715 44.5596 29.3476 44.5599 28.7184C44.5599 26.7576 43.3681 24.9326 41.5238 24.0692L40.73 23.6974L39.3628 22.9263L37.7354 21.3021L39.0212 19.757C39.7185 18.9163 40.2192 17.9428 40.4895 16.902L43.0404 9.32497L45.5266 7.60642C45.762 7.44376 45.9305 7.20777 46.0031 6.93918L47.1925 2.53547C47.2348 2.37943 47.2434 2.21684 47.2178 2.05753C47.1923 1.89822 47.1331 1.74553 47.0439 1.6087C46.9547 1.47187 46.8374 1.35375 46.6989 1.26151C46.5605 1.16927 46.4039 1.10482 46.2386 1.07208L40.9664 0.0252257C40.6923 -0.0295498 40.4068 0.00545916 40.156 0.124602C39.9053 0.243745 39.7039 0.44007 39.5844 0.68189L37.0258 5.84618L30.2938 17.2451C29.7768 18.1199 29.415 19.0702 29.2231 20.0577L27.6947 27.9075L22.1604 29.4676C19.6125 30.1861 17.9301 32.5413 18.1603 35.0681L18.3366 37.0052L18.1766 37.7512C17.4254 41.2526 17.4143 44.9193 18.1325 48.4316L9.13061 45.6024C7.85554 45.203 6.4748 45.2379 5.22369 45.7013L5.15569 45.7264C2.39128 46.7538 0.837994 49.505 1.46274 52.2682C2.40033 56.4157 3.83478 62.7969 4.35207 65.1L1.45011 66.6222C0.869064 66.9248 0.42003 67.4152 0.1836 68.0054C-0.0528292 68.5955 -0.0611721 69.2468 0.160068 69.8423L0.170673 69.8712C0.569911 70.9545 1.6413 71.6802 2.83886 71.6802H2.84978C4.06839 71.6761 6.0454 71.6749 7.55799 71.6746C9.30278 71.6741 10.9169 70.8431 11.8766 69.4505L11.9 69.4167C12.5742 68.4383 12.8728 67.2615 12.7406 66.1033C12.5046 64.0352 12.0549 60.0837 11.7607 57.5002C13.9301 58.782 16.1719 59.9485 18.4759 60.9944L19.6967 61.5482L35.2792 70.4547C36.8011 71.3242 38.5381 71.7912 40.3117 71.8078L70.28 72ZM61.0573 67.2015C61.3633 67.1494 61.6379 66.9901 61.8274 66.7549L62.4876 65.9343C62.6492 65.7339 62.8585 65.5732 63.0981 65.4655C63.4287 65.3179 63.801 65.2783 64.1575 65.3529C64.514 65.4274 64.8349 65.6119 65.0706 65.8779L65.0912 65.9004L68.5446 69.6132L58.8768 69.5858L58.9818 67.5555L61.0573 67.2015ZM20.4716 38.9943L27.6623 43.2488C27.2018 45.0203 27.0761 46.8711 27.3133 48.7014L20.8096 48.9873C19.9918 45.7324 19.8779 42.2959 20.4716 38.9943ZM42.1751 34.9173C41.5584 35.7773 41.1436 36.7542 40.959 37.7813C40.7743 38.8084 40.8242 39.8615 41.1052 40.8685C39.9827 40.0179 39.1864 38.8004 38.9052 37.4259C38.7319 36.572 38.7603 35.6918 38.9885 34.8497L39.1875 34.1195C40.3769 34.0503 41.5093 33.6085 42.409 32.8626L42.5447 32.7505C42.7636 33.4801 42.6382 34.2699 42.1751 34.9173ZM39.609 28.8154L40.7411 26.3816C41.5545 26.8937 42.0645 27.7765 42.0645 28.7184C42.0646 29.1189 41.9746 29.5148 41.8004 29.8792C41.6263 30.2436 41.3721 30.5681 41.0552 30.8305L40.7737 31.0637C40.454 31.3289 40.0777 31.5248 39.6709 31.6376C39.2642 31.7504 38.8366 31.7776 38.4177 31.7172L35.6971 31.3264L35.8044 30.0573L38.7143 29.4998C38.9099 29.4623 39.0932 29.3806 39.2489 29.2615C39.4046 29.1425 39.5281 28.9895 39.609 28.8154ZM38.5456 25.2321L37.5904 27.2856L36.0132 27.5879L36.3686 23.3842L37.6785 24.6913C37.7573 24.77 37.8471 24.838 37.9453 24.8935L38.5456 25.2321ZM31.6764 20.4932C31.8182 19.7635 32.0855 19.0612 32.4675 18.4148L39.2213 6.97878C39.236 6.95407 39.2496 6.92876 39.2623 6.90315L41.4201 2.54827L44.4498 3.1497L43.6992 5.92895L41.2461 7.62458C41.031 7.77321 40.8711 7.98349 40.7899 8.22482C40.7899 8.22482 38.0821 16.2718 38.0748 16.301C37.8928 17.0211 37.5491 17.6949 37.0673 18.2756L34.2199 21.6977C34.066 21.8826 33.9732 22.1071 33.9533 22.3426L33.0208 33.3711C32.931 34.4341 32.4767 35.4424 31.7484 36.2381C31.7266 36.2592 31.3024 36.678 31.1143 36.8236C30.2469 37.4948 29.0144 37.5877 28.0473 37.0551C27.6342 36.8267 27.2912 36.4987 27.0526 36.1039C26.814 35.7092 26.6882 35.2615 26.6879 34.8058L26.6884 34.2374C26.6897 33.661 26.8912 33.1012 27.2613 32.6457C27.2613 32.6457 29.7764 29.5593 29.782 29.5522C29.8009 29.5276 31.6764 20.4932 31.6764 20.4932ZM22.8674 31.7519L25.5513 30.7418C24.843 31.6105 24.1937 33.1356 24.193 34.2358L24.1927 34.8039C24.1911 36.5784 25.1903 38.2316 26.8003 39.1184C27.4923 39.4985 28.2669 39.7208 29.0637 39.7679C28.8515 40.147 28.6566 40.5346 28.4793 40.9297L20.7842 36.3767L20.6461 34.8616C20.5183 33.4587 21.4524 32.1509 22.8674 31.7519ZM9.79122 68.1425C9.54826 68.4962 9.21681 68.7866 8.82683 68.9873C8.43684 69.1881 8.00061 69.293 7.55752 69.2925C6.04228 69.2928 4.06153 69.294 2.84042 69.2982H2.83902C2.69664 69.2982 2.57328 69.2129 2.52478 69.0814L2.51417 69.0527C2.49058 68.9893 2.49145 68.9199 2.51663 68.857C2.54181 68.7941 2.58966 68.7419 2.65156 68.7097L6.11059 66.8956L10.272 66.7358C10.2541 67.2248 10.0958 67.6996 9.81446 68.1086L9.79122 68.1425ZM36.5611 68.411C36.5611 68.411 20.8579 59.4375 20.8219 59.4213L19.547 58.8429C16.7172 57.5583 13.9856 56.0853 11.3724 54.4349L10.9264 54.1532C10.7288 54.0284 10.4981 53.9599 10.2612 53.9557C10.0244 53.9514 9.79111 54.0117 9.5888 54.1294C9.38649 54.2471 9.22346 54.4173 9.11879 54.6202C9.01412 54.8231 8.97213 55.0503 8.99774 55.2751C8.99774 55.2751 9.61172 60.6725 10.0322 64.3613L6.76637 64.4867C6.22849 62.0932 4.82476 55.8478 3.90168 51.7656C3.53722 50.1528 4.44533 48.5463 6.05975 47.9464L6.12775 47.9211C6.83942 47.6571 7.62499 47.6372 8.35038 47.8645C8.35038 47.8645 19.6303 51.3957 19.6523 51.3988C19.6675 51.4011 28.2964 51.0427 28.2964 51.0427L29.2829 51.9651C30.6622 53.2534 31.4956 54.9818 31.6238 56.8198C31.6432 57.0972 31.7637 57.3593 31.9644 57.5608L39.8684 65.4948C40.022 65.6491 40.2162 65.7612 40.4306 65.8195C40.645 65.8778 40.8719 65.8802 41.0876 65.8264L42.4265 65.4929C44.7482 64.9152 47.1891 64.9378 49.4986 65.5584L56.4895 67.4388L56.3794 69.5712L40.3356 69.4258C39.0054 69.4134 37.7026 69.0631 36.5611 68.411Z" fill="#F7B512"/>
</svg>
