<svg width="102" height="102" viewBox="0 0 102 102" fill="none" xmlns="http://www.w3.org/2000/svg">
<path d="M99.5634 102H99.5709C100.524 102 101.393 101.465 101.786 100.635C101.978 100.227 102.043 99.7743 101.972 99.3319C101.902 98.8895 101.699 98.4759 101.388 98.141L94.8692 91.1328C93.153 89.2077 90.2858 88.6134 87.8869 89.6884C87.0366 90.0704 86.2941 90.6405 85.7209 91.3513L85.2026 91.9952L81.9502 92.5498L71.0819 89.6264C67.2054 88.5847 63.1084 88.5468 59.2116 89.5167L58.3234 89.7377L48.2688 79.6452C47.8941 76.4418 46.371 73.4606 43.9575 71.2065L42.3955 69.7458C41.3328 64.4893 42.8376 58.9608 46.4704 54.8656L47.4728 53.7354C49.048 52.0908 50.0444 49.9827 50.2804 47.7497L51.9573 47.9905L51.8128 48.5209C51.3569 50.2031 51.3001 51.9611 51.6464 53.6669C52.4661 57.6748 55.4796 61.0139 59.511 62.3812L60.4139 62.687C60.7191 62.7904 61.0482 62.8118 61.3652 62.7488C61.6823 62.6859 61.9751 62.5411 62.2119 62.3302C62.4485 62.1191 62.6199 61.8501 62.7072 61.5524C62.7946 61.2547 62.7946 60.9398 62.7072 60.6421L61.675 57.1235C61.3893 56.1535 61.3301 55.1355 61.5015 54.1412C61.6729 53.147 62.0708 52.2008 62.667 51.3693C64.2572 49.1463 64.3896 46.3061 63.0123 43.9569L62.6228 43.2925C62.9554 42.4596 63.1261 41.5758 63.1265 40.6844C63.1265 37.9066 61.4381 35.3212 58.8254 34.098L57.7009 33.5714L55.7639 32.4789L53.4585 30.178L55.2801 27.9891C56.2679 26.7981 56.9772 25.419 57.3602 23.9445L60.974 13.2104L64.4961 10.7758C64.8295 10.5453 65.0682 10.211 65.171 9.83051L66.8561 3.59191C66.9159 3.37086 66.9281 3.14052 66.8919 2.91483C66.8558 2.68915 66.772 2.47283 66.6456 2.27899C66.5192 2.08515 66.3529 1.91781 66.1568 1.78714C65.9607 1.65646 65.7388 1.56516 65.5046 1.51878L58.0358 0.0357364C57.6474 -0.0418622 57.2429 0.00773381 56.8877 0.176519C56.5325 0.345305 56.2472 0.623432 56.0779 0.966011L52.4533 8.28209L42.9163 24.4306C42.1838 25.6698 41.6712 27.0161 41.3993 28.4151L39.2342 39.5356L31.394 41.7458C27.7844 42.7636 25.4009 46.1002 25.727 49.6798L25.9769 52.424L25.7502 53.4809C24.686 58.4412 24.6703 63.6356 25.6877 68.6114L12.935 64.6034C11.1287 64.0375 9.17264 64.087 7.40023 64.7435L7.3039 64.7791C3.38765 66.2345 1.18716 70.1321 2.07221 74.0466C3.40046 79.9223 5.4326 88.9622 6.16543 92.2251L2.05432 94.3815C1.23117 94.8102 0.595042 95.5049 0.2601 96.3409C-0.0748413 97.177 -0.0866605 98.0996 0.226764 98.9432L0.241786 98.9841C0.807374 100.519 2.32518 101.547 4.02172 101.547H4.03719C5.76356 101.541 8.56432 101.539 10.7071 101.539C13.1789 101.538 15.4656 100.361 16.8252 98.3882L16.8584 98.3403C17.8134 96.9542 18.2365 95.2871 18.0492 93.6463C17.7149 90.7165 17.0777 85.1186 16.6611 81.4587C19.7343 83.2745 22.9102 84.927 26.1742 86.4087L27.9037 87.1932L49.9788 99.8109C52.1349 101.043 54.5957 101.704 57.1083 101.728L99.5634 102ZM86.4979 95.2021C86.9314 95.1283 87.3204 94.9026 87.5889 94.5694L88.5241 93.4069C88.753 93.1231 89.0495 92.8954 89.389 92.7428C89.8573 92.5337 90.3848 92.4776 90.8898 92.5832C91.3949 92.6888 91.8495 92.9502 92.1834 93.327L92.2125 93.3588L97.1049 98.6187L83.4088 98.5799L83.5575 95.7036L86.4979 95.2021ZM29.0015 55.2419L39.1882 61.2691C38.5358 63.7788 38.3578 66.4007 38.6938 68.9937L29.4802 69.3987C28.3217 64.7876 28.1604 59.9192 29.0015 55.2419ZM59.748 49.4662C58.8744 50.6845 58.2868 52.0685 58.0252 53.5236C57.7636 54.9786 57.8343 56.4705 58.2324 57.8971C56.6421 56.692 55.5141 54.9673 55.1157 53.02C54.8701 51.8103 54.9104 50.5634 55.2337 49.3704L55.5156 48.336C57.2007 48.2379 58.8048 47.612 60.0794 46.5554L60.2716 46.3965C60.5818 47.4302 60.4042 48.549 59.748 49.4662ZM56.1128 40.8219L57.7165 37.3739C58.8689 38.0994 59.5914 39.35 59.5914 40.6844C59.5915 41.2518 59.464 41.8126 59.2173 42.3289C58.9706 42.8451 58.6105 43.3047 58.1615 43.6766L57.7627 44.0069C57.3098 44.3827 56.7768 44.6601 56.2005 44.8199C55.6242 44.9798 55.0185 45.0183 54.4251 44.9327L50.5709 44.3791L50.7229 42.5812L54.8453 41.7914C55.1224 41.7383 55.3821 41.6225 55.6026 41.4538C55.8232 41.2852 55.9981 41.0684 56.1128 40.8219ZM54.6063 35.7455L53.253 38.6547L51.0187 39.0828L51.5223 33.1276L53.3779 34.9793C53.4896 35.0908 53.6168 35.1872 53.7559 35.2657L54.6063 35.7455ZM44.8748 29.032C45.0757 27.9982 45.4544 27.0033 45.9956 26.0876L55.5636 9.88661C55.5843 9.8516 55.6035 9.81574 55.6217 9.77947L58.6785 3.61005L62.9705 4.46208L61.9072 8.39935L58.4319 10.8015C58.1272 11.012 57.9008 11.3099 57.7857 11.6518C57.7857 11.6518 53.9496 23.0517 53.9393 23.0931C53.6815 24.1133 53.1945 25.0677 52.512 25.8904L48.4782 30.7384C48.2601 31.0004 48.1286 31.3184 48.1004 31.652L46.7795 47.2758C46.6522 48.7816 46.0087 50.21 44.9769 51.3373C44.946 51.3672 44.345 51.9605 44.0786 52.1667C42.8498 53.1177 41.1037 53.2493 39.7337 52.4947C39.1484 52.1711 38.6625 51.7065 38.3245 51.1473C37.9865 50.588 37.8083 49.9538 37.8079 49.3082L37.8085 48.503C37.8104 47.6864 38.0958 46.8933 38.6202 46.2481C38.6202 46.2481 42.1832 41.8757 42.1912 41.8656C42.2179 41.8308 44.8748 29.032 44.8748 29.032ZM32.3955 44.9818L36.1977 43.5509C35.1942 44.7815 34.2745 46.9421 34.2734 48.5007L34.2729 49.3055C34.2707 51.8194 35.6862 54.1614 37.9671 55.4177C38.9474 55.9562 40.0448 56.2711 41.1735 56.3379C40.873 56.8749 40.5968 57.4241 40.3457 57.9838L29.4442 51.5336L29.2487 49.3873C29.0675 47.3998 30.3909 45.5471 32.3955 44.9818ZM13.8709 96.5352C13.5267 97.0363 13.0572 97.4476 12.5047 97.7321C11.9522 98.0165 11.3342 98.1651 10.7065 98.1644C8.5599 98.1648 5.75384 98.1665 4.02393 98.1724H4.02194C3.82023 98.1724 3.64548 98.0516 3.57677 97.8653L3.56174 97.8246C3.52832 97.7348 3.52955 97.6365 3.56523 97.5474C3.6009 97.4584 3.66868 97.3844 3.75638 97.3387L8.65667 94.7687L14.552 94.5424C14.5267 95.2351 14.3024 95.9078 13.9038 96.4871L13.8709 96.5352ZM51.7949 96.9157C51.7949 96.9157 29.5487 84.2031 29.4977 84.1801L27.6916 83.3608C23.6828 81.5409 19.813 79.4542 16.1109 77.1161L15.4791 76.717C15.1992 76.5402 14.8723 76.4431 14.5367 76.4372C14.2012 76.4312 13.8707 76.5166 13.5841 76.6833C13.2975 76.85 13.0666 77.0912 12.9183 77.3786C12.77 77.6661 12.7105 77.9879 12.7468 78.3064C12.7468 78.3064 13.6166 85.9527 14.2122 91.1786L9.58569 91.3561C8.8237 87.9653 6.83508 79.1177 5.52738 73.3346C5.01106 71.0498 6.29755 68.774 8.58465 67.924L8.68097 67.8882C9.68918 67.5143 10.8021 67.486 11.8297 67.808C11.8297 67.808 27.8095 72.8106 27.8407 72.815C27.8623 72.8182 40.0866 72.3105 40.0866 72.3105L41.4842 73.6172C43.4381 75.4423 44.6188 77.8908 44.8004 80.4947C44.8279 80.8876 44.9986 81.2591 45.2829 81.5445L56.4802 92.7844C56.6979 93.0028 56.9729 93.1617 57.2767 93.2443C57.5804 93.3269 57.9018 93.3302 58.2075 93.254L60.1042 92.7816C63.3932 91.9632 66.8512 91.9953 70.123 92.8744L80.0268 95.5383L79.8708 98.5592L57.1421 98.3531C55.2577 98.3356 53.4121 97.8393 51.7949 96.9157Z" fill="#F7B512"/>
</svg>
