<svg width="120" height="127" viewBox="0 0 120 127" fill="none" xmlns="http://www.w3.org/2000/svg">
<path d="M117.133 126.233H117.142C118.264 126.233 119.286 125.574 119.748 124.551C119.974 124.048 120.05 123.49 119.967 122.945C119.884 122.4 119.646 121.89 119.28 121.477L111.611 112.84C109.592 110.467 106.219 109.735 103.396 111.06C102.396 111.531 101.522 112.233 100.848 113.109L100.238 113.903L96.412 114.586L83.6257 110.983C79.0652 109.7 74.2452 109.653 69.6607 110.848L68.6158 111.121L56.7868 98.6821C56.346 94.7342 54.5542 91.06 51.7147 88.2819L49.8771 86.4817C48.6269 80.0034 50.3972 73.1898 54.6711 68.1427L55.8503 66.7498C57.7036 64.7229 58.8758 62.1248 59.1534 59.3727L61.1262 59.6695L60.9562 60.3232C60.4199 62.3964 60.353 64.5631 60.7605 66.6653C61.7248 71.6048 65.2701 75.7202 70.0129 77.4052L71.0752 77.7821C71.4342 77.9095 71.8214 77.9359 72.1944 77.8583C72.5674 77.7808 72.9119 77.6023 73.1904 77.3423C73.4688 77.0822 73.6704 76.7506 73.7732 76.3838C73.876 76.0169 73.876 75.6288 73.7732 75.2619L72.5588 70.9254C72.2227 69.7299 72.1531 68.4753 72.3547 67.25C72.5564 66.0246 73.0244 64.8585 73.7259 63.8337C75.5968 61.0939 75.7525 57.5936 74.1321 54.6983L73.6739 53.8795C74.0652 52.853 74.266 51.7637 74.2665 50.6651C74.2665 47.2417 72.2802 44.0553 69.2064 42.5478L67.8834 41.8988L65.6046 40.5524L62.8924 37.7166L65.0354 35.0189C66.1976 33.551 67.032 31.8514 67.4826 30.0342L71.7341 16.805L75.8778 13.8044C76.27 13.5204 76.5509 13.1084 76.6718 12.6395L78.6542 4.95075C78.7246 4.67833 78.739 4.39444 78.6964 4.11629C78.6539 3.83815 78.5553 3.57155 78.4066 3.33265C78.2579 3.09375 78.0623 2.88752 77.8316 2.72647C77.6008 2.56542 77.3398 2.4529 77.0643 2.39573L68.2774 0.567969C67.8205 0.472333 67.3446 0.533457 66.9267 0.741476C66.5088 0.949494 66.1732 1.29227 65.974 1.71448L61.7097 10.7311L50.4897 30.6333C49.628 32.1605 49.025 33.8198 48.7051 35.544L46.1579 49.2493L36.9341 51.9733C32.6875 53.2277 29.8835 57.3399 30.2671 61.7515L30.5611 65.1336L30.2944 66.4361C29.0424 72.5494 29.0239 78.9513 30.2208 85.0836L15.2177 80.144C13.0926 79.4466 10.7913 79.5075 8.70615 80.3166L8.59282 80.3605C3.98547 82.1543 1.39666 86.9578 2.4379 91.7822C4.00054 99.0236 6.39129 110.165 7.25345 114.186L2.41685 116.844C1.44844 117.372 0.70005 118.228 0.306 119.259C-0.0880486 120.289 -0.101954 121.426 0.266781 122.466L0.284455 122.516C0.949852 124.408 2.73551 125.675 4.73144 125.675H4.74963C6.78066 125.668 10.0757 125.666 12.5966 125.665C15.5046 125.664 18.1948 124.213 19.7944 121.782L19.8334 121.723C20.957 120.015 21.4547 117.96 21.2343 115.938C20.8411 112.327 20.0915 105.428 19.6013 100.917C23.2168 103.155 26.9532 105.192 30.7932 107.018L32.8278 107.985L58.7986 123.535C61.3352 125.053 64.2302 125.869 67.1862 125.898L117.133 126.233ZM101.762 117.855C102.272 117.764 102.73 117.486 103.046 117.075L104.146 115.643C104.415 115.293 104.764 115.012 105.164 114.824C105.715 114.567 106.335 114.497 106.929 114.628C107.523 114.758 108.058 115.08 108.451 115.544L108.485 115.583L114.241 122.066L98.128 122.018L98.3029 118.473L101.762 117.855ZM34.1194 68.6064L46.1038 76.0347C45.3363 79.1277 45.1268 82.3591 45.5221 85.5548L34.6826 86.0538C33.3196 80.3709 33.1299 74.3709 34.1194 68.6064ZM70.2918 61.4882C69.2641 62.9897 68.5727 64.6954 68.265 66.4887C67.9572 68.282 68.0404 70.1206 68.5087 71.8788C66.6378 70.3936 65.3107 68.268 64.842 65.8681C64.5531 64.3772 64.6005 62.8405 64.9808 61.3702L65.3125 60.0953C67.2949 59.9744 69.1821 59.2031 70.6817 57.9008L70.9078 57.7051C71.2727 58.9789 71.0638 60.3578 70.2918 61.4882ZM66.0151 50.8346L67.9018 46.5851C69.2576 47.4793 70.1075 49.0206 70.1075 50.6651C70.1077 51.3644 69.9576 52.0556 69.6674 52.6919C69.3771 53.3281 68.9535 53.8946 68.4253 54.3529L67.9561 54.7599C67.4233 55.223 66.7962 55.5649 66.1182 55.762C65.4403 55.959 64.7276 56.0064 64.0295 55.901L59.4952 55.2187L59.674 53.0028L64.5239 52.0294C64.8499 51.964 65.1554 51.8214 65.4149 51.6135C65.6743 51.4056 65.8802 51.1385 66.0151 50.8346ZM64.2427 44.5783L62.6506 48.1636L60.0221 48.6913L60.6144 41.3519L62.7975 43.634C62.9289 43.7714 63.0786 43.8902 63.2422 43.987L64.2427 44.5783ZM52.7939 36.3042C53.0303 35.0302 53.4758 33.804 54.1125 32.6755L65.3689 12.7086C65.3933 12.6655 65.4159 12.6213 65.4373 12.5766L69.0335 4.97311L74.083 6.02319L72.832 10.8756L68.7434 13.8361C68.3849 14.0957 68.1186 14.4628 67.9832 14.8841C67.9832 14.8841 63.4702 28.9339 63.458 28.9849C63.1547 30.2422 62.5818 31.4185 61.7789 32.4324L57.0332 38.4072C56.7766 38.7302 56.6219 39.1221 56.5888 39.5332L55.0347 58.7887C54.885 60.6445 54.1278 62.4049 52.914 63.7942C52.8776 63.8311 52.1706 64.5623 51.8572 64.8165C50.4115 65.9885 48.3573 66.1507 46.7456 65.2207C46.057 64.8219 45.4853 64.2493 45.0876 63.56C44.69 62.8708 44.4804 62.0892 44.4798 61.2935L44.4806 60.3012C44.4828 59.2947 44.8186 58.3173 45.4356 57.5221C45.4356 57.5221 49.6273 52.1334 49.6367 52.1209C49.6681 52.078 52.7939 36.3042 52.7939 36.3042ZM38.1123 55.9615L42.5855 54.1979C41.405 55.7146 40.3229 58.3775 40.3216 60.2983L40.3211 61.2901C40.3185 64.3884 41.9838 67.2748 44.6672 68.8232C45.8205 69.4868 47.1115 69.8749 48.4395 69.9572C48.0859 70.6191 47.761 71.2958 47.4655 71.9856L34.6403 64.0362L34.4102 61.391C34.1971 58.9415 35.754 56.6581 38.1123 55.9615ZM16.3187 119.498C15.9138 120.116 15.3614 120.623 14.7114 120.973C14.0614 121.324 13.3343 121.507 12.5959 121.506C10.0705 121.507 6.76922 121.509 4.73404 121.516H4.7317C4.49439 121.516 4.28879 121.367 4.20796 121.137L4.19029 121.087C4.15096 120.977 4.15242 120.855 4.19439 120.746C4.23636 120.636 4.3161 120.545 4.41928 120.488L10.1843 117.321L17.12 117.042C17.0902 117.896 16.8264 118.725 16.3574 119.439L16.3187 119.498ZM60.9352 119.967C60.9352 119.967 34.7632 104.299 34.7032 104.271L32.5783 103.261C27.8621 101.019 23.3094 98.4468 18.954 95.5651L18.2107 95.0734C17.8814 94.8554 17.4968 94.7358 17.1021 94.7284C16.7073 94.7211 16.3185 94.8263 15.9813 95.0318C15.6441 95.2373 15.3724 95.5345 15.198 95.8887C15.0235 96.243 14.9536 96.6396 14.9962 97.0321C14.9962 97.0321 16.0195 106.456 16.7203 112.896L11.2773 113.115C10.3808 108.936 8.04127 98.032 6.5028 90.9047C5.89537 88.0888 7.40889 85.284 10.0996 84.2365L10.2129 84.1923C11.399 83.7315 12.7083 83.6966 13.9173 84.0935C13.9173 84.0935 32.7171 90.2588 32.7538 90.2643C32.7792 90.2682 47.1607 89.6426 47.1607 89.6426L48.8049 91.253C51.1037 93.5023 52.4927 96.52 52.7063 99.729C52.7387 100.213 52.9395 100.671 53.274 101.023L66.4473 114.875C66.7034 115.145 67.0269 115.34 67.3843 115.442C67.7417 115.544 68.1198 115.548 68.4794 115.454L70.7108 114.872C74.5803 113.863 78.6485 113.903 82.4977 114.986L94.1491 118.269L93.9656 121.993L67.226 121.739C65.009 121.717 62.8377 121.105 60.9352 119.967Z" fill="#F7B512"/>
</svg>
