<svg width="102" height="102" viewBox="0 0 102 102" fill="none" xmlns="http://www.w3.org/2000/svg">
<path d="M53.4375 20.25C53.4375 20.6976 53.2597 21.1268 52.9432 21.4432C52.6268 21.7597 52.1976 21.9375 51.75 21.9375H45C44.5524 21.9375 44.1232 21.7597 43.8068 21.4432C43.4903 21.1268 43.3125 20.6976 43.3125 20.25C43.3125 19.8024 43.4903 19.3732 43.8068 19.0568C44.1232 18.7403 44.5524 18.5625 45 18.5625H51.75C52.1976 18.5625 52.6268 18.7403 52.9432 19.0568C53.2597 19.3732 53.4375 19.8024 53.4375 20.25ZM51.75 27.5625H45C44.5524 27.5625 44.1232 27.7403 43.8068 28.0568C43.4903 28.3732 43.3125 28.8024 43.3125 29.25C43.3125 29.6976 43.4903 30.1268 43.8068 30.4432C44.1232 30.7597 44.5524 30.9375 45 30.9375H51.75C52.1976 30.9375 52.6268 30.7597 52.9432 30.4432C53.2597 30.1268 53.4375 29.6976 53.4375 29.25C53.4375 28.8024 53.2597 28.3732 52.9432 28.0568C52.6268 27.7403 52.1976 27.5625 51.75 27.5625ZM20.25 21.9375H27C27.4476 21.9375 27.8768 21.7597 28.1932 21.4432C28.5097 21.1268 28.6875 20.6976 28.6875 20.25C28.6875 19.8024 28.5097 19.3732 28.1932 19.0568C27.8768 18.7403 27.4476 18.5625 27 18.5625H20.25C19.8024 18.5625 19.3732 18.7403 19.0568 19.0568C18.7403 19.3732 18.5625 19.8024 18.5625 20.25C18.5625 20.6976 18.7403 21.1268 19.0568 21.4432C19.3732 21.7597 19.8024 21.9375 20.25 21.9375ZM27 27.5625H20.25C19.8024 27.5625 19.3732 27.7403 19.0568 28.0568C18.7403 28.3732 18.5625 28.8024 18.5625 29.25C18.5625 29.6976 18.7403 30.1268 19.0568 30.4432C19.3732 30.7597 19.8024 30.9375 20.25 30.9375H27C27.4476 30.9375 27.8768 30.7597 28.1932 30.4432C28.5097 30.1268 28.6875 29.6976 28.6875 29.25C28.6875 28.8024 28.5097 28.3732 28.1932 28.0568C27.8768 27.7403 27.4476 27.5625 27 27.5625ZM62.4375 13.5V63C62.4375 63.4476 62.2597 63.8768 61.9432 64.1932C61.6268 64.5097 61.1976 64.6875 60.75 64.6875C60.3024 64.6875 59.8732 64.5097 59.5568 64.1932C59.2403 63.8768 59.0625 63.4476 59.0625 63V57.9375H37.6875V63C37.6875 63.4476 37.5097 63.8768 37.1932 64.1932C36.8768 64.5097 36.4476 64.6875 36 64.6875C35.5524 64.6875 35.1232 64.5097 34.8068 64.1932C34.4903 63.8768 34.3125 63.4476 34.3125 63V57.9375H12.9375V63C12.9375 63.4476 12.7597 63.8768 12.4432 64.1932C12.1268 64.5097 11.6976 64.6875 11.25 64.6875C10.8024 64.6875 10.3732 64.5097 10.0568 64.1932C9.74029 63.8768 9.5625 63.4476 9.5625 63V13.5C9.5625 12.4557 9.97734 11.4542 10.7158 10.7158C11.4542 9.97734 12.4557 9.5625 13.5 9.5625H58.5C59.5443 9.5625 60.5458 9.97734 61.2842 10.7158C62.0227 11.4542 62.4375 12.4557 62.4375 13.5ZM34.3125 54.5625V12.9375H13.5C13.3508 12.9375 13.2077 12.9968 13.1023 13.1023C12.9968 13.2077 12.9375 13.3508 12.9375 13.5V54.5625H34.3125ZM37.6875 54.5625H59.0625V13.5C59.0625 13.3508 59.0032 13.2077 58.8977 13.1023C58.7923 12.9968 58.6492 12.9375 58.5 12.9375H37.6875V54.5625Z" fill="#F7B512"/>
</svg>
