<svg width="72" height="72" viewBox="0 0 72 72" fill="none" xmlns="http://www.w3.org/2000/svg">
<path d="M30 46.5V38.1M30 38.1H38.571C40.713 38.1 45 38.1 45 31.8C45 25.5 40.713 25.5 38.571 25.5H30V38.1Z" stroke="#F7B512" stroke-width="3" stroke-linecap="round" stroke-linejoin="round"/>
<path d="M36 66C52.5685 66 66 52.5685 66 36C66 19.4315 52.5685 6 36 6C19.4315 6 6 19.4315 6 36C6 52.5685 19.4315 66 36 66Z" stroke="#F7B512" stroke-width="3"/>
<path d="M30 46.5V38.1M30 38.1H38.571C40.713 38.1 45 38.1 45 31.8C45 25.5 40.713 25.5 38.571 25.5H30V38.1Z" stroke="#F7B512" stroke-width="3" stroke-linecap="round" stroke-linejoin="round"/>
<path d="M36 66C52.5685 66 66 52.5685 66 36C66 19.4315 52.5685 6 36 6C19.4315 6 6 19.4315 6 36C6 52.5685 19.4315 66 36 66Z" stroke="#F7B512" stroke-width="3"/>
</svg>
