<svg width="116" height="76" viewBox="0 0 116 76" fill="none" xmlns="http://www.w3.org/2000/svg">
<path fill-rule="evenodd" clip-rule="evenodd" d="M74.3792 2.29361C66.0211 3.53686 58.6905 4.85465 58.0901 5.22336C57.4886 5.59206 57.0005 6.64947 57.0065 7.57371C57.0205 10.101 61.6416 19.4428 65.533 24.8123L68.9762 29.5637L65.2413 30.5585C53.7266 33.6244 35.5209 37.6066 30.3615 38.189C21.833 39.151 19.7029 40.106 20.0888 42.7973C20.6812 46.9375 29.8643 46.1206 57.9989 39.4233C76.5584 35.0058 80.0518 33.7665 80.0518 31.6C80.0518 30.5863 77.62 27.3465 74.6479 24.3999C68.5612 18.3655 64.1356 10.9546 66.2387 10.3166C66.9444 10.102 73.5011 9.15287 80.8087 8.20577C95.2724 6.33245 97.7323 5.36448 96.6467 1.9736C95.7856 -0.717633 94.5116 -0.699746 74.3792 2.29361ZM93.5021 16.677C89.3512 18.3416 86.0663 23.4796 86.0663 28.3075C86.0663 36.5373 91.1595 41.553 99.5176 41.553C112.271 41.553 116.816 24.3114 105.815 17.6619C102.492 15.6524 97.1268 15.2231 93.5021 16.677ZM103.279 24.3154C105.131 25.9771 105.7 30.1988 104.345 32.2112C101.562 36.3425 94.8253 35.6607 93.0651 31.0703C92.0577 28.4427 93.1573 24.9743 95.4889 23.4309C97.4095 22.1598 101.379 22.61 103.279 24.3154ZM68.0229 49.1268C66.6446 49.3822 60.3295 50.7308 53.9892 52.1222C38.5221 55.518 20.8456 56.3071 11.8881 54.0015C1.9222 51.4374 0.416579 51.512 0.055712 54.5918C-0.202909 56.806 0.344406 57.4301 3.72051 58.7698C14.6648 63.1107 33.2785 63.3443 51.9844 59.374C70.0228 55.5468 72.5759 55.2636 85.5651 55.6492C97.8817 56.0159 99.0013 56.2226 105.98 59.4306C113.116 62.7102 113.41 62.7609 114.751 60.9422C116.676 58.3325 116.543 57.8753 113.17 55.4942C106.725 50.9435 99.4574 49.2849 84.5627 48.9639C76.8441 48.7979 69.4013 48.8714 68.0229 49.1268ZM60.5049 66.8703C47.1197 69.7086 32.7061 70.0892 24.9655 67.8104C20.2262 66.4151 19.4693 66.4062 18.1311 67.7339C15.993 69.8537 17.2731 72.1832 21.6476 74.132C27.0135 76.5232 49.6167 76.5033 60.0037 74.0973C78.045 69.9183 91.1164 70.0336 100.601 74.4531C106.059 76.9972 108.377 76.4158 107.936 72.6155C107.08 65.2335 82.3544 62.2391 60.5049 66.8703Z" fill="#F7B512"/>
</svg>
