<svg width="104" height="103" viewBox="0 0 104 103" fill="none" xmlns="http://www.w3.org/2000/svg">
<path d="M87.5554 56.4873C86.7236 54.9946 86.287 53.3141 86.287 51.6052C86.287 49.8964 86.7236 48.2159 87.5554 46.7232L89.838 43.1088C90.2456 42.5217 90.512 41.8483 90.6161 41.1412C90.7203 40.4341 90.6595 39.7125 90.4385 39.0328C90.2175 38.3531 89.8422 37.7338 89.342 37.2232C88.8419 36.7127 88.2304 36.3247 87.5554 36.0897L83.5855 34.5052C82.0394 33.7841 80.7028 32.6804 79.7024 31.2985C78.7019 29.9166 78.0707 28.3023 77.8684 26.6083L77.59 22.3258C77.5742 21.6112 77.3934 20.91 77.0618 20.2768C76.7302 19.6437 76.2567 19.0957 75.6784 18.6757C75.1001 18.2558 74.4325 17.9751 73.7278 17.8558C73.0231 17.7364 72.3003 17.7815 71.6159 17.9876L67.4748 19.0368C65.7986 19.3777 64.063 19.2831 62.4338 18.762C60.8046 18.2409 59.3362 17.3108 58.1689 16.0605L55.4367 12.7715C55.0035 12.2034 54.445 11.7429 53.8047 11.426C53.1644 11.109 52.4596 10.9441 51.7451 10.9441C51.0307 10.9441 50.3259 11.109 49.6856 11.426C49.0453 11.7429 48.4868 12.2034 48.0536 12.7715L45.3214 16.0605C44.1584 17.3111 42.6946 18.2432 41.0694 18.7679C39.4442 19.2927 37.7117 19.3926 36.0369 19.0582L31.8957 18.009C31.21 17.799 30.485 17.7508 29.7775 17.8682C29.07 17.9857 28.3994 18.2657 27.8184 18.6861C27.2374 19.1065 26.7618 19.6559 26.4289 20.2912C26.0961 20.9264 25.9151 21.6302 25.9002 22.3472L25.6219 26.6297C25.4175 28.3259 24.783 29.9417 23.7787 31.3238C22.7743 32.7059 21.4335 33.8084 19.8833 34.5266L15.9135 36.1112C15.2385 36.3461 14.627 36.7341 14.1268 37.2446C13.6267 37.7552 13.2514 38.3746 13.0304 39.0542C12.8093 39.7339 12.7485 40.4555 12.8527 41.1626C12.9569 41.8697 13.2232 42.5431 13.6309 43.1302L15.9135 46.7446C16.7453 48.2373 17.1819 49.9178 17.1819 51.6267C17.1819 53.3355 16.7453 55.016 15.9135 56.5087L13.6309 60.1231C13.2232 60.7102 12.9569 61.3836 12.8527 62.0907C12.7485 62.7978 12.8093 63.5194 13.0304 64.1991C13.2514 64.8788 13.6267 65.4981 14.1268 66.0087C14.627 66.5192 15.2385 66.9072 15.9135 67.1422L19.8833 68.7267C21.434 69.4453 22.7753 70.5485 23.7797 71.9314C24.784 73.3142 25.4182 74.9309 25.6219 76.6279L25.9002 80.889C25.9151 81.606 26.0961 82.3098 26.4289 82.945C26.7618 83.5803 27.2374 84.1297 27.8184 84.5501C28.3994 84.9705 29.07 85.2505 29.7775 85.3679C30.485 85.4854 31.21 85.4372 31.8957 85.2272L36.0369 84.1779C37.7117 83.8436 39.4442 83.9435 41.0694 84.4683C42.6946 84.993 44.1584 85.9251 45.3214 87.1757L48.0536 90.4646C48.4868 91.0328 49.0453 91.4933 49.6856 91.8102C50.3259 92.1272 51.0307 92.2921 51.7451 92.2921C52.4596 92.2921 53.1644 92.1272 53.8047 91.8102C54.445 91.4933 55.0035 91.0328 55.4367 90.4646L58.1689 87.1757C59.3319 85.9251 60.7957 84.993 62.4209 84.4683C64.0461 83.9435 65.7786 83.8436 67.4533 84.1779L71.5945 85.2272C72.2789 85.4332 73.0017 85.4784 73.7064 85.359C74.4111 85.2396 75.0786 84.959 75.657 84.539C76.2353 84.1191 76.7088 83.5711 77.0404 82.9379C77.372 82.3048 77.5528 81.6035 77.5686 80.889L77.847 76.6279C78.0507 74.9309 78.6848 73.3142 79.6892 71.9314C80.6936 70.5485 82.0348 69.4453 83.5855 68.7267L87.5554 67.1422C88.2304 66.9072 88.8419 66.5192 89.342 66.0087C89.8422 65.4981 90.2175 64.8788 90.4385 64.1991C90.6595 63.5194 90.7203 62.7978 90.6161 62.0907C90.512 61.3836 90.2456 60.7102 89.838 60.1231L87.5554 56.4873Z" stroke="#F7B512" stroke-width="2.855" stroke-linecap="round" stroke-linejoin="round"/>
<path d="M36.7563 51.6051L46.7474 61.5962L66.7338 41.614" stroke="#F7B512" stroke-width="2.855" stroke-linecap="round" stroke-linejoin="round"/>
</svg>
