<svg width="57" height="56" viewBox="0 0 57 56" fill="none" xmlns="http://www.w3.org/2000/svg">
<line x1="0.639772" y1="-0.639772" x2="57.4093" y2="-0.639772" transform="matrix(0.87598 0.482348 -0.517863 0.855464 2.38428 14.4241)" stroke="white" stroke-width="1.27954" stroke-linecap="square"/>
<line x1="0.639772" y1="-0.639772" x2="57.4093" y2="-0.639772" transform="matrix(-0.87598 0.482348 0.517863 0.855464 53.2339 14.4241)" stroke="white" stroke-width="1.27954" stroke-linecap="square"/>
<line x1="27.0446" y1="0.639772" x2="27.0446" y2="55.3598" stroke="white" stroke-width="1.27954" stroke-linecap="square"/>
<line x1="0.639772" y1="-0.639772" x2="5.48869" y2="-0.639772" transform="matrix(-0.819868 0.572553 -0.608971 -0.793192 31.6719 1.84332)" stroke="white" stroke-width="1.27954" stroke-linecap="square"/>
<line x1="0.639772" y1="-0.639772" x2="5.30223" y2="-0.639772" transform="matrix(-0.0993034 -0.995057 0.995905 -0.0904039 51.3521 45.5738)" stroke="white" stroke-width="1.27954" stroke-linecap="square"/>
<line x1="0.639772" y1="-0.639772" x2="5.30353" y2="-0.639772" transform="matrix(0.121312 0.992614 -0.993878 0.110486 5.09326 10.1818)" stroke="white" stroke-width="1.27954" stroke-linecap="square"/>
<path d="M38.1655 5.11752L27.3602 10.9077" stroke="white" stroke-width="1.27954" stroke-linecap="square"/>
<path d="M43.9141 46.4228L45.3922 37.4025" stroke="white" stroke-width="1.27954" stroke-linecap="square"/>
<path d="M11.2324 7.67623L11.2324 18.231" stroke="white" stroke-width="1.27954" stroke-linecap="square"/>
<path d="M32.7998 13.8902L27.0508 16.449" stroke="white" stroke-width="1.27954" stroke-linecap="square"/>
<line x1="0.639772" y1="-0.639772" x2="5.30223" y2="-0.639772" transform="matrix(-0.0993034 -0.995057 0.995905 -0.0904039 41.7969 40.2478)" stroke="white" stroke-width="1.27954" stroke-linecap="square"/>
<line x1="0.639772" y1="-0.639772" x2="5.30353" y2="-0.639772" transform="matrix(0.121312 0.992614 -0.993878 0.110486 14.7642 15.3139)" stroke="white" stroke-width="1.27954" stroke-linecap="square"/>
<path d="M54.2627 18.2767L49.6635 16.0835" stroke="white" stroke-width="1.27954" stroke-linecap="square"/>
<line x1="0.639772" y1="-0.639772" x2="5.48869" y2="-0.639772" transform="matrix(0.819868 -0.572553 0.608971 0.793192 22.8457 55.269)" stroke="white" stroke-width="1.27954" stroke-linecap="square"/>
<line x1="0.639772" y1="-0.639772" x2="5.55246" y2="-0.639772" transform="matrix(0.9408 0.338963 -0.368261 0.929722 1.49463 37.4161)" stroke="white" stroke-width="1.27954" stroke-linecap="square"/>
<path d="M55.4121 23.3942L44.408 18.4042" stroke="white" stroke-width="1.27954" stroke-linecap="square"/>
<path d="M16.7021 51.1748L26.6671 46.4229" stroke="white" stroke-width="1.27954" stroke-linecap="square"/>
<path d="M0.988281 29.9738L11.3365 36.5534" stroke="white" stroke-width="1.27954" stroke-linecap="square"/>
<path d="M43.9141 24.1253L39.3149 21.5665" stroke="white" stroke-width="1.27954" stroke-linecap="square"/>
<line x1="0.639772" y1="-0.639772" x2="5.48869" y2="-0.639772" transform="matrix(0.819868 -0.572553 0.608971 0.793192 22.8457 44.2388)" stroke="white" stroke-width="1.27954" stroke-linecap="square"/>
<line x1="0.639772" y1="-0.639772" x2="5.55246" y2="-0.639772" transform="matrix(0.9408 0.338963 -0.368261 0.929722 11.1841 31.3937)" stroke="white" stroke-width="1.27954" stroke-linecap="square"/>
<path d="M26.667 5.48305L22.9223 2.2925" stroke="white" stroke-width="1.27954" stroke-linecap="square"/>
<line x1="0.639772" y1="-0.639772" x2="5.55077" y2="-0.639772" transform="matrix(0.93785 -0.34704 0.376823 0.926285 50.1938 40.5651)" stroke="white" stroke-width="1.27954" stroke-linecap="square"/>
<line x1="0.639772" y1="-0.639772" x2="5.54664" y2="-0.639772" transform="matrix(-0.930569 0.366117 -0.396988 -0.917824 6.36182 15.1661)" stroke="white" stroke-width="1.27954" stroke-linecap="square"/>
<path d="M26.6674 10.966L15.9359 4.75187" stroke="white" stroke-width="1.27954" stroke-linecap="square"/>
<path d="M45.4786 37.295L54.2622 31.436" stroke="white" stroke-width="1.27954" stroke-linecap="square"/>
<path d="M11.1483 18.3404L1.3715 24.1253" stroke="white" stroke-width="1.27954" stroke-linecap="square"/>
<path d="M26.6672 16.4491L20.9182 13.8903" stroke="white" stroke-width="1.27954" stroke-linecap="square"/>
<line x1="0.639772" y1="-0.639772" x2="5.55077" y2="-0.639772" transform="matrix(0.93785 -0.34704 0.376823 0.926285 40.6392 35.239)" stroke="white" stroke-width="1.27954" stroke-linecap="square"/>
<line x1="0.639772" y1="-0.639772" x2="5.54664" y2="-0.639772" transform="matrix(-0.930569 0.366117 -0.396988 -0.917824 16.0327 20.2982)" stroke="white" stroke-width="1.27954" stroke-linecap="square"/>
<path d="M49.2803 16.0835L49.4935 10.5558" stroke="white" stroke-width="1.27954" stroke-linecap="square"/>
<line x1="0.639772" y1="-0.639772" x2="5.48" y2="-0.639772" transform="matrix(0.801675 0.597761 -0.633959 0.773366 26.7656 51.7572)" stroke="white" stroke-width="1.27954" stroke-linecap="square"/>
<line x1="0.639772" y1="-0.639772" x2="5.30176" y2="-0.639772" transform="matrix(-0.0900094 0.995941 -0.996638 -0.0819303 6.71973 38.6306)" stroke="white" stroke-width="1.27954" stroke-linecap="square"/>
<path d="M44.348 18.2812L44.6805 7.31073" stroke="white" stroke-width="1.27954" stroke-linecap="square"/>
<path d="M27.3901 46.5934L37.0155 52.6369" stroke="white" stroke-width="1.27954" stroke-linecap="square"/>
<path d="M11.72 36.919L13.253 46.0573" stroke="white" stroke-width="1.27954" stroke-linecap="square"/>
<path d="M39.315 21.201L38.9318 16.0835" stroke="white" stroke-width="1.27954" stroke-linecap="square"/>
<line x1="0.639772" y1="-0.639772" x2="5.48" y2="-0.639772" transform="matrix(0.801675 0.597761 -0.633959 0.773366 26.7656 40.727)" stroke="white" stroke-width="1.27954" stroke-linecap="square"/>
<line x1="0.639772" y1="-0.639772" x2="5.30176" y2="-0.639772" transform="matrix(-0.0900094 0.995941 -0.996638 -0.0819303 16.4092 32.6081)" stroke="white" stroke-width="1.27954" stroke-linecap="square"/>
</svg>
