<svg width="44" height="44" viewBox="0 0 44 44" fill="none" xmlns="http://www.w3.org/2000/svg">
<path fill-rule="evenodd" clip-rule="evenodd" d="M29.3332 16.5003C29.3332 18.4452 28.5606 20.3105 27.1853 21.6858C25.81 23.061 23.9448 23.8337 21.9998 23.8337C20.0549 23.8337 18.1897 23.061 16.8144 21.6858C15.4391 20.3105 14.6665 18.4452 14.6665 16.5003C14.6665 14.5554 15.4391 12.6901 16.8144 11.3149C18.1897 9.93961 20.0549 9.16699 21.9998 9.16699C23.9448 9.16699 25.81 9.93961 27.1853 11.3149C28.5606 12.6901 29.3332 14.5554 29.3332 16.5003ZM25.6665 16.5003C25.6665 17.4728 25.2802 18.4054 24.5926 19.0931C23.9049 19.7807 22.9723 20.167 21.9998 20.167C21.0274 20.167 20.0947 19.7807 19.4071 19.0931C18.7195 18.4054 18.3332 17.4728 18.3332 16.5003C18.3332 15.5279 18.7195 14.5952 19.4071 13.9076C20.0947 13.22 21.0274 12.8337 21.9998 12.8337C22.9723 12.8337 23.9049 13.22 24.5926 13.9076C25.2802 14.5952 25.6665 15.5279 25.6665 16.5003Z" fill="white"/>
<path fill-rule="evenodd" clip-rule="evenodd" d="M21.9999 1.8335C10.8624 1.8335 1.83325 10.8627 1.83325 22.0002C1.83325 33.1377 10.8624 42.1668 21.9999 42.1668C33.1374 42.1668 42.1666 33.1377 42.1666 22.0002C42.1666 10.8627 33.1374 1.8335 21.9999 1.8335ZM5.49992 22.0002C5.49992 25.8318 6.80709 29.3592 8.99792 32.1605C10.5365 30.14 12.5214 28.5025 14.7975 27.3761C17.0737 26.2496 19.5794 25.6646 22.1191 25.6668C24.6259 25.6644 27.1001 26.2343 29.3533 27.3329C31.6065 28.4316 33.5792 30.03 35.1211 32.0065C36.7096 29.9231 37.7791 27.4914 38.2412 24.9126C38.7033 22.3338 38.5447 19.682 37.7785 17.1766C37.0123 14.6713 35.6605 12.3844 33.835 10.5052C32.0095 8.62604 29.7627 7.20857 27.2806 6.3701C24.7985 5.53162 22.1524 5.29624 19.5613 5.68345C16.9702 6.07065 14.5085 7.0693 12.38 8.59676C10.2515 10.1242 8.51724 12.1366 7.32084 14.4674C6.12444 16.7981 5.50025 19.3803 5.49992 22.0002ZM21.9999 38.5002C18.2122 38.5058 14.5387 37.2028 11.6013 34.8115C12.7836 33.1188 14.3574 31.7368 16.1886 30.7831C18.0198 29.8293 20.0544 29.332 22.1191 29.3335C24.158 29.3319 26.168 29.8167 27.982 30.7478C29.7959 31.6788 31.3616 33.0292 32.5489 34.6868C29.5886 37.1558 25.8547 38.5056 21.9999 38.5002Z" fill="white"/>
</svg>
