<svg width="55" height="55" viewBox="0 0 55 55" fill="none" xmlns="http://www.w3.org/2000/svg">
<path fill-rule="evenodd" clip-rule="evenodd" d="M14.9866 11.4585C15.1241 13.498 15.4679 15.4918 16.0179 17.3939L13.2679 20.1439C12.3283 17.3939 11.7324 14.4835 11.5262 11.4585H14.9866ZM37.5813 39.0027C39.5293 39.5527 41.523 39.8964 43.5397 40.0339V43.4485C40.5147 43.2423 37.6043 42.6464 34.8313 41.7298L37.5813 39.0027ZM17.1865 6.87329H9.16569C7.90527 6.87329 6.87402 7.90454 6.87402 9.16496C6.87402 30.6837 24.3136 48.1233 45.8324 48.1233C47.0928 48.1233 48.124 47.092 48.124 45.8316V37.8337C48.124 36.5733 47.0928 35.542 45.8324 35.542C42.9907 35.542 40.2178 35.0837 37.6511 34.2358C37.4219 34.1441 37.1699 34.1212 36.9407 34.1212C36.3449 34.1212 35.7719 34.3504 35.3136 34.7858L30.2719 39.8275C23.7865 36.5045 18.4699 31.2108 15.1699 24.7254L20.2115 19.6837C20.8532 19.042 21.0365 18.1483 20.7844 17.3462C19.9365 14.7795 19.4782 12.0295 19.4782 9.16496C19.4782 7.90454 18.4469 6.87329 17.1865 6.87329Z" fill="#013D83"/>
</svg>
