<svg width="50" height="50" viewBox="0 0 50 50" fill="none" xmlns="http://www.w3.org/2000/svg">
    <path
        d="M20.5 20.5L29.5 29.5M29.5 20.5L20.5 29.5M43 25C43 27.3638 42.5344 29.7044 41.6298 31.8883C40.7252 34.0722 39.3994 36.0565 37.7279 37.7279C36.0565 39.3994 34.0722 40.7252 31.8883 41.6298C29.7044 42.5344 27.3638 43 25 43C22.6362 43 20.2956 42.5344 18.1117 41.6298C15.9278 40.7252 13.9435 39.3994 12.2721 37.7279C10.6006 36.0565 9.27475 34.0722 8.37017 31.8883C7.46558 29.7044 7 27.3638 7 25C7 20.2261 8.89642 15.6477 12.2721 12.2721C15.6477 8.89642 20.2261 7 25 7C29.7739 7 34.3523 8.89642 37.7279 12.2721C41.1036 15.6477 43 20.2261 43 25Z"
        stroke="black" stroke-linecap="round" stroke-linejoin="round" />
</svg>