<svg width="28" height="33" viewBox="0 0 28 33" fill="none" xmlns="http://www.w3.org/2000/svg">
<path d="M18.4024 12.2225L17.9039 25.1894M11.0055 25.1894L10.507 12.2225M24.8685 7.59764C25.3613 7.67256 25.8511 7.7518 26.341 7.83681M24.8685 7.59764L23.3298 27.5998C23.267 28.4141 22.8991 29.1748 22.2997 29.7296C21.7002 30.2844 20.9135 30.5925 20.0967 30.5923H8.81264C7.99586 30.5925 7.2091 30.2844 6.60968 29.7296C6.01026 29.1748 5.64236 28.4141 5.57956 27.5998L4.04082 7.59764M24.8685 7.59764C23.2057 7.34625 21.5343 7.15547 19.8575 7.02566M4.04082 7.59764C3.54808 7.67112 3.05822 7.75036 2.56836 7.83537M4.04082 7.59764C5.70366 7.34626 7.37509 7.15547 9.0518 7.02566M19.8575 7.02566V5.70592C19.8575 4.00581 18.5464 2.5881 16.8463 2.53479C15.2523 2.48385 13.657 2.48385 12.063 2.53479C10.3629 2.5881 9.0518 4.00726 9.0518 5.70592V7.02566M19.8575 7.02566C16.261 6.7477 12.6484 6.7477 9.0518 7.02566" stroke="#64C661" stroke-width="3.24172" stroke-linecap="round" stroke-linejoin="round"/>
</svg>
