<svg width="17" height="16" viewBox="0 0 17 16" fill="none" xmlns="http://www.w3.org/2000/svg">
<mask id="path-1-inside-1_2363_842" fill="white">
<path fill-rule="evenodd" clip-rule="evenodd" d="M7.37301 1.5H9.62634C9.77101 1.5 9.89701 1.5 10.0157 1.51867C10.2468 1.5557 10.4661 1.64631 10.6559 1.78325C10.8458 1.9202 11.0009 2.09968 11.109 2.30733C11.165 2.414 11.2043 2.53333 11.2503 2.67L11.3243 2.89333C11.3754 3.07477 11.4865 3.23355 11.6394 3.34373C11.7923 3.45392 11.9781 3.50901 12.1663 3.5H14.1663C14.299 3.5 14.4261 3.55268 14.5199 3.64645C14.6137 3.74021 14.6663 3.86739 14.6663 4C14.6663 4.13261 14.6137 4.25979 14.5199 4.35355C14.4261 4.44732 14.299 4.5 14.1663 4.5H2.83301C2.7004 4.5 2.57322 4.44732 2.47945 4.35355C2.38569 4.25979 2.33301 4.13261 2.33301 4C2.33301 3.86739 2.38569 3.74021 2.47945 3.64645C2.57322 3.55268 2.7004 3.5 2.83301 3.5H4.89301C5.07108 3.49573 5.24309 3.43451 5.38383 3.32533C5.52456 3.21615 5.62661 3.06475 5.67501 2.89333L5.74967 2.67C5.79501 2.53333 5.83434 2.414 5.88967 2.30733C5.9978 2.0996 6.15307 1.92007 6.34304 1.78312C6.53301 1.64617 6.75241 1.5556 6.98367 1.51867C7.10234 1.5 7.22834 1.5 7.37234 1.5M6.50434 3.5C6.55115 3.40832 6.59018 3.31288 6.62101 3.21467L6.68767 3.01467C6.74834 2.83267 6.76234 2.796 6.77634 2.76933C6.81233 2.70001 6.86406 2.64007 6.92739 2.59434C6.99072 2.54861 7.06388 2.51836 7.14101 2.506C7.22791 2.49866 7.31519 2.49666 7.40234 2.5H9.59567C9.78767 2.5 9.82767 2.50133 9.85701 2.50667C9.93407 2.51895 10.0072 2.54911 10.0705 2.59472C10.1338 2.64033 10.1856 2.70013 10.2217 2.76933C10.2357 2.796 10.2497 2.83267 10.3103 3.01533L10.377 3.21533L10.403 3.29C10.429 3.36333 10.4597 3.43267 10.4937 3.5H6.50434Z"/>
</mask>
<path fill-rule="evenodd" clip-rule="evenodd" d="M7.37301 1.5H9.62634C9.77101 1.5 9.89701 1.5 10.0157 1.51867C10.2468 1.5557 10.4661 1.64631 10.6559 1.78325C10.8458 1.9202 11.0009 2.09968 11.109 2.30733C11.165 2.414 11.2043 2.53333 11.2503 2.67L11.3243 2.89333C11.3754 3.07477 11.4865 3.23355 11.6394 3.34373C11.7923 3.45392 11.9781 3.50901 12.1663 3.5H14.1663C14.299 3.5 14.4261 3.55268 14.5199 3.64645C14.6137 3.74021 14.6663 3.86739 14.6663 4C14.6663 4.13261 14.6137 4.25979 14.5199 4.35355C14.4261 4.44732 14.299 4.5 14.1663 4.5H2.83301C2.7004 4.5 2.57322 4.44732 2.47945 4.35355C2.38569 4.25979 2.33301 4.13261 2.33301 4C2.33301 3.86739 2.38569 3.74021 2.47945 3.64645C2.57322 3.55268 2.7004 3.5 2.83301 3.5H4.89301C5.07108 3.49573 5.24309 3.43451 5.38383 3.32533C5.52456 3.21615 5.62661 3.06475 5.67501 2.89333L5.74967 2.67C5.79501 2.53333 5.83434 2.414 5.88967 2.30733C5.9978 2.0996 6.15307 1.92007 6.34304 1.78312C6.53301 1.64617 6.75241 1.5556 6.98367 1.51867C7.10234 1.5 7.22834 1.5 7.37234 1.5M6.50434 3.5C6.55115 3.40832 6.59018 3.31288 6.62101 3.21467L6.68767 3.01467C6.74834 2.83267 6.76234 2.796 6.77634 2.76933C6.81233 2.70001 6.86406 2.64007 6.92739 2.59434C6.99072 2.54861 7.06388 2.51836 7.14101 2.506C7.22791 2.49866 7.31519 2.49666 7.40234 2.5H9.59567C9.78767 2.5 9.82767 2.50133 9.85701 2.50667C9.93407 2.51895 10.0072 2.54911 10.0705 2.59472C10.1338 2.64033 10.1856 2.70013 10.2217 2.76933C10.2357 2.796 10.2497 2.83267 10.3103 3.01533L10.377 3.21533L10.403 3.29C10.429 3.36333 10.4597 3.43267 10.4937 3.5H6.50434Z" fill="black"/>
<path d="M10.0157 1.51867L10.1739 0.531253L10.1711 0.530814L10.0157 1.51867ZM11.109 2.30733L10.2219 2.76897L10.2236 2.77217L11.109 2.30733ZM11.2503 2.67L12.1996 2.35547L12.1981 2.351L11.2503 2.67ZM11.3243 2.89333L12.287 2.62248L12.2808 2.60049L12.2736 2.57881L11.3243 2.89333ZM12.1663 3.5V2.5H12.1424L12.1186 2.50114L12.1663 3.5ZM14.1663 3.5V2.5V3.5ZM14.1663 4.5V5.5V4.5ZM2.83301 4.5V5.5V4.5ZM2.83301 3.5V2.5L2.83301 2.5L2.83301 3.5ZM4.89301 3.5V4.5H4.905L4.91699 4.49971L4.89301 3.5ZM5.67501 2.89333L4.72661 2.57626L4.71908 2.59877L4.71263 2.62162L5.67501 2.89333ZM5.74967 2.67L6.69808 2.98708L6.69882 2.98484L5.74967 2.67ZM5.88967 2.30733L5.00264 1.84562L5.002 1.84685L5.88967 2.30733ZM6.98367 1.51867L6.82828 0.530811L6.82598 0.531179L6.98367 1.51867ZM6.50434 3.5L5.61372 3.04525L4.87092 4.5H6.50434V3.5ZM6.62101 3.21467L5.67232 2.89844L5.66955 2.90677L5.66692 2.91516L6.62101 3.21467ZM6.68767 3.01467L5.73899 2.69844L5.73899 2.69844L6.68767 3.01467ZM6.77634 2.76933L7.66175 3.23417L7.66388 3.23007L6.77634 2.76933ZM7.14101 2.506L7.05685 1.50955L7.01966 1.51269L6.98281 1.51859L7.14101 2.506ZM7.40234 2.5L7.364 3.49926L7.38316 3.5H7.40234V2.5ZM9.85701 2.50667L9.67812 3.49054L9.68882 3.49248L9.69956 3.49419L9.85701 2.50667ZM10.2217 2.76933L9.33489 3.23153L9.33628 3.23417L10.2217 2.76933ZM10.3103 3.01533L9.36131 3.33052L9.36166 3.33156L10.3103 3.01533ZM10.377 3.21533L9.42824 3.53159L9.43262 3.54418L10.377 3.21533ZM10.403 3.29L9.45861 3.61885L9.46049 3.62416L10.403 3.29ZM10.4937 3.5V4.5H12.1189L11.3863 3.04925L10.4937 3.5ZM7.37301 2.5H9.62634V0.5H7.37301V2.5ZM9.62634 2.5C9.78982 2.5 9.83347 2.5023 9.86028 2.50652L10.1711 0.530814C9.96055 0.497699 9.7522 0.5 9.62634 0.5V2.5ZM9.85749 2.50608C9.93454 2.51842 10.0076 2.54862 10.0709 2.59427L11.241 0.972236C10.9245 0.743992 10.5591 0.592971 10.1739 0.531257L9.85749 2.50608ZM10.0709 2.59427C10.1342 2.63992 10.1859 2.69975 10.2219 2.76897L11.9961 1.8457C11.816 1.49961 11.5574 1.20048 11.241 0.972236L10.0709 2.59427ZM10.2236 2.77217C10.2348 2.79352 10.2486 2.82848 10.3026 2.989L12.1981 2.351C12.1601 2.23818 12.0952 2.03448 11.9944 1.8425L10.2236 2.77217ZM10.3011 2.98453L10.3751 3.20786L12.2736 2.57881L12.1996 2.35547L10.3011 2.98453ZM10.3617 3.16419C10.474 3.56336 10.7184 3.91267 11.0548 4.15507L12.224 2.5324C12.2545 2.55443 12.2767 2.58619 12.287 2.62248L10.3617 3.16419ZM11.0548 4.15507C11.3912 4.39748 11.7999 4.51867 12.2141 4.49886L12.1186 2.50114C12.1562 2.49934 12.1934 2.51036 12.224 2.5324L11.0548 4.15507ZM12.1663 4.5H14.1663V2.5H12.1663V4.5ZM14.1663 4.5C14.0337 4.5 13.9066 4.44732 13.8128 4.35355L15.227 2.93934C14.9457 2.65803 14.5642 2.5 14.1663 2.5V4.5ZM13.8128 4.35355C13.719 4.25978 13.6663 4.13261 13.6663 4H15.6663C15.6663 3.60218 15.5083 3.22065 15.227 2.93934L13.8128 4.35355ZM13.6663 4C13.6663 3.86739 13.719 3.74022 13.8128 3.64645L15.227 5.06066C15.5083 4.77935 15.6663 4.39782 15.6663 4H13.6663ZM13.8128 3.64645C13.9066 3.55268 14.0337 3.5 14.1663 3.5V5.5C14.5642 5.5 14.9457 5.34197 15.227 5.06066L13.8128 3.64645ZM14.1663 3.5H2.83301V5.5H14.1663V3.5ZM2.83301 3.5C2.96562 3.5 3.09279 3.55268 3.18656 3.64645L1.77235 5.06066C2.05365 5.34197 2.43518 5.5 2.83301 5.5L2.83301 3.5ZM3.18656 3.64645C3.28033 3.74022 3.33301 3.86739 3.33301 4H1.33301C1.33301 4.39782 1.49104 4.77936 1.77235 5.06066L3.18656 3.64645ZM3.33301 4C3.33301 4.13261 3.28033 4.25978 3.18656 4.35355L1.77235 2.93934C1.49104 3.22064 1.33301 3.60218 1.33301 4H3.33301ZM3.18656 4.35355C3.09279 4.44732 2.96562 4.5 2.83301 4.5L2.83301 2.5C2.43518 2.5 2.05365 2.65803 1.77235 2.93934L3.18656 4.35355ZM2.83301 4.5H4.89301V2.5H2.83301V4.5ZM4.91699 4.49971C5.30874 4.49032 5.68717 4.35564 5.99679 4.11545L4.77087 2.53522C4.79901 2.51338 4.83342 2.50114 4.86903 2.50029L4.91699 4.49971ZM5.99679 4.11545C6.3064 3.87525 6.53091 3.54217 6.63739 3.16505L4.71263 2.62162C4.72231 2.58734 4.74272 2.55706 4.77087 2.53522L5.99679 4.11545ZM6.62341 3.21041L6.69807 2.98708L4.80127 2.35292L4.72661 2.57626L6.62341 3.21041ZM6.69882 2.98484C6.75069 2.82846 6.76567 2.79032 6.77735 2.76781L5.002 1.84685C4.90301 2.03768 4.83933 2.2382 4.80053 2.35516L6.69882 2.98484ZM6.77671 2.76904C6.81275 2.6998 6.8645 2.63995 6.92783 2.5943L5.75826 0.97193C5.44164 1.20018 5.18286 1.4994 5.00264 1.84562L6.77671 2.76904ZM6.92783 2.5943C6.99115 2.54865 7.06429 2.51846 7.14137 2.50615L6.82598 0.531179C6.44054 0.592732 6.07488 0.743677 5.75826 0.97193L6.92783 2.5943ZM7.13907 2.50652C7.16591 2.5023 7.20963 2.5 7.37234 2.5V0.5C7.24705 0.5 7.03877 0.497703 6.82828 0.530814L7.13907 2.50652ZM7.39496 3.95475C7.46724 3.8132 7.5275 3.66582 7.5751 3.51418L5.66692 2.91516C5.65286 2.95993 5.63507 3.00345 5.61372 3.04525L7.39496 3.95475ZM7.56969 3.53089L7.63636 3.33089L5.73899 2.69844L5.67232 2.89844L7.56969 3.53089ZM7.63636 3.33089C7.65116 3.28649 7.66252 3.25272 7.67143 3.22665C7.68049 3.20015 7.68597 3.18464 7.68917 3.17585C7.69254 3.1666 7.69122 3.17078 7.68657 3.18181C7.68046 3.19629 7.67203 3.21456 7.66174 3.23417L5.89094 2.3045C5.82962 2.42131 5.78666 2.55544 5.73899 2.69844L7.63636 3.33089ZM7.66388 3.23007C7.62789 3.2994 7.57615 3.35933 7.51283 3.40506L6.34195 1.78363C6.15197 1.92082 5.99678 2.10061 5.88881 2.30859L7.66388 3.23007ZM7.51283 3.40506C7.4495 3.45079 7.37634 3.48105 7.29921 3.49341L6.98281 1.51859C6.75142 1.55567 6.53194 1.64644 6.34195 1.78363L7.51283 3.40506ZM7.22517 3.50245C7.27134 3.49855 7.3177 3.49749 7.364 3.49926L7.44068 1.50074C7.31268 1.49582 7.18449 1.49877 7.05685 1.50955L7.22517 3.50245ZM7.40234 3.5H9.59567V1.5H7.40234V3.5ZM9.59567 3.5C9.64287 3.5 9.6788 3.50008 9.70671 3.50027C9.73515 3.50046 9.75156 3.50074 9.7608 3.50098C9.7708 3.50125 9.76478 3.50129 9.7506 3.50015C9.74261 3.49951 9.73162 3.49846 9.71837 3.49677C9.70471 3.49502 9.6912 3.49291 9.67812 3.49054L10.0359 1.5228C9.89344 1.4969 9.73305 1.5 9.59567 1.5V3.5ZM9.69956 3.49419C9.6225 3.48191 9.54938 3.45175 9.48606 3.40614L10.655 1.7833C10.465 1.64647 10.2456 1.556 10.0145 1.51914L9.69956 3.49419ZM9.48606 3.40614C9.42273 3.36053 9.37097 3.30073 9.3349 3.23153L11.1085 2.30714C11.0002 2.09953 10.8449 1.92013 10.655 1.7833L9.48606 3.40614ZM9.33628 3.23417C9.32596 3.21452 9.31748 3.19613 9.3113 3.18147C9.3066 3.1703 9.30524 3.16601 9.30858 3.17522C9.31176 3.18397 9.31722 3.19946 9.32627 3.22601C9.33516 3.25213 9.34652 3.28598 9.36131 3.33052L11.2594 2.70014C11.2116 2.55645 11.1687 2.42187 11.1071 2.3045L9.33628 3.23417ZM9.36166 3.33156L9.42833 3.53156L11.3257 2.8991L11.259 2.6991L9.36166 3.33156ZM9.43262 3.54418L9.45862 3.61884L11.3474 2.96116L11.3214 2.88649L9.43262 3.54418ZM9.46049 3.62416C9.50303 3.74414 9.55149 3.85265 9.60102 3.95075L11.3863 3.04925C11.3679 3.01269 11.355 2.98253 11.3455 2.95584L9.46049 3.62416ZM10.4937 2.5H6.50434V4.5H10.4937V2.5Z" fill="black" mask="url(#path-1-inside-1_2363_842)"/>
<path d="M3.94434 5.66665L3.94434 5.66662L3.94436 5.66654L3.94444 5.66651L3.94452 5.66653L3.94456 5.66661L4.16797 9.01724L3.94434 5.66665ZM4.43209 12.1971C4.3549 11.7509 4.31335 11.1942 4.26612 10.4884C4.31366 11.1944 4.35516 11.7511 4.43209 12.1971ZM12.5445 12.3246C12.5281 12.4063 12.5103 12.484 12.4908 12.5581C12.5103 12.484 12.5281 12.4063 12.5444 12.3247L12.5445 12.324C12.5901 12.0945 12.6241 11.8337 12.6531 11.5356C12.6242 11.834 12.5902 12.095 12.5445 12.3246ZM13.0559 5.66665L12.8605 8.59422L13.0557 5.66661L13.0557 5.66653L12.7272 5.29095L13.0557 5.66653L13.0558 5.66651L13.0559 5.66654L13.0559 5.66662L13.0559 5.66665Z" fill="black" stroke="black"/>
<path d="M6.78381 6.83599C6.9157 6.82277 7.04745 6.86247 7.15008 6.94635C7.25272 7.03023 7.31784 7.15144 7.33114 7.28332L7.66448 10.6167C7.67424 10.7467 7.6328 10.8754 7.549 10.9754C7.4652 11.0753 7.34566 11.1385 7.2159 11.1516C7.08613 11.1646 6.9564 11.1265 6.85438 11.0452C6.75236 10.964 6.68613 10.8461 6.66981 10.7167L6.33648 7.38332C6.32326 7.25143 6.36296 7.11969 6.44684 7.01705C6.53072 6.91442 6.65193 6.84929 6.78381 6.83599ZM10.2171 6.83599C10.3489 6.8493 10.47 6.91433 10.5539 7.01681C10.6377 7.1193 10.6775 7.25087 10.6645 7.38266L10.3311 10.716C10.3146 10.8451 10.2484 10.9627 10.1465 11.0438C10.0446 11.1249 9.91506 11.163 9.78551 11.15C9.65595 11.1371 9.53654 11.0741 9.45269 10.9745C9.36883 10.8749 9.32714 10.7465 9.33648 10.6167L9.66981 7.28332C9.68312 7.15157 9.74815 7.03047 9.85064 6.94661C9.95312 6.86274 10.0854 6.82296 10.2171 6.83599Z" fill="black"/>
</svg>
