<svg width="25" height="25" viewBox="0 0 25 25" fill="none" xmlns="http://www.w3.org/2000/svg">
<path d="M22.3864 7.26416V17.2987C22.3864 17.964 22.1221 18.6021 21.6516 19.0725C21.1812 19.543 20.5431 19.8073 19.8777 19.8073H4.82601C4.16068 19.8073 3.5226 19.543 3.05214 19.0725C2.58168 18.6021 2.31738 17.964 2.31738 17.2987V7.26416" stroke="white" stroke-width="1.68579" stroke-linecap="round" stroke-linejoin="round"/>
<path d="M22.3864 7.26497C22.3864 6.59964 22.1221 5.96156 21.6516 5.49111C21.1812 5.02065 20.5431 4.75635 19.8777 4.75635H4.82601C4.16068 4.75635 3.5226 5.02065 3.05214 5.49111C2.58168 5.96156 2.31738 6.59964 2.31738 7.26497L11.0223 12.7003C11.421 12.9495 11.8817 13.0816 12.3519 13.0816C12.822 13.0816 13.2827 12.9495 13.6814 12.7003L22.3864 7.26497Z" stroke="white" stroke-width="1.68579" stroke-linecap="round" stroke-linejoin="round"/>
</svg>
