<svg width="25" height="25" viewBox="0 0 25 25" fill="none" xmlns="http://www.w3.org/2000/svg">
<path d="M22.3866 7.26416V17.2987C22.3866 17.964 22.1223 18.6021 21.6519 19.0725C21.1814 19.543 20.5433 19.8073 19.878 19.8073H4.82625C4.16092 19.8073 3.52284 19.543 3.05239 19.0725C2.58193 18.6021 2.31763 17.964 2.31763 17.2987V7.26416" stroke="white" stroke-width="1.68579" stroke-linecap="round" stroke-linejoin="round"/>
<path d="M22.3866 7.26497C22.3866 6.59964 22.1223 5.96156 21.6519 5.49111C21.1814 5.02065 20.5433 4.75635 19.878 4.75635H4.82625C4.16092 4.75635 3.52284 5.02065 3.05239 5.49111C2.58193 5.96156 2.31763 6.59964 2.31763 7.26497L11.0226 12.7003C11.4213 12.9495 11.882 13.0816 12.3521 13.0816C12.8223 13.0816 13.283 12.9495 13.6817 12.7003L22.3866 7.26497Z" stroke="white" stroke-width="1.68579" stroke-linecap="round" stroke-linejoin="round"/>
</svg>
