<svg width="200" height="124" viewBox="0 0 200 124" fill="none" xmlns="http://www.w3.org/2000/svg">
<path d="M199.945 48.4785C197.833 32.3663 178.533 9.98446 178.533 9.98446C173.499 -2.96525 160.494 1.34112 160.494 1.34112L151.813 3.68308C143.22 6.26792 143.624 17.5155 147.351 19.7952C148.986 20.7932 153.777 21.0534 155.194 19.7952C155.616 19.4136 155.294 17.5859 155.294 17.5859C164.41 18.0829 165.074 12.802 165.074 12.802L168.175 12.1836C171.281 10.4845 171.971 17.689 171.971 17.689C169.859 38.1075 178.701 45.5824 178.701 45.5824C177.422 49.6367 172.966 48.854 172.966 48.854C158.83 41.5097 148.341 55.388 148.341 55.388C140.35 48.5805 123.859 60.6414 123.859 60.6414C114.619 62.468 114.072 51.349 114.072 51.349C114.072 51.349 113.643 44.266 113.344 43.6159C112.91 42.5098 115.309 43.069 115.309 43.069C123.437 28.2773 115.309 30.2529 115.309 30.2529C117.278 4.73314 94.9087 10.0896 94.9087 10.0896C77.7016 14.8062 84.005 31.9459 84.005 31.9459C80.2273 31.0234 82.0386 36.6564 82.0386 36.6564C83.0142 45.3028 86.1052 43.3425 86.1052 43.3425C86.5062 46.3712 88.2053 50.5408 88.2053 50.5408L88.4665 57.4881C86.5246 69.0174 74.3545 59.4546 74.3545 59.4546C67.2153 49.3887 49.3164 55.0176 49.3164 55.0176C40.0699 41.2627 25.5058 49.1142 25.5058 49.1142C27.0529 45.6967 25.2446 28.6957 25.2446 28.6957C27.0529 26.5956 30.6847 14.7031 30.6847 14.7031C32.2378 16.8032 39.2444 17.1726 39.2444 17.1726C39.7791 20.3289 42.0312 21.6127 42.0312 21.6127C46.7917 23.5862 44.8181 8.00476 44.8181 8.00476C46.0641 3.05856 38.1106 1.8687 38.1106 1.8687C24.2384 -1.94682 21.026 6.81489 21.026 6.81489L17.4064 14.6847C12.2398 20.3177 2.54331 39.5514 2.54331 39.5514C-3.03761 54.8605 2.30657 57.6218 2.30657 57.6218L12.3724 65.4457C29.4509 81.9803 39.7719 79.6067 39.7719 79.6067C53.5074 79.3455 52.3767 88.2378 52.3767 88.2378C52.9237 101.853 62.4304 115.976 62.4304 115.976C63.1294 118.35 63.6263 120.86 64.1202 123.346H129.237C130.443 120.656 131.699 118.145 132.817 116.585C138.149 109.054 145.431 99.2864 148.115 92.8116C153.371 80.0792 155.864 80.3772 155.864 80.3772C174.623 80.3772 184.975 66.7754 184.975 66.7754C188.051 62.8364 192.723 57.9831 196.147 56.0381C200.752 53.4032 199.945 48.4785 199.945 48.4785Z" fill="#FAA831"/>
</svg>
