<svg width="88" height="94" viewBox="0 0 88 94" fill="none" xmlns="http://www.w3.org/2000/svg">
<path d="M51.2222 9.5C47.2399 9.5 44 12.7399 44 16.7222C44 20.7046 47.2399 23.9444 51.2222 23.9444C55.2046 23.9444 58.4444 20.7046 58.4444 16.7222C58.4444 12.7399 55.2046 9.5 51.2222 9.5ZM51.2222 21.0556C48.8331 21.0556 46.8889 19.1113 46.8889 16.7222C46.8889 14.3331 48.8331 12.3889 51.2222 12.3889C53.6113 12.3889 55.5556 14.3331 55.5556 16.7222C55.5556 19.1113 53.6113 21.0556 51.2222 21.0556Z" fill="#F7B512"/>
<path d="M22.8732 64.4958C22.1265 64.1968 21.293 64.5564 20.9926 65.2916C20.9651 65.3581 18.2019 71.9462 10.3196 74.5736C9.56412 74.8264 9.1539 75.644 9.40668 76.4009C9.6089 77.0061 10.1722 77.3889 10.7775 77.3889C10.9277 77.3889 11.0822 77.3643 11.2339 77.3138C20.4292 74.2486 23.5449 66.6899 23.6735 66.3692C23.9696 65.6311 23.6113 64.7948 22.8732 64.4958Z" fill="#F7B512"/>
<path d="M27.5043 76.213C27.1446 75.9574 26.6824 75.8794 26.2606 76.0036C25.8345 76.1278 25.4907 76.4412 25.3246 76.8515M27.5043 76.213L3.55539 88.3888V90.3888H5.55539H19.9108L25.3246 76.8515M27.5043 76.213C27.6025 76.2824 37.4204 83.1666 49.7776 83.1666C65.8124 83.1666 80.9964 75.5067 84.4371 73.6535C84.1468 54.8257 74.3216 34.4 68.0133 22.8482L27.5043 76.213ZM25.3246 76.8515L26.1516 77.1822M25.3246 76.8515L26.1502 77.1858L25.5 78.8113L20.7371 90.7192L20.5137 91.2777H19.9108H3.55539H2.6665V90.3888V46.2841L26.1516 77.1822M26.1516 77.1822L26.3758 76.6216L26.4547 76.6693L26.4571 76.6708L26.9617 76.9764L26.9643 76.978L28.3931 77.8433C31.6303 79.804 39.821 84.0555 49.7776 84.0555C66.1971 84.0555 81.3312 76.3638 84.8603 74.4392C85.0526 74.3344 85.2105 74.2466 85.3322 74.1782C85.3312 73.9988 85.3293 73.8194 85.3265 73.6398C85.1518 62.3148 81.5661 50.3838 77.2959 40.0525C74.3052 32.8167 71.0095 26.4373 68.3922 21.688L26.1516 77.1822Z" stroke="#F7B512" stroke-width="4"/>
</svg>
