<svg width="150" height="150" viewBox="0 0 150 150" fill="none" xmlns="http://www.w3.org/2000/svg">
<g clip-path="url(#clip0_1_1268)">
<path fill-rule="evenodd" clip-rule="evenodd" d="M65.8999 0.870024C63.8475 1.6505 60.4949 4.59464 51.0009 13.9574C40.1325 24.6756 38.5098 26.5256 36.6122 30.3579C34.7599 34.0996 34.4403 35.3686 34.2272 39.8337C33.8264 48.2158 36.0554 54.0687 42.0861 60.4709L45.1362 63.7081L45.4793 68.7983C46.0656 77.5006 47.9714 80.5101 55.812 85.1117L61.1912 88.2689V93.133C61.1912 96.3273 60.9387 98.1926 60.4555 98.5669C60.0511 98.8806 54.8197 100.916 48.8308 103.09C36.282 107.646 32.7893 109.541 28.6597 114.033C22.9916 120.199 20.5783 127.884 20.5783 139.768V144.051H11.5864C4.40029 144.051 2.33138 144.235 1.28604 144.967C-0.137171 145.964 -0.439707 148.107 0.683915 149.231C1.70983 150.256 148.336 150.256 149.362 149.231C150.486 148.107 150.183 145.964 148.76 144.967C147.711 144.232 145.618 144.051 138.166 144.051H128.879V136.461C128.879 127.536 127.833 123.295 124.279 117.816C119.726 110.797 116.347 108.642 101.215 103.113C95.2265 100.925 89.9957 98.8783 89.5908 98.5657C89.1075 98.192 88.855 96.3279 88.855 93.133V88.2689L94.1629 85.1535C102.567 80.2199 104.158 77.2722 104.158 66.6328V59.9941L106.751 58.4749C109.559 56.8292 112.996 52.5466 114.077 49.3471C115.153 46.161 114.891 40.527 113.527 37.5158C112.696 35.6823 108.908 31.4256 101.217 23.6839C94.7368 17.1599 89.9545 11.8714 89.7397 10.9909C89.0881 8.32454 85.1698 3.86714 81.8302 1.99306C79.0691 0.443886 77.9419 0.174899 73.5899 0.0306943C69.9265 -0.0905557 67.8246 0.138992 65.8999 0.870024ZM76.3963 8.08617C76.7671 11.9897 75.5093 14.3588 69.9859 20.1564C67.0912 23.1953 64.7227 25.9776 64.7227 26.3396C64.7227 27.9429 66.0188 29.2755 67.578 29.2755C68.8664 29.2755 70.3462 28.1171 74.5346 23.831C79.6736 18.5713 80.5529 17.1581 82.4988 11.0291C82.6901 10.4264 83.1162 10.7955 83.8414 12.1928C85.2905 14.9851 85.2199 19.5543 83.6819 22.5126C82.9891 23.8445 75.1037 32.199 65.4591 41.8184L48.4576 58.7763L46.0326 56.1453C44.6982 54.698 42.8671 52.0993 41.9631 50.3706C40.5216 47.6154 40.3174 46.5742 40.3074 41.9302C40.2891 33.3026 40.7094 32.5981 53.7755 19.3448C66.1471 6.79597 67.7917 5.64233 72.963 5.87836C76.2003 6.02609 76.2003 6.02609 76.3963 8.08617ZM107.982 39.6553C109.024 41.849 109.144 46.4688 108.209 48.2964C107.847 49.0033 106.601 50.5755 105.441 51.7891C103.792 53.5137 102.882 53.9964 101.28 53.9964C99.4173 53.9964 98.3596 53.1317 89.7932 44.6118L80.3575 35.2273L84.3264 31.1166C86.5095 28.8558 88.8462 25.7598 89.5195 24.2371L90.7444 21.469L98.9211 29.6298C103.418 34.1184 107.496 38.6294 107.982 39.6553ZM58.3659 31.7476C56.8038 33.3097 58.1894 36.9272 60.3501 36.9272C61.2365 36.9272 63.5456 34.8954 63.5456 34.1155C63.5456 33.8636 63.1329 33.069 62.6291 32.3497C61.6326 30.9265 59.4896 30.6239 58.3659 31.7476ZM97.2807 59.2937C98.1536 59.2937 98.2725 60.1095 98.2725 66.0919C98.2725 75.9809 98.1848 76.0992 85.4942 83.3536C79.3104 86.8886 76.5817 88.1347 75.0231 88.1347C73.4645 88.1347 70.7358 86.8886 64.5521 83.3536C52.4094 76.4123 51.7737 75.6636 51.7737 68.3038V63.7181L63.9741 51.5078L76.1738 39.2974L86.2311 49.2959C91.7627 54.7945 96.7351 59.2937 97.2807 59.2937ZM25.4831 56.12C19.7502 62.199 19.6678 68.4392 25.2288 75.414C27.3218 78.0392 27.6703 81.3482 26.1052 83.7367C24.333 86.4413 26.3371 89.4031 29.3024 88.4625C31.1906 87.8628 32.9388 83.9039 32.9388 80.2264C32.9388 76.6036 32.14 74.6265 29.024 70.5393C26.3595 67.0437 26.3813 64.6487 29.1129 60.807C31.5097 57.4355 31.6704 56.1771 29.8645 54.9128C28.0434 53.6373 27.748 53.7185 25.4831 56.12ZM142.543 56.1942C138.581 60.3949 137.284 65.7382 139.146 70.1926C139.613 71.3104 140.937 73.4587 142.089 74.9673C144.408 78.0038 144.893 81.5542 143.281 83.6855C142.103 85.2429 142.196 86.5755 143.571 87.8192C146.498 90.4685 150.069 86.2736 150.069 80.1828C150.069 76.6071 149.259 74.6118 146.154 70.5393C143.462 67.0084 143.486 64.4962 146.243 60.8852C148.629 57.7592 148.827 56.1953 146.994 54.9128C145.167 53.6326 144.881 53.715 142.543 56.1942ZM3.58862 68.4663C0.642124 71.8136 -0.224872 74.3457 0.0894362 78.6896C0.298386 81.5737 0.738655 82.6355 3.09891 85.9428C6.12074 90.1777 6.52098 92.2184 4.93296 95.2902C3.72046 97.6346 4.26314 99.7776 6.19078 100.261C10.2115 101.271 13.2751 92.9258 10.9378 87.3313C10.491 86.2624 9.1667 84.1317 7.99482 82.596C4.92825 78.5789 5.08541 75.6866 8.59989 71.4617C10.2621 69.4628 10.3545 68.0519 8.90714 66.7423C7.21964 65.2149 6.14311 65.5645 3.58862 68.4663ZM120.944 68.1873C115.618 74.0838 115.707 80.3341 121.217 87.2459C122.789 89.2177 123.048 89.9735 122.832 91.9547C122.69 93.2531 122.218 95.1625 121.783 96.1984C121.077 97.8771 121.11 98.2132 122.084 99.2885C123.5 100.853 124.842 100.816 126.383 99.1708C128.078 97.3615 128.879 95.0289 128.879 91.9035C128.879 88.6768 127.825 86.0523 125.087 82.4671C122.281 78.7926 122.274 76.4058 125.053 72.4952C127.388 69.2115 127.573 68.132 126.037 66.7423C124.388 65.2502 123.325 65.5522 120.944 68.1873ZM69.4715 72.4381C68.3626 73.547 68.7976 75.653 70.3938 76.9085C73.7988 79.5872 81.2033 77.8226 81.2033 74.3322C81.2033 73.5859 80.8725 72.7171 80.4676 72.4016C79.4682 71.6229 70.2561 71.6535 69.4715 72.4381ZM75.0231 94.1048C77.0267 94.1048 79.0055 93.6645 80.5559 92.8735L82.9691 91.6421V95.558C82.9691 102.587 83.4164 102.945 99.4497 108.744C104.144 110.442 109.309 112.488 110.927 113.291C114.681 115.153 118.961 119.657 121.044 123.935C122.543 127.013 122.688 127.936 122.887 135.664L123.104 144.051H116.868H110.633V135.948C110.633 126.572 110.072 124.893 105.964 121.982C103.517 120.247 103.337 120.215 94.8345 120.008C86.8932 119.814 86.0745 119.893 84.7396 120.973C83.4794 121.994 83.3652 122.373 83.8767 123.83L84.4659 125.51L92.9875 125.818C97.6751 125.986 101.981 126.348 102.556 126.622C104.397 127.499 104.747 129.1 104.747 136.655V144.051H75.0231H45.2992V136.742C45.2992 132.722 45.464 129.004 45.6647 128.48C46.454 126.423 49.0762 125.805 56.9998 125.805C63.1594 125.805 64.8175 125.626 65.5638 124.88C66.8175 123.626 66.7263 122.511 65.2489 121.033C64.0771 119.862 63.5344 119.806 55.39 120.028C45.8207 120.289 44.1303 120.797 41.5369 124.197C39.5392 126.817 38.8559 130.241 38.8388 137.724L38.8247 144.051H32.8834H26.9422L27.1588 135.664C27.3577 127.956 27.5061 127.008 28.9875 123.966C31.1471 119.532 34.5168 115.82 38.2037 113.813C39.873 112.904 45.8919 110.459 51.5795 108.38C57.267 106.3 62.6474 104.169 63.5361 103.644C66.1071 102.126 67.0771 99.9048 67.0771 95.5362V91.6421L69.4903 92.8735C71.0407 93.6645 73.0195 94.1048 75.0231 94.1048ZM73.5516 121.096C72.1343 122.513 72.1113 122.813 73.2909 124.496C74.2874 125.919 76.4304 126.222 77.5541 125.098C78.6777 123.975 78.3751 121.832 76.9519 120.835C75.2685 119.656 74.969 119.679 73.5516 121.096Z" fill="#F7B512"/>
</g>
<defs>
<clipPath id="clip0_1_1268">
<rect width="150" height="150" fill="white"/>
</clipPath>
</defs>
</svg>
