<svg width="60" height="60" viewBox="0 0 60 60" fill="none" xmlns="http://www.w3.org/2000/svg">
<path d="M0 30C0 13.4315 13.4315 0 30 0C46.5685 0 60 13.4315 60 30C60 46.5685 46.5685 60 30 60C13.4315 60 0 46.5685 0 30Z" fill="#F79633"/>
<path d="M46.9 39.4L44.7 32.9C45.9 30.8 46.5 28.5 46.5 26.2C46.5 18.7 40.4 12.5 32.8 12.5C27.5 12.5 22.6 15.6 20.4 20.5C16.2 22.8 13.4 27.3 13.4 32.4C13.4 34.8 14 37.1 15.2 39.1L13 45.8C13 46 13 46.2 13.2 46.3C13.3 46.4 13.5 46.5 13.6 46.5H13.7L20.9 44.6C22.8 45.6 24.9 46.1 27.1 46.1C32.5 46.1 37.1 43 39.3 38.5L46.2 40.3H46.3C46.6 40.3 46.9 40 46.9 39.7C47 39.6 47 39.5 46.9 39.4ZM27.1 44.9C25.6 44.9 24.2 44.6 22.8 44.1C21.8 43.7 21.5 43.5 21.3 43.4C21.3 43.4 21.1 43.3 20.8 43.4L14.4 45.1L16.4 39.2C16.5 39 16.4 38.9 16.3 38.7C15.2 36.8 14.5 34.6 14.5 32.3C14.5 27.4 17.3 23.1 21.4 21.1C21.5 21.1 21.5 21 21.6 21C21.7 20.9 21.8 20.9 22 20.8C22.1 20.8 22.2 20.7 22.3 20.7C22.4 20.7 22.5 20.6 22.6 20.6C22.8 20.5 22.9 20.5 23.1 20.4C23.2 20.4 23.2 20.4 23.3 20.3C23.5 20.2 23.8 20.2 24 20.1C24.2 20 24.4 20 24.7 20H24.8C25 20 25.2 19.9 25.4 19.9H25.6C25.8 19.9 26 19.9 26.1 19.8H27C33.9 19.8 39.5 25.4 39.5 32.3V34.3C39.5 34.4 39.5 34.5 39.4 34.7C39.4 34.8 39.4 34.9 39.3 35C39.3 35.1 39.2 35.2 39.2 35.3C39.2 35.4 39.2 35.5 39.1 35.6C39.1 35.7 39 35.8 39 35.9C39 36 38.9 36.1 38.9 36.2C38.9 36.3 38.8 36.4 38.8 36.5C38.8 36.6 38.7 36.7 38.7 36.9C38.7 37 38.6 37.1 38.6 37.1C38.6 37.2 38.5 37.3 38.5 37.5C36.6 41.8 32.2 44.9 27.1 44.9ZM39.8 37.4C40 37 40.1 36.6 40.2 36.3C40.2 36.2 40.2 36.2 40.3 36.1C40.4 35.7 40.5 35.4 40.6 35V34.8C40.7 34.4 40.7 34.1 40.8 33.7V33.6C40.8 33.2 40.9 32.8 40.9 32.4C40.9 24.9 34.8 18.7 27.2 18.7C26.8 18.7 26.4 18.7 26 18.8H25.9C25.5 18.8 25.1 18.9 24.7 19H24.6C24.2 19.1 23.8 19.2 23.5 19.3H23.4C23 19.4 22.7 19.5 22.4 19.6H22.3C24.6 15.9 28.6 13.6 33 13.6C39.9 13.6 45.5 19.2 45.5 26.1C45.5 28.3 44.9 30.6 43.7 32.5C43.6 32.6 43.6 32.8 43.6 33L45.6 38.9L39.8 37.4Z" fill="white" stroke="white" stroke-width="0.25" stroke-miterlimit="10"/>
<path d="M23 36.5C23.2652 36.5 23.5196 36.3946 23.7071 36.2071C23.8946 36.0196 24 35.7652 24 35.5C24 35.2348 23.8946 34.9804 23.7071 34.7929C23.5196 34.6054 23.2652 34.5 23 34.5C22.7348 34.5 22.4804 34.6054 22.2929 34.7929C22.1054 34.9804 22 35.2348 22 35.5C22 35.7652 22.1054 36.0196 22.2929 36.2071C22.4804 36.3946 22.7348 36.5 23 36.5ZM27.5 36.5C27.7652 36.5 28.0196 36.3946 28.2071 36.2071C28.3946 36.0196 28.5 35.7652 28.5 35.5C28.5 35.2348 28.3946 34.9804 28.2071 34.7929C28.0196 34.6054 27.7652 34.5 27.5 34.5C27.2348 34.5 26.9804 34.6054 26.7929 34.7929C26.6054 34.9804 26.5 35.2348 26.5 35.5C26.5 35.7652 26.6054 36.0196 26.7929 36.2071C26.9804 36.3946 27.2348 36.5 27.5 36.5ZM32 36.5C32.2652 36.5 32.5196 36.3946 32.7071 36.2071C32.8946 36.0196 33 35.7652 33 35.5C33 35.2348 32.8946 34.9804 32.7071 34.7929C32.5196 34.6054 32.2652 34.5 32 34.5C31.7348 34.5 31.4804 34.6054 31.2929 34.7929C31.1054 34.9804 31 35.2348 31 35.5C31 35.7652 31.1054 36.0196 31.2929 36.2071C31.4804 36.3946 31.7348 36.5 32 36.5Z" fill="white"/>
<path d="M36.6 28C34.8 24.8 31.5 22.5 27.9 22.1C27.6 22.1 27.3 22.3 27.3 22.6C27.3 22.9 27.5 23.2 27.8 23.2C31.1 23.6 34.1 25.6 35.7 28.5C35.8 28.7 36 28.8 36.2 28.8C36.3 28.8 36.4 28.8 36.5 28.7C36.6 28.7 36.7 28.3 36.6 28Z" fill="white" stroke="white" stroke-width="0.1" stroke-miterlimit="10"/>
</svg>
