<svg xmlns="http://www.w3.org/2000/svg" width="126" height="134" viewBox="0 0 126 134" fill="none">
  <path d="M73.4167 12.75C67.6729 12.75 63 17.4229 63 23.1667C63 28.9104 67.6729 33.5833 73.4167 33.5833C79.1604 33.5833 83.8333 28.9104 83.8333 23.1667C83.8333 17.4229 79.1604 12.75 73.4167 12.75ZM73.4167 29.4167C69.9708 29.4167 67.1667 26.6125 67.1667 23.1667C67.1667 19.7208 69.9708 16.9167 73.4167 16.9167C76.8625 16.9167 79.6667 19.7208 79.6667 23.1667C79.6667 26.6125 76.8625 29.4167 73.4167 29.4167Z" fill="#F7B512"/>
  <path d="M32.5291 92.0709C31.452 91.6397 30.25 92.1584 29.8166 93.2188C29.777 93.3147 25.7916 102.817 14.4229 106.606C13.3333 106.971 12.7416 108.15 13.1062 109.242C13.3979 110.115 14.2104 110.667 15.0833 110.667C15.3 110.667 15.5229 110.631 15.7416 110.558C29.0041 106.138 33.4979 95.2355 33.6833 94.773C34.1104 93.7084 33.5937 92.5022 32.5291 92.0709Z" fill="#F7B512"/>
  <path d="M97.0614 30.9569C106.124 47.4096 120.895 77.5462 121.323 105.279C116.36 107.952 94.4604 119 71.3333 119C53.5104 119 39.35 109.071 39.2083 108.971C38.6896 108.602 38.0229 108.49 37.4146 108.669L97.0614 30.9569ZM97.0614 30.9569C97.2783 30.2986 97.4685 29.6283 97.6309 28.9471L95.6854 28.4833L93.9416 29.4627C94.2456 30.0039 94.558 30.5635 94.878 31.1409C93.7727 34.1143 92.0685 36.797 89.9062 39.0417C90.0125 40.0146 90.0833 40.9688 90.0833 41.9167V77.3333C90.0833 84.5997 93.5001 88.2143 93.6496 88.3725L93.65 88.3729C94.4438 89.1958 94.4354 90.5104 93.6208 91.3146L97.0614 30.9569ZM94.2336 21.2125L94.2743 21.649L94.4938 22.0285C98.255 28.531 105.518 41.18 111.841 56.4783C118.175 71.8026 123.5 89.6316 123.5 106.5C123.5 106.514 123.496 106.528 123.488 106.542C123.485 106.547 123.482 106.552 123.479 106.556C123.473 106.562 123.467 106.567 123.461 106.571C122.46 107.154 98.0966 121.167 71.3333 121.167C56.7383 121.167 44.7597 114.942 40.0319 112.079L38.0147 110.857L37.1389 113.047L29.7475 131.526C29.7473 131.527 29.7472 131.527 29.747 131.528C29.7316 131.564 29.6985 131.583 29.6667 131.583H2.58333C2.53712 131.583 2.5 131.547 2.5 131.5V64.8333C2.5 64.8085 2.51016 64.789 2.52086 64.7784L2.52463 64.7746C2.51743 64.7818 8.78736 58.5 23.4167 58.5C29.4456 58.5 35.137 60.613 39.7997 63.1694C44.4515 65.7197 47.9604 68.646 49.5892 70.116L50.5095 70.9466L51.6627 70.4919C54.3844 69.4188 61.1938 67.3058 69.2663 68.9195C75.6994 70.2062 81.4585 73.1557 84.8893 75.2097L87.9167 77.0222V73.4938V42.35V39.246L87.9181 39.2588C88.0197 40.1894 88.0833 41.0661 88.0833 41.9167V77.3333C88.0833 85.2918 91.8436 89.3734 92.1965 89.7468L92.2035 89.7541L92.2105 89.7614C92.229 89.7805 92.2389 89.8037 92.2386 89.8332C92.2385 89.8478 92.2356 89.8596 92.2322 89.8679C92.2295 89.8743 92.2257 89.8811 92.2176 89.8895C92.2046 89.9023 92.1943 89.9078 92.1866 89.9109C92.1776 89.9146 92.1672 89.9167 92.1562 89.9167C92.1466 89.9167 92.1381 89.9148 92.1311 89.912C92.1289 89.9111 92.1264 89.9099 92.1234 89.9082C92.1186 89.9053 92.1128 89.901 92.1059 89.8941C92.1064 89.8946 92.106 89.8943 92.1049 89.8931C92.0293 89.8138 88.3216 85.9278 87.9813 78.3849L87.9358 77.3766L87.0977 76.8142C84.7739 75.255 77.5462 70.7446 69.2316 69.0826C59.2554 67.0866 51.1135 70.8766 50.5402 71.1576L50.5401 71.1574C50.5044 71.1751 50.4645 71.1653 50.4434 71.1441C50.3166 71.0173 47.1776 67.9368 42.3143 64.8747C37.4798 61.8307 30.7244 58.6667 23.4167 58.6667C11.9532 58.6667 5.58882 62.5914 3.45655 64.2118L2.66667 64.8121V65.8042V129.417V131.417H4.66667H28.2563H29.6104L30.1133 130.159L37.9184 110.642C37.9186 110.642 37.9188 110.641 37.919 110.641C37.9314 110.612 37.9535 110.595 37.9743 110.589L37.9796 110.587C37.9851 110.586 37.9966 110.584 38.0127 110.587C38.0289 110.589 38.0415 110.595 38.0496 110.601L38.055 110.605C38.2706 110.757 52.8625 121 71.3333 121C94.9852 121 117.257 109.741 122.271 107.04L123.341 106.464L123.323 105.248C122.864 75.4996 106.271 43.2484 97.4292 27.504L94.9256 23.046L93.7399 28.0196C92.862 31.7021 91.0129 35.01 88.4659 37.6541L87.8164 38.3283L87.8563 38.6937L84.8227 40.6757C81.533 42.8251 77.6231 44.0833 73.4167 44.0833C61.8858 44.0833 52.5 34.6975 52.5 23.1667C52.5 11.6358 61.8858 2.25 73.4167 2.25C84.2867 2.25 93.2449 10.5936 94.2336 21.2125ZM73.4167 2.41667C61.9724 2.41667 52.6667 11.7247 52.6667 23.1667C52.6667 34.6086 61.9724 43.9167 73.4167 43.9167C84.861 43.9167 94.1667 34.6086 94.1667 23.1667C94.1667 11.7247 84.861 2.41667 73.4167 2.41667Z" stroke="#F7B512" stroke-width="4"/>
</svg>