<svg width="42" height="43" viewBox="0 0 42 43" fill="none" xmlns="http://www.w3.org/2000/svg">
<path fill-rule="evenodd" clip-rule="evenodd" d="M20.7547 3.51904C27.4482 3.51904 32.8619 9.02394 32.8619 15.8303C32.8619 25.0638 20.7547 38.6941 20.7547 38.6941C20.7547 38.6941 8.64746 25.0638 8.64746 15.8303C8.64746 9.02394 14.0611 3.51904 20.7547 3.51904ZM12.1059 15.8301C12.1059 20.8426 17.1563 28.5107 20.7539 33.2066C24.4206 28.4756 29.4019 20.8953 29.4019 15.8301C29.4019 10.976 25.5276 7.03636 20.7539 7.03636C15.9802 7.03636 12.1059 10.976 12.1059 15.8301ZM20.7542 20.228C18.3661 20.228 16.4302 18.2594 16.4302 15.8311C16.4302 13.4028 18.3661 11.4342 20.7542 11.4342C23.1423 11.4342 25.0782 13.4028 25.0782 15.8311C25.0782 18.2594 23.1423 20.228 20.7542 20.228Z" fill="#013D83"/>
</svg>
