<svg width="150" height="150" viewBox="0 0 150 150" fill="none" xmlns="http://www.w3.org/2000/svg">
<path d="M18.75 93.75C34.2688 93.75 45.9062 75 45.9062 75C45.9062 75 57.5437 93.75 73.0625 93.75C88.575 93.75 104.094 75 104.094 75C104.094 75 119.613 93.75 131.25 93.75M18.75 125C34.2688 125 45.9062 106.25 45.9062 106.25C45.9062 106.25 57.5437 125 73.0625 125C88.575 125 104.094 106.25 104.094 106.25C104.094 106.25 119.613 125 131.25 125M31.25 65.625L56.25 50L48.8313 40.725C48.1721 39.9002 47.6853 38.9515 47.3996 37.9352C47.1138 36.9188 47.0351 35.8553 47.168 34.8079C47.3009 33.7606 47.6427 32.7505 48.1732 31.8377C48.7037 30.9248 49.412 30.1278 50.2563 29.4937C51.8732 28.2806 53.8945 27.7351 55.9022 27.9701C57.9099 28.2051 59.7506 29.2025 61.0438 30.7563L87.5 62.5M103.125 50C107.269 50 111.243 48.3538 114.174 45.4235C117.104 42.4933 118.75 38.519 118.75 34.375C118.75 30.231 117.104 26.2567 114.174 23.3265C111.243 20.3962 107.269 18.75 103.125 18.75C98.981 18.75 95.0067 20.3962 92.0765 23.3265C89.1462 26.2567 87.5 30.231 87.5 34.375C87.5 38.519 89.1462 42.4933 92.0765 45.4235C95.0067 48.3538 98.981 50 103.125 50Z" stroke="#FAA831" stroke-width="8" stroke-linecap="round" stroke-linejoin="round"/>
</svg>
