<svg width="151" height="150" viewBox="0 0 151 150" fill="none" xmlns="http://www.w3.org/2000/svg">
<path d="M19.25 93.75C34.7688 93.75 46.4062 75 46.4062 75C46.4062 75 58.0437 93.75 73.5625 93.75C89.075 93.75 104.594 75 104.594 75C104.594 75 120.113 93.75 131.75 93.75M19.25 125C34.7688 125 46.4062 106.25 46.4062 106.25C46.4062 106.25 58.0437 125 73.5625 125C89.075 125 104.594 106.25 104.594 106.25C104.594 106.25 120.113 125 131.75 125M31.75 65.625L56.75 50L49.3313 40.725C48.6721 39.9002 48.1853 38.9515 47.8996 37.9352C47.6138 36.9188 47.5351 35.8553 47.668 34.8079C47.8009 33.7606 48.1427 32.7505 48.6732 31.8377C49.2037 30.9248 49.912 30.1278 50.7563 29.4937C52.3732 28.2806 54.3945 27.7351 56.4022 27.9701C58.4099 28.2051 60.2506 29.2025 61.5438 30.7563L88 62.5M103.625 50C107.769 50 111.743 48.3538 114.674 45.4235C117.604 42.4933 119.25 38.519 119.25 34.375C119.25 30.231 117.604 26.2567 114.674 23.3265C111.743 20.3962 107.769 18.75 103.625 18.75C99.481 18.75 95.5067 20.3962 92.5765 23.3265C89.6462 26.2567 88 30.231 88 34.375C88 38.519 89.6462 42.4933 92.5765 45.4235C95.5067 48.3538 99.481 50 103.625 50Z" stroke="#FAA831" stroke-width="6" stroke-linecap="round" stroke-linejoin="round"/>
</svg>
