<svg width="24" height="25" viewBox="0 0 24 25" fill="none" xmlns="http://www.w3.org/2000/svg">
<path d="M7.8 2.45898H16.2C19.4 2.45898 22 5.05898 22 8.25898V16.659C22 18.1972 21.3889 19.6725 20.3012 20.7602C19.2135 21.8479 17.7383 22.459 16.2 22.459H7.8C4.6 22.459 2 19.859 2 16.659V8.25898C2 6.72073 2.61107 5.24548 3.69878 4.15777C4.78649 3.07005 6.26174 2.45898 7.8 2.45898ZM7.6 4.45898C6.64522 4.45898 5.72955 4.83827 5.05442 5.5134C4.37928 6.18853 4 7.10421 4 8.05898V16.859C4 18.849 5.61 20.459 7.6 20.459H16.4C17.3548 20.459 18.2705 20.0797 18.9456 19.4046C19.6207 18.7294 20 17.8138 20 16.859V8.05898C20 6.06898 18.39 4.45898 16.4 4.45898H7.6ZM17.25 5.95898C17.5815 5.95898 17.8995 6.09068 18.1339 6.3251C18.3683 6.55952 18.5 6.87746 18.5 7.20898C18.5 7.5405 18.3683 7.85845 18.1339 8.09287C17.8995 8.32729 17.5815 8.45898 17.25 8.45898C16.9185 8.45898 16.6005 8.32729 16.3661 8.09287C16.1317 7.85845 16 7.5405 16 7.20898C16 6.87746 16.1317 6.55952 16.3661 6.3251C16.6005 6.09068 16.9185 5.95898 17.25 5.95898ZM12 7.45898C13.3261 7.45898 14.5979 7.98577 15.5355 8.92345C16.4732 9.86113 17 11.1329 17 12.459C17 13.7851 16.4732 15.0568 15.5355 15.9945C14.5979 16.9322 13.3261 17.459 12 17.459C10.6739 17.459 9.40215 16.9322 8.46447 15.9945C7.52678 15.0568 7 13.7851 7 12.459C7 11.1329 7.52678 9.86113 8.46447 8.92345C9.40215 7.98577 10.6739 7.45898 12 7.45898ZM12 9.45898C11.2044 9.45898 10.4413 9.77505 9.87868 10.3377C9.31607 10.9003 9 11.6633 9 12.459C9 13.2546 9.31607 14.0177 9.87868 14.5803C10.4413 15.1429 11.2044 15.459 12 15.459C12.7956 15.459 13.5587 15.1429 14.1213 14.5803C14.6839 14.0177 15 13.2546 15 12.459C15 11.6633 14.6839 10.9003 14.1213 10.3377C13.5587 9.77505 12.7956 9.45898 12 9.45898Z" fill="#3A86FF"/>
</svg>
