<svg width="129" height="49" viewBox="0 0 129 49" fill="none" xmlns="http://www.w3.org/2000/svg">
<path d="M56.428 7.02686V3.39686L56.65 3.61886H55.09V2.82686H58.732V3.61886H57.172L57.388 3.39686V7.02686H56.428ZM59.3423 7.02686V2.82686H61.1603C61.5363 2.82686 61.8603 2.88886 62.1323 3.01286C62.4043 3.13286 62.6143 3.30686 62.7623 3.53486C62.9103 3.76286 62.9843 4.03486 62.9843 4.35086C62.9843 4.66286 62.9103 4.93286 62.7623 5.16086C62.6143 5.38886 62.4043 5.56486 62.1323 5.68886C61.8603 5.80886 61.5363 5.86886 61.1603 5.86886H59.8823L60.3143 5.43086V7.02686H59.3423ZM60.3143 5.53886L59.8823 5.07686H61.1063C61.4063 5.07686 61.6303 5.01286 61.7783 4.88486C61.9263 4.75686 62.0003 4.57886 62.0003 4.35086C62.0003 4.11886 61.9263 3.93886 61.7783 3.81086C61.6303 3.68286 61.4063 3.61886 61.1063 3.61886H59.8823L60.3143 3.15686V5.53886ZM63.6255 7.02686V2.82686H64.5915V5.56286L66.5955 2.82686H67.5075V7.02686H66.5475V4.29686L64.5435 7.02686H63.6255ZM68.0793 7.02686L69.9513 2.82686H70.9113L72.7893 7.02686H71.7693L70.2333 3.31886H70.6173L69.0753 7.02686H68.0793ZM69.0153 6.12686L69.2733 5.38886H71.4333L71.6973 6.12686H69.0153ZM74.0413 7.02686V3.39686L74.2633 3.61886H72.7033V2.82686H76.3453V3.61886H74.7853L75.0013 3.39686V7.02686H74.0413ZM76.7691 7.09286C76.6971 7.09286 76.6211 7.08686 76.5411 7.07486C76.4651 7.06286 76.3811 7.04686 76.2891 7.02686L76.3491 6.20486C76.4051 6.22086 76.4631 6.22886 76.5231 6.22886C76.6871 6.22886 76.8151 6.16286 76.9071 6.03086C76.9991 5.89486 77.0651 5.70086 77.1051 5.44886C77.1451 5.19686 77.1711 4.89086 77.1831 4.53086L77.2431 2.82686H80.4711V7.02686H79.5111V3.39686L79.7331 3.61886H77.8791L78.0771 3.38486L78.0411 4.49486C78.0291 4.90686 78.0011 5.27286 77.9571 5.59286C77.9131 5.91286 77.8451 6.18486 77.7531 6.40886C77.6611 6.63286 77.5351 6.80286 77.3751 6.91886C77.2151 7.03486 77.0131 7.09286 76.7691 7.09286ZM83.53 7.09886C83.198 7.09886 82.89 7.04486 82.606 6.93686C82.326 6.82886 82.082 6.67686 81.874 6.48086C81.67 6.28486 81.51 6.05486 81.394 5.79086C81.282 5.52686 81.226 5.23886 81.226 4.92686C81.226 4.61486 81.282 4.32686 81.394 4.06286C81.51 3.79886 81.672 3.56886 81.88 3.37286C82.088 3.17686 82.332 3.02486 82.612 2.91686C82.892 2.80886 83.196 2.75486 83.524 2.75486C83.856 2.75486 84.16 2.80886 84.436 2.91686C84.716 3.02486 84.958 3.17686 85.162 3.37286C85.37 3.56886 85.532 3.79886 85.648 4.06286C85.764 4.32286 85.822 4.61086 85.822 4.92686C85.822 5.23886 85.764 5.52886 85.648 5.79686C85.532 6.06086 85.37 6.29086 85.162 6.48686C84.958 6.67886 84.716 6.82886 84.436 6.93686C84.16 7.04486 83.858 7.09886 83.53 7.09886ZM83.524 6.27086C83.712 6.27086 83.884 6.23886 84.04 6.17486C84.2 6.11086 84.34 6.01886 84.46 5.89886C84.58 5.77886 84.672 5.63686 84.736 5.47286C84.804 5.30886 84.838 5.12686 84.838 4.92686C84.838 4.72686 84.804 4.54486 84.736 4.38086C84.672 4.21686 84.58 4.07486 84.46 3.95486C84.344 3.83486 84.206 3.74286 84.046 3.67886C83.886 3.61486 83.712 3.58286 83.524 3.58286C83.336 3.58286 83.162 3.61486 83.002 3.67886C82.846 3.74286 82.708 3.83486 82.588 3.95486C82.468 4.07486 82.374 4.21686 82.306 4.38086C82.242 4.54486 82.21 4.72686 82.21 4.92686C82.21 5.12286 82.242 5.30486 82.306 5.47286C82.374 5.63686 82.466 5.77886 82.582 5.89886C82.702 6.01886 82.842 6.11086 83.002 6.17486C83.162 6.23886 83.336 6.27086 83.524 6.27086ZM89.4508 2.82686H90.4228V7.02686H89.4508V2.82686ZM87.5428 7.02686H86.5708V2.82686H87.5428V7.02686ZM89.5228 5.30486H87.4708V4.48286H89.5228V5.30486ZM55.522 14.0269V9.82686H56.488V13.2349H58.36V9.82686H59.326V14.0269H55.522ZM59.032 14.9149V13.7989L59.242 14.0269H58.36V13.2349H59.926V14.9149H59.032ZM61.4609 11.5189H63.4829V12.2749H61.4609V11.5189ZM61.5329 13.2469H63.8189V14.0269H60.5669V9.82686H63.7409V10.6069H61.5329V13.2469ZM67.484 9.82686H68.456V14.0269H67.484V9.82686ZM65.576 14.0269H64.604V9.82686H65.576V14.0269ZM67.556 12.3049H65.504V11.4829H67.556V12.3049ZM70.4143 14.0269V10.3969L70.6363 10.6189H69.0763V9.82686H72.7183V10.6189H71.1583L71.3743 10.3969V14.0269H70.4143ZM73.3286 14.0269V9.82686H75.1466C75.5226 9.82686 75.8466 9.88886 76.1186 10.0129C76.3906 10.1329 76.6006 10.3069 76.7486 10.5349C76.8966 10.7629 76.9706 11.0349 76.9706 11.3509C76.9706 11.6629 76.8966 11.9329 76.7486 12.1609C76.6006 12.3889 76.3906 12.5649 76.1186 12.6889C75.8466 12.8089 75.5226 12.8689 75.1466 12.8689H73.8686L74.3006 12.4309V14.0269H73.3286ZM74.3006 12.5389L73.8686 12.0769H75.0926C75.3926 12.0769 75.6166 12.0129 75.7646 11.8849C75.9126 11.7569 75.9866 11.5789 75.9866 11.3509C75.9866 11.1189 75.9126 10.9389 75.7646 10.8109C75.6166 10.6829 75.3926 10.6189 75.0926 10.6189H73.8686L74.3006 10.1569V12.5389Z" fill="#013D83"/>
<path d="M57.736 30.0163V23.2003H55.048V21.6163H62.368V23.2003H59.68V30.0163H57.736ZM63.414 30.0163V21.6163H67.05C67.802 21.6163 68.45 21.7403 68.994 21.9883C69.538 22.2283 69.958 22.5763 70.254 23.0323C70.55 23.4883 70.698 24.0323 70.698 24.6643C70.698 25.2883 70.55 25.8283 70.254 26.2843C69.958 26.7323 69.538 27.0763 68.994 27.3163C68.45 27.5563 67.802 27.6763 67.05 27.6763H64.494L65.358 26.8243V30.0163H63.414ZM68.754 30.0163L66.654 26.9683H68.73L70.854 30.0163H68.754ZM65.358 27.0403L64.494 26.1283H66.942C67.542 26.1283 67.99 26.0003 68.286 25.7443C68.582 25.4803 68.73 25.1203 68.73 24.6643C68.73 24.2003 68.582 23.8403 68.286 23.5843C67.99 23.3283 67.542 23.2003 66.942 23.2003H64.494L65.358 22.2763V27.0403ZM72.2382 30.0163V21.6163H74.1822V30.0163H72.2382ZM75.0717 30.0163L78.8157 21.6163H80.7357L84.4917 30.0163H82.4517L79.3797 22.6003H80.1477L77.0637 30.0163H75.0717ZM76.9437 28.2163L77.4597 26.7403H81.7797L82.3077 28.2163H76.9437ZM86.6813 30.0163V23.2003H83.9933V21.6163H91.3133V23.2003H88.6253V30.0163H86.6813ZM98.1193 21.6163H100.063V30.0163H98.1193V21.6163ZM94.3033 30.0163H92.3593V21.6163H94.3033V30.0163ZM98.2633 26.5723H94.1593V24.9283H98.2633V26.5723ZM102.051 30.0163V21.6163H103.995V28.4323H108.207V30.0163H102.051ZM113.232 30.1603C112.568 30.1603 111.952 30.0523 111.384 29.8363C110.824 29.6203 110.336 29.3163 109.92 28.9243C109.512 28.5323 109.192 28.0723 108.96 27.5443C108.736 27.0163 108.624 26.4403 108.624 25.8163C108.624 25.1923 108.736 24.6163 108.96 24.0883C109.192 23.5603 109.516 23.1003 109.932 22.7083C110.348 22.3163 110.836 22.0123 111.396 21.7963C111.956 21.5803 112.564 21.4723 113.22 21.4723C113.884 21.4723 114.492 21.5803 115.044 21.7963C115.604 22.0123 116.088 22.3163 116.496 22.7083C116.912 23.1003 117.236 23.5603 117.468 24.0883C117.7 24.6083 117.816 25.1843 117.816 25.8163C117.816 26.4403 117.7 27.0203 117.468 27.5563C117.236 28.0843 116.912 28.5443 116.496 28.9363C116.088 29.3203 115.604 29.6203 115.044 29.8363C114.492 30.0523 113.888 30.1603 113.232 30.1603ZM113.22 28.5043C113.596 28.5043 113.94 28.4403 114.252 28.3123C114.572 28.1843 114.852 28.0003 115.092 27.7603C115.332 27.5203 115.516 27.2363 115.644 26.9083C115.78 26.5803 115.848 26.2163 115.848 25.8163C115.848 25.4163 115.78 25.0523 115.644 24.7243C115.516 24.3963 115.332 24.1123 115.092 23.8723C114.86 23.6323 114.584 23.4483 114.264 23.3203C113.944 23.1923 113.596 23.1283 113.22 23.1283C112.844 23.1283 112.496 23.1923 112.176 23.3203C111.864 23.4483 111.588 23.6323 111.348 23.8723C111.108 24.1123 110.92 24.3963 110.784 24.7243C110.656 25.0523 110.592 25.4163 110.592 25.8163C110.592 26.2083 110.656 26.5723 110.784 26.9083C110.92 27.2363 111.104 27.5203 111.336 27.7603C111.576 28.0003 111.856 28.1843 112.176 28.3123C112.496 28.4403 112.844 28.5043 113.22 28.5043ZM119.277 30.0163V21.6163H120.885L125.841 27.6643H125.061V21.6163H126.981V30.0163H125.385L120.417 23.9683H121.197V30.0163H119.277ZM60.016 44.1603C59.368 44.1603 58.764 44.0563 58.204 43.8483C57.652 43.6323 57.172 43.3283 56.764 42.9363C56.356 42.5443 56.036 42.0843 55.804 41.5563C55.58 41.0283 55.468 40.4483 55.468 39.8163C55.468 39.1843 55.58 38.6043 55.804 38.0763C56.036 37.5483 56.356 37.0883 56.764 36.6963C57.18 36.3043 57.664 36.0043 58.216 35.7963C58.768 35.5803 59.372 35.4723 60.028 35.4723C60.756 35.4723 61.412 35.6003 61.996 35.8563C62.588 36.1043 63.084 36.4723 63.484 36.9603L62.236 38.1123C61.948 37.7843 61.628 37.5403 61.276 37.3803C60.924 37.2123 60.54 37.1283 60.124 37.1283C59.732 37.1283 59.372 37.1923 59.044 37.3203C58.716 37.4483 58.432 37.6323 58.192 37.8723C57.952 38.1123 57.764 38.3963 57.628 38.7243C57.5 39.0523 57.436 39.4163 57.436 39.8163C57.436 40.2163 57.5 40.5803 57.628 40.9083C57.764 41.2363 57.952 41.5203 58.192 41.7603C58.432 42.0003 58.716 42.1843 59.044 42.3123C59.372 42.4403 59.732 42.5043 60.124 42.5043C60.54 42.5043 60.924 42.4243 61.276 42.2643C61.628 42.0963 61.948 41.8443 62.236 41.5083L63.484 42.6603C63.084 43.1483 62.588 43.5203 61.996 43.7763C61.412 44.0323 60.752 44.1603 60.016 44.1603ZM66.5848 39.0003H70.6288V40.5123H66.5848V39.0003ZM66.7288 42.4563H71.3008V44.0163H64.7968V35.6163H71.1448V37.1763H66.7288V42.4563ZM72.8476 44.0163V35.6163H74.4556L79.4116 41.6643H78.6316V35.6163H80.5516V44.0163H78.9556L73.9876 37.9683H74.7676V44.0163H72.8476ZM84.279 44.0163V37.2003H81.591V35.6163H88.911V37.2003H86.223V44.0163H84.279ZM91.7449 39.0003H95.7889V40.5123H91.7449V39.0003ZM91.8889 42.4563H96.4609V44.0163H89.9569V35.6163H96.3049V37.1763H91.8889V42.4563ZM98.0077 44.0163V35.6163H101.644C102.396 35.6163 103.044 35.7403 103.588 35.9883C104.132 36.2283 104.552 36.5763 104.848 37.0323C105.144 37.4883 105.292 38.0323 105.292 38.6643C105.292 39.2883 105.144 39.8283 104.848 40.2843C104.552 40.7323 104.132 41.0763 103.588 41.3163C103.044 41.5563 102.396 41.6763 101.644 41.6763H99.0877L99.9517 40.8243V44.0163H98.0077ZM103.348 44.0163L101.248 40.9683H103.324L105.448 44.0163H103.348ZM99.9517 41.0403L99.0877 40.1283H101.536C102.136 40.1283 102.584 40.0003 102.88 39.7443C103.176 39.4803 103.324 39.1203 103.324 38.6643C103.324 38.2003 103.176 37.8403 102.88 37.5843C102.584 37.3283 102.136 37.2003 101.536 37.2003H99.0877L99.9517 36.2763V41.0403Z" fill="#013D83"/>
<path d="M48.136 1H25.8633L48.136 22.6655V1Z" fill="#0082C6" stroke="#0082C6" stroke-width="1.06061"/>
<path d="M48.6663 25.3076H26.3936L48.6663 46.9731V25.3076Z" fill="#0082C6" stroke="#0082C6" stroke-width="1.06061"/>
<path d="M24.2727 1H2L24.2727 22.6655V1Z" fill="#0082C6" stroke="#0082C6" stroke-width="1.06061"/>
</svg>
