<svg width="24" height="25" viewBox="0 0 24 25" fill="none" xmlns="http://www.w3.org/2000/svg">
<path fill-rule="evenodd" clip-rule="evenodd" d="M12 2.45898C15.87 2.45898 19 5.58898 19 9.45898C19 14.709 12 22.459 12 22.459C12 22.459 5 14.709 5 9.45898C5 5.58898 8.13 2.45898 12 2.45898ZM7 9.45898C7 12.309 9.92 16.669 12 19.339C14.12 16.649 17 12.339 17 9.45898C17 6.69898 14.76 4.45898 12 4.45898C9.24 4.45898 7 6.69898 7 9.45898ZM12 11.959C10.6193 11.959 9.5 10.8397 9.5 9.45898C9.5 8.07827 10.6193 6.95898 12 6.95898C13.3807 6.95898 14.5 8.07827 14.5 9.45898C14.5 10.8397 13.3807 11.959 12 11.959Z" fill="#3A86FF"/>
</svg>
