<svg width="25" height="25" viewBox="0 0 25 25" fill="none" xmlns="http://www.w3.org/2000/svg">
<path d="M20.7329 10.8728C20.7329 17.3274 14.1219 21.3039 12.748 22.0614C12.6719 22.1033 12.5864 22.1254 12.4995 22.1254C12.4126 22.1254 12.3271 22.1033 12.251 22.0614C10.8761 21.3039 4.26709 17.3274 4.26709 10.8728C4.26709 5.72727 7.35443 2.12537 12.5 2.12537C17.6456 2.12537 20.7329 5.72727 20.7329 10.8728Z" stroke="white" stroke-width="1.1732" stroke-linecap="round" stroke-linejoin="round"/>
<path d="M8.38354 10.3582C8.38354 11.4499 8.81724 12.4969 9.58923 13.2689C10.3612 14.0409 11.4082 14.4746 12.5 14.4746C13.5918 14.4746 14.6388 14.0409 15.4108 13.2689C16.1828 12.4969 16.6165 11.4499 16.6165 10.3582C16.6165 9.2664 16.1828 8.21937 15.4108 7.44738C14.6388 6.6754 13.5918 6.2417 12.5 6.2417C11.4082 6.2417 10.3612 6.6754 9.58923 7.44738C8.81724 8.21937 8.38354 9.2664 8.38354 10.3582V10.3582Z" stroke="white" stroke-width="1.1732" stroke-linecap="round" stroke-linejoin="round"/>
</svg>
