<svg width="50" height="50" viewBox="0 0 50 50" fill="none" xmlns="http://www.w3.org/2000/svg">
<path d="M19 19L31 31M31 19L19 31M49 25C49 28.1517 48.3792 31.2726 47.1731 34.1844C45.967 37.0962 44.1992 39.742 41.9706 41.9706C39.742 44.1992 37.0962 45.967 34.1844 47.1731C31.2726 48.3792 28.1517 49 25 49C21.8483 49 18.7274 48.3792 15.8156 47.1731C12.9038 45.967 10.258 44.1992 8.02944 41.9706C5.80083 39.742 4.033 37.0962 2.82689 34.1844C1.62078 31.2726 1 28.1517 1 25C1 18.6348 3.52856 12.5303 8.02944 8.02944C12.5303 3.52856 18.6348 1 25 1C31.3652 1 37.4697 3.52856 41.9706 8.02944C46.4714 12.5303 49 18.6348 49 25Z" stroke="black" stroke-width="2" stroke-linecap="round" stroke-linejoin="round"/>
</svg>
