<svg width="25" height="25" viewBox="0 0 25 25" fill="none" xmlns="http://www.w3.org/2000/svg">
<path d="M15.2019 21.469L15.2128 21.4767C16.1573 22.078 17.2786 22.3392 18.3916 22.2169C19.5045 22.0947 20.5425 21.5964 21.3339 20.8044L22.0215 20.1169C22.1738 19.9646 22.2947 19.7839 22.3772 19.5849C22.4596 19.3859 22.5021 19.1726 22.5021 18.9572C22.5021 18.7418 22.4596 18.5285 22.3772 18.3295C22.2947 18.1305 22.1738 17.9497 22.0215 17.7974L19.1216 14.8998C18.9693 14.7474 18.7885 14.6265 18.5895 14.5441C18.3906 14.4616 18.1773 14.4192 17.9619 14.4192C17.7465 14.4192 17.5332 14.4616 17.3342 14.5441C17.1352 14.6265 16.9544 14.7474 16.8021 14.8998C16.4947 15.2071 16.0777 15.3798 15.6429 15.3798C15.2082 15.3798 14.7912 15.2071 14.4838 14.8998L9.84701 10.2619C9.53964 9.95445 9.36696 9.53749 9.36696 9.10273C9.36696 8.66797 9.53964 8.25101 9.84701 7.94354C9.99937 7.79128 10.1202 7.61049 10.2027 7.41149C10.2852 7.2125 10.3276 6.99921 10.3276 6.78381C10.3276 6.56841 10.2852 6.35512 10.2027 6.15613C10.1202 5.95713 9.99937 5.77634 9.84701 5.62408L6.94823 2.72639C6.64076 2.41901 6.2238 2.24634 5.78904 2.24634C5.35428 2.24634 4.93732 2.41901 4.62986 2.72639L3.94123 3.41392C3.14941 4.20549 2.65134 5.24351 2.52931 6.35646C2.40728 7.46942 2.6686 8.5907 3.27009 9.53503L3.27665 9.54596C6.45327 14.2459 10.5014 18.2933 15.2019 21.469V21.469Z" stroke="white" stroke-width="1.1732" stroke-linecap="round" stroke-linejoin="round"/>
</svg>
