<svg width="24" height="25" viewBox="0 0 24 25" fill="none" xmlns="http://www.w3.org/2000/svg">
<path fill-rule="evenodd" clip-rule="evenodd" d="M6.54 5.45898C6.6 6.34898 6.75 7.21898 6.99 8.04898L5.79 9.24898C5.38 8.04898 5.12 6.77898 5.03 5.45898H6.54ZM16.4 17.479C17.25 17.719 18.12 17.869 19 17.929V19.419C17.68 19.329 16.41 19.069 15.2 18.669L16.4 17.479ZM7.5 3.45898H4C3.45 3.45898 3 3.90898 3 4.45898C3 13.849 10.61 21.459 20 21.459C20.55 21.459 21 21.009 21 20.459V16.969C21 16.419 20.55 15.969 20 15.969C18.76 15.969 17.55 15.769 16.43 15.399C16.33 15.359 16.22 15.349 16.12 15.349C15.86 15.349 15.61 15.449 15.41 15.639L13.21 17.839C10.38 16.389 8.06 14.079 6.62 11.249L8.82 9.04898C9.1 8.76898 9.18 8.37898 9.07 8.02898C8.7 6.90898 8.5 5.70898 8.5 4.45898C8.5 3.90898 8.05 3.45898 7.5 3.45898Z" fill="#3A86FF"/>
</svg>
