<svg width="150" height="150" viewBox="0 0 150 150" fill="none" xmlns="http://www.w3.org/2000/svg">
<path d="M93.75 37.5C100.654 37.5 106.25 31.9036 106.25 25C106.25 18.0964 100.654 12.5 93.75 12.5C86.8464 12.5 81.25 18.0964 81.25 25C81.25 31.9036 86.8464 37.5 93.75 37.5Z" stroke="#FAA831" stroke-width="8"/>
<path d="M68.75 99.9999V93.9124C68.75 93.1749 68.75 92.8061 68.7375 92.4499C68.6423 89.9418 68.0444 87.4783 66.9794 85.2055C65.9144 82.9327 64.4039 80.8968 62.5375 79.2187C62.1729 78.8948 61.802 78.5781 61.425 78.2687C60.8866 77.8345 60.3614 77.3843 59.85 76.9187C57.5438 74.6987 56.1772 71.6785 56.0318 68.4807C55.8865 65.2829 56.9735 62.1512 59.0688 59.7312C59.3625 59.3874 59.7438 59.0061 60.5125 58.2374L62.575 56.1749C64.6382 54.107 65.8687 51.3525 66.0322 48.4359C66.1957 45.5194 65.2807 42.6446 63.4616 40.3591C61.6424 38.0735 59.0462 36.537 56.1673 36.042C53.2884 35.547 50.328 36.1282 47.85 37.6749L28.125 49.9999M18.75 96.8749H21.1187C29.6062 96.8749 37.7437 93.4999 43.75 87.4999M78.125 62.4999C84.2104 64.5286 90.7896 64.5286 96.875 62.4999" stroke="#FAA831" stroke-width="8" stroke-linecap="round"/>
<path d="M121.806 137.5H19.2938C17.5916 137.503 15.9503 136.868 14.6944 135.719C13.4385 134.57 12.6596 132.992 12.5119 131.296C12.3642 129.6 12.8584 127.911 13.8967 126.562C14.9349 125.213 16.4417 124.303 18.1188 124.013L119.1 106.344C121.242 105.972 123.437 106.049 125.547 106.57C127.657 107.092 129.636 108.045 131.358 109.371C133.08 110.697 134.508 112.367 135.552 114.273C136.595 116.18 137.231 118.283 137.419 120.448C137.607 122.614 137.343 124.794 136.644 126.853C135.946 128.911 134.827 130.801 133.359 132.404C131.891 134.007 130.106 135.288 128.118 136.165C126.129 137.042 123.98 137.497 121.806 137.5Z" stroke="#FAA831" stroke-width="8" stroke-linejoin="round"/>
<path d="M138.419 48.3436C139.04 48.2416 139.633 48.0155 140.165 47.6791C140.697 47.3426 141.155 46.9025 141.513 46.3851C141.871 45.8677 142.121 45.2836 142.249 44.6675C142.376 44.0514 142.378 43.4159 142.255 42.799C142.131 42.182 141.885 41.5963 141.53 41.0765C141.176 40.5568 140.72 40.1138 140.191 39.7739C139.661 39.4339 139.069 39.2041 138.449 39.0979C137.829 38.9918 137.194 39.0116 136.581 39.1561L138.419 48.3436ZM117.137 110.069L124.144 63.3311L114.875 61.9374L107.862 108.681L117.137 110.069ZM124.144 63.3311C124.692 59.6677 126.357 56.2626 128.912 53.5804C131.466 50.8982 134.786 49.0694 138.419 48.3436L136.581 39.1561C131.059 40.2599 126.012 43.0396 122.128 47.1164C118.243 51.1932 115.711 56.3687 114.875 61.9374L124.144 63.3311Z" fill="#FAA831"/>
</svg>
