<svg width="150" height="150" viewBox="0 0 150 150" fill="none" xmlns="http://www.w3.org/2000/svg">
<path fill-rule="evenodd" clip-rule="evenodd" d="M87.5 17.1875C85.428 17.1875 83.4409 18.0106 81.9757 19.4757C80.5106 20.9409 79.6875 22.928 79.6875 25C79.6875 27.072 80.5106 29.0591 81.9757 30.5243C83.4409 31.9894 85.428 32.8125 87.5 32.8125C89.572 32.8125 91.5591 31.9894 93.0243 30.5243C94.4894 29.0591 95.3125 27.072 95.3125 25C95.3125 22.928 94.4894 20.9409 93.0243 19.4757C91.5591 18.0106 89.572 17.1875 87.5 17.1875ZM70.3125 25C70.3125 20.4416 72.1233 16.0699 75.3466 12.8466C78.5699 9.62332 82.9416 7.8125 87.5 7.8125C92.0584 7.8125 96.4301 9.62332 99.6534 12.8466C102.877 16.0699 104.688 20.4416 104.688 25C104.688 29.5584 102.877 33.9301 99.6534 37.1534C96.4301 40.3767 92.0584 42.1875 87.5 42.1875C82.9416 42.1875 78.5699 40.3767 75.3466 37.1534C72.1233 33.9301 70.3125 29.5584 70.3125 25ZM68.2437 53.1625C66.9304 52.1131 65.4079 51.3564 63.7783 50.9432C62.1487 50.53 60.4497 50.4698 58.7949 50.7665C57.1402 51.0633 55.5679 51.7102 54.1835 52.664C52.7991 53.6178 51.6345 54.8563 50.7676 56.2967C49.9008 57.7372 49.3517 59.3462 49.1572 61.0161C48.9627 62.6859 49.1273 64.3781 49.6399 65.9792C50.1524 67.5802 51.0012 69.0533 52.1294 70.2997C53.2575 71.5461 54.639 72.5371 56.1813 73.2063L75.4938 81.6375C79.4872 83.381 82.6289 86.6334 84.2331 90.6848C85.8373 94.7362 85.7737 99.2578 84.0563 103.262L79.3063 114.344C78.7881 115.441 77.8646 116.295 76.73 116.725C75.5954 117.155 74.3381 117.129 73.2226 116.651C72.107 116.174 71.2202 115.282 70.7486 114.164C70.2769 113.046 70.2573 111.789 70.6937 110.656L75.4438 99.5625C76.185 97.8329 76.212 95.8803 75.5188 94.1309C74.8256 92.3815 73.4685 90.9774 71.7438 90.225L52.4313 81.8C49.6677 80.5964 47.1929 78.8166 45.1724 76.5797C43.152 74.3427 41.6324 71.7002 40.7153 68.8288C39.7982 65.9573 39.5047 62.9232 39.8545 59.9292C40.2043 56.9353 41.1892 54.0505 42.7435 51.4678C44.2978 48.8851 46.3856 46.664 48.8673 44.953C51.349 43.2421 54.1673 42.0807 57.1339 41.5465C60.1006 41.0123 63.147 41.1177 66.0697 41.8555C68.9923 42.5934 71.7237 43.9467 74.0812 45.825L87.575 56.5687C88.5876 57.3744 89.8435 57.8129 91.1375 57.8125H115.625C116.868 57.8125 118.06 58.3064 118.94 59.1854C119.819 60.0645 120.312 61.2568 120.312 62.5C120.312 63.7432 119.819 64.9355 118.94 65.8146C118.06 66.6936 116.868 67.1875 115.625 67.1875H91.1375C87.7205 67.187 84.4046 66.0281 81.7312 63.9L68.2437 53.1625ZM37.5 98.4375C33.7704 98.4375 30.1935 99.9191 27.5563 102.556C24.9191 105.194 23.4375 108.77 23.4375 112.5C23.4375 116.23 24.9191 119.806 27.5563 122.444C30.1935 125.081 33.7704 126.562 37.5 126.562C41.2296 126.562 44.8065 125.081 47.4437 122.444C50.0809 119.806 51.5625 116.23 51.5625 112.5C51.5625 108.77 50.0809 105.194 47.4437 102.556C44.8065 99.9191 41.2296 98.4375 37.5 98.4375ZM14.0625 112.5C14.0625 106.284 16.5318 100.323 20.9272 95.9272C25.3226 91.5318 31.284 89.0625 37.5 89.0625C43.716 89.0625 49.6774 91.5318 54.0728 95.9272C58.4682 100.323 60.9375 106.284 60.9375 112.5C60.9375 118.716 58.4682 124.677 54.0728 129.073C49.6774 133.468 43.716 135.938 37.5 135.938C31.284 135.938 25.3226 133.468 20.9272 129.073C16.5318 124.677 14.0625 118.716 14.0625 112.5ZM112.5 98.4375C108.77 98.4375 105.194 99.9191 102.556 102.556C99.9191 105.194 98.4375 108.77 98.4375 112.5C98.4375 116.23 99.9191 119.806 102.556 122.444C105.194 125.081 108.77 126.562 112.5 126.562C116.23 126.562 119.806 125.081 122.444 122.444C125.081 119.806 126.562 116.23 126.562 112.5C126.562 108.77 125.081 105.194 122.444 102.556C119.806 99.9191 116.23 98.4375 112.5 98.4375ZM89.0625 112.5C89.0625 106.284 91.5318 100.323 95.9272 95.9272C100.323 91.5318 106.284 89.0625 112.5 89.0625C118.716 89.0625 124.677 91.5318 129.073 95.9272C133.468 100.323 135.938 106.284 135.938 112.5C135.938 118.716 133.468 124.677 129.073 129.073C124.677 133.468 118.716 135.938 112.5 135.938C106.284 135.938 100.323 133.468 95.9272 129.073C91.5318 124.677 89.0625 118.716 89.0625 112.5Z" fill="#FAA831"/>
</svg>
