<svg width="150" height="150" viewBox="0 0 150 150" fill="none" xmlns="http://www.w3.org/2000/svg">
<path d="M75 19.4125L71.825 22.8625C72.69 23.6575 73.822 24.0987 74.9969 24.0987C76.1717 24.0987 77.3037 23.6575 78.1688 22.8625L75 19.4125ZM66.2 51.225C61.8875 48.0813 57.2813 44.2563 53.8063 40.225C50.2188 36.0688 48.4375 32.3875 48.4375 29.4688H39.0625C39.0625 35.825 42.675 41.6813 46.7063 46.35C50.85 51.15 56.0875 55.4563 60.675 58.8L66.2 51.225ZM48.4375 29.4688C48.4375 22.85 51.6875 19.075 55.6 17.7625C59.675 16.3875 65.75 17.275 71.825 22.8625L78.1688 15.9625C70.1875 8.62502 60.65 6.17502 52.6125 8.87502C44.4063 11.6375 39.0625 19.35 39.0625 29.4688H48.4375ZM89.325 58.8C93.9125 55.4625 99.15 51.15 103.294 46.35C107.325 41.6813 110.938 35.825 110.938 29.4688H101.562C101.562 32.3875 99.7875 36.0688 96.1937 40.225C92.7188 44.2563 88.1188 48.0813 83.8063 51.225L89.325 58.8ZM110.938 29.4688C110.938 19.35 105.594 11.6375 97.3938 8.87502C89.3563 6.17502 79.8125 8.62502 71.8312 15.9625L78.175 22.8625C84.25 17.275 90.3312 16.3875 94.4062 17.7625C98.3125 19.075 101.562 22.85 101.562 29.4688H110.938ZM60.675 58.8C65.3938 62.2375 69.1375 65.1625 75 65.1625V55.7875C72.7188 55.7875 71.4688 55.0688 66.2 51.225L60.675 58.8ZM83.8 51.225C78.5312 55.0688 77.2812 55.7875 75 55.7875V65.1625C80.8625 65.1625 84.6063 62.2438 89.325 58.8L83.8 51.225Z" fill="#FAA831"/>
<path d="M31.25 127.425H45.375C51.6875 127.425 58.0813 128.088 64.225 129.35C75.1938 131.603 86.4798 131.853 97.5375 130.088C102.963 129.213 108.288 127.869 113.113 125.544C117.463 123.438 122.794 120.481 126.375 117.163C129.95 113.85 133.675 108.431 136.313 104.194C138.588 100.556 137.488 96.1001 133.9 93.3938C131.884 91.9275 129.455 91.1376 126.963 91.1376C124.47 91.1376 122.041 91.9275 120.025 93.3938L108.731 101.925C104.356 105.238 99.575 108.281 93.8813 109.188C93.1938 109.294 92.475 109.394 91.725 109.481M91.725 109.481C91.496 109.508 91.2668 109.533 91.0375 109.556M91.725 109.481C92.7254 109.211 93.6426 108.695 94.3938 107.981C95.3356 107.167 96.1046 106.171 96.6556 105.055C97.2065 103.938 97.5282 102.722 97.6016 101.479C97.675 100.236 97.4986 98.9903 97.0829 97.8164C96.6672 96.6425 96.0206 95.5638 95.1813 94.6438C94.3668 93.7397 93.4182 92.966 92.3688 92.3501C74.8875 81.9188 47.6813 89.8626 31.25 101.519M91.725 109.481C91.4991 109.531 91.2687 109.556 91.0375 109.556M91.0375 109.556C87.2682 109.935 83.4709 109.944 79.7 109.581" stroke="#FAA831" stroke-width="8" stroke-linecap="round"/>
<path d="M31.25 96.875C31.25 91.6973 27.0527 87.5 21.875 87.5C16.6973 87.5 12.5 91.6973 12.5 96.875V128.125C12.5 133.303 16.6973 137.5 21.875 137.5C27.0527 137.5 31.25 133.303 31.25 128.125V96.875Z" stroke="#FAA831" stroke-width="8"/>
</svg>
