<svg width="151" height="150" viewBox="0 0 151 150" fill="none" xmlns="http://www.w3.org/2000/svg">
<g id="solar:map-point-wave-outline">
<path id="Vector" fill-rule="evenodd" clip-rule="evenodd" d="M27.0625 53.2188C27.0625 27.8313 49.0687 7.8125 75.5 7.8125C101.931 7.8125 123.938 27.8313 123.938 53.2188C123.938 77.0312 109.169 105 85.3438 115.181C82.2308 116.505 78.8828 117.188 75.5 117.188C72.1172 117.188 68.7692 116.505 65.6562 115.181C41.8312 105 27.0625 77.0375 27.0625 53.2188ZM75.5 17.1875C53.6063 17.1875 36.4375 33.625 36.4375 53.2188C36.4375 74.0188 49.5938 98.125 69.3438 106.562C71.2914 107.387 73.3849 107.812 75.5 107.812C77.6151 107.812 79.7086 107.387 81.6562 106.562C101.406 98.125 114.562 74.0188 114.562 53.2188C114.562 33.6313 97.3938 17.1875 75.5 17.1875ZM75.5 48.4375C73.428 48.4375 71.4409 49.2606 69.9757 50.7257C68.5106 52.1909 67.6875 54.178 67.6875 56.25C67.6875 58.322 68.5106 60.3091 69.9757 61.7743C71.4409 63.2394 73.428 64.0625 75.5 64.0625C77.572 64.0625 79.5591 63.2394 81.0243 61.7743C82.4894 60.3091 83.3125 58.322 83.3125 56.25C83.3125 54.178 82.4894 52.1909 81.0243 50.7257C79.5591 49.2606 77.572 48.4375 75.5 48.4375ZM58.3125 56.25C58.3125 51.6916 60.1233 47.3199 63.3466 44.0966C66.5699 40.8733 70.9416 39.0625 75.5 39.0625C80.0584 39.0625 84.4301 40.8733 87.6534 44.0966C90.8767 47.3199 92.6875 51.6916 92.6875 56.25C92.6875 60.8084 90.8767 65.1801 87.6534 68.4034C84.4301 71.6267 80.0584 73.4375 75.5 73.4375C70.9416 73.4375 66.5699 71.6267 63.3466 68.4034C60.1233 65.1801 58.3125 60.8084 58.3125 56.25ZM22.9688 93.7312C23.8029 94.6522 24.2373 95.8668 24.1763 97.1079C24.1154 98.349 23.5641 99.5152 22.6438 100.35C19.0938 103.562 17.6875 106.637 17.6875 109.375C17.6875 114.15 22.2125 120.031 33.2313 124.987C43.8063 129.75 58.75 132.812 75.5 132.812C92.25 132.812 107.194 129.75 117.769 124.987C128.788 120.031 133.312 114.15 133.312 109.375C133.312 106.637 131.906 103.562 128.356 100.35C127.435 99.5154 126.882 98.3489 126.821 97.107C126.759 95.8652 127.194 94.6497 128.028 93.7281C128.863 92.8065 130.029 92.2542 131.271 92.1926C132.513 92.1311 133.728 92.5654 134.65 93.4C139.419 97.7188 142.688 103.131 142.688 109.375C142.688 120.137 133.219 128.312 121.619 133.537C109.575 138.956 93.2625 142.188 75.5 142.188C57.7375 142.188 41.425 138.956 29.3812 133.537C17.7812 128.312 8.3125 120.137 8.3125 109.375C8.3125 103.131 11.5812 97.7188 16.35 93.4C16.8066 92.9864 17.3402 92.6668 17.9204 92.4596C18.5005 92.2524 19.1159 92.1616 19.7312 92.1923C20.3465 92.2231 20.9497 92.3748 21.5063 92.6389C22.0629 92.903 22.5557 93.2742 22.9688 93.7312Z" fill="#FAA831"/>
</g>
</svg>
