<svg width="129" height="49" viewBox="0 0 129 49" fill="none" xmlns="http://www.w3.org/2000/svg">
<path d="M56.428 7.02686V3.39686L56.65 3.61886H55.09V2.82686H58.732V3.61886H57.172L57.388 3.39686V7.02686H56.428ZM59.3423 7.02686V2.82686H61.1603C61.5363 2.82686 61.8603 2.88886 62.1323 3.01286C62.4043 3.13286 62.6143 3.30686 62.7623 3.53486C62.9103 3.76286 62.9843 4.03486 62.9843 4.35086C62.9843 4.66286 62.9103 4.93286 62.7623 5.16086C62.6143 5.38886 62.4043 5.56486 62.1323 5.68886C61.8603 5.80886 61.5363 5.86886 61.1603 5.86886H59.8823L60.3143 5.43086V7.02686H59.3423ZM60.3143 5.53886L59.8823 5.07686H61.1063C61.4063 5.07686 61.6303 5.01286 61.7783 4.88486C61.9263 4.75686 62.0003 4.57886 62.0003 4.35086C62.0003 4.11886 61.9263 3.93886 61.7783 3.81086C61.6303 3.68286 61.4063 3.61886 61.1063 3.61886H59.8823L60.3143 3.15686V5.53886ZM63.6255 7.02686V2.82686H64.5915V5.56286L66.5955 2.82686H67.5075V7.02686H66.5475V4.29686L64.5435 7.02686H63.6255ZM68.0793 7.02686L69.9513 2.82686H70.9113L72.7893 7.02686H71.7693L70.2333 3.31886H70.6173L69.0753 7.02686H68.0793ZM69.0153 6.12686L69.2733 5.38886H71.4333L71.6973 6.12686H69.0153ZM74.0413 7.02686V3.39686L74.2633 3.61886H72.7033V2.82686H76.3453V3.61886H74.7853L75.0013 3.39686V7.02686H74.0413ZM76.7691 7.09286C76.6971 7.09286 76.6211 7.08686 76.5411 7.07486C76.4651 7.06286 76.3811 7.04686 76.2891 7.02686L76.3491 6.20486C76.4051 6.22086 76.4631 6.22886 76.5231 6.22886C76.6871 6.22886 76.8151 6.16286 76.9071 6.03086C76.9991 5.89486 77.0651 5.70086 77.1051 5.44886C77.1451 5.19686 77.1711 4.89086 77.1831 4.53086L77.2431 2.82686H80.4711V7.02686H79.5111V3.39686L79.7331 3.61886H77.8791L78.0771 3.38486L78.0411 4.49486C78.0291 4.90686 78.0011 5.27286 77.9571 5.59286C77.9131 5.91286 77.8451 6.18486 77.7531 6.40886C77.6611 6.63286 77.5351 6.80286 77.3751 6.91886C77.2151 7.03486 77.0131 7.09286 76.7691 7.09286ZM83.53 7.09886C83.198 7.09886 82.89 7.04486 82.606 6.93686C82.326 6.82886 82.082 6.67686 81.874 6.48086C81.67 6.28486 81.51 6.05486 81.394 5.79086C81.282 5.52686 81.226 5.23886 81.226 4.92686C81.226 4.61486 81.282 4.32686 81.394 4.06286C81.51 3.79886 81.672 3.56886 81.88 3.37286C82.088 3.17686 82.332 3.02486 82.612 2.91686C82.892 2.80886 83.196 2.75486 83.524 2.75486C83.856 2.75486 84.16 2.80886 84.436 2.91686C84.716 3.02486 84.958 3.17686 85.162 3.37286C85.37 3.56886 85.532 3.79886 85.648 4.06286C85.764 4.32286 85.822 4.61086 85.822 4.92686C85.822 5.23886 85.764 5.52886 85.648 5.79686C85.532 6.06086 85.37 6.29086 85.162 6.48686C84.958 6.67886 84.716 6.82886 84.436 6.93686C84.16 7.04486 83.858 7.09886 83.53 7.09886ZM83.524 6.27086C83.712 6.27086 83.884 6.23886 84.04 6.17486C84.2 6.11086 84.34 6.01886 84.46 5.89886C84.58 5.77886 84.672 5.63686 84.736 5.47286C84.804 5.30886 84.838 5.12686 84.838 4.92686C84.838 4.72686 84.804 4.54486 84.736 4.38086C84.672 4.21686 84.58 4.07486 84.46 3.95486C84.344 3.83486 84.206 3.74286 84.046 3.67886C83.886 3.61486 83.712 3.58286 83.524 3.58286C83.336 3.58286 83.162 3.61486 83.002 3.67886C82.846 3.74286 82.708 3.83486 82.588 3.95486C82.468 4.07486 82.374 4.21686 82.306 4.38086C82.242 4.54486 82.21 4.72686 82.21 4.92686C82.21 5.12286 82.242 5.30486 82.306 5.47286C82.374 5.63686 82.466 5.77886 82.582 5.89886C82.702 6.01886 82.842 6.11086 83.002 6.17486C83.162 6.23886 83.336 6.27086 83.524 6.27086ZM89.4508 2.82686H90.4228V7.02686H89.4508V2.82686ZM87.5428 7.02686H86.5708V2.82686H87.5428V7.02686ZM89.5228 5.30486H87.4708V4.48286H89.5228V5.30486ZM55.522 14.0269V9.82686H56.488V13.2349H58.36V9.82686H59.326V14.0269H55.522ZM59.032 14.9149V13.7989L59.242 14.0269H58.36V13.2349H59.926V14.9149H59.032ZM61.4609 11.5189H63.4829V12.2749H61.4609V11.5189ZM61.5329 13.2469H63.8189V14.0269H60.5669V9.82686H63.7409V10.6069H61.5329V13.2469ZM67.484 9.82686H68.456V14.0269H67.484V9.82686ZM65.576 14.0269H64.604V9.82686H65.576V14.0269ZM67.556 12.3049H65.504V11.4829H67.556V12.3049ZM70.4143 14.0269V10.3969L70.6363 10.6189H69.0763V9.82686H72.7183V10.6189H71.1583L71.3743 10.3969V14.0269H70.4143ZM73.3286 14.0269V9.82686H75.1466C75.5226 9.82686 75.8466 9.88886 76.1186 10.0129C76.3906 10.1329 76.6006 10.3069 76.7486 10.5349C76.8966 10.7629 76.9706 11.0349 76.9706 11.3509C76.9706 11.6629 76.8966 11.9329 76.7486 12.1609C76.6006 12.3889 76.3906 12.5649 76.1186 12.6889C75.8466 12.8089 75.5226 12.8689 75.1466 12.8689H73.8686L74.3006 12.4309V14.0269H73.3286ZM74.3006 12.5389L73.8686 12.0769H75.0926C75.3926 12.0769 75.6166 12.0129 75.7646 11.8849C75.9126 11.7569 75.9866 11.5789 75.9866 11.3509C75.9866 11.1189 75.9126 10.9389 75.7646 10.8109C75.6166 10.6829 75.3926 10.6189 75.0926 10.6189H73.8686L74.3006 10.1569V12.5389Z" fill="#013D83"/>
<path d="M57.736 30.0161V23.2001H55.048V21.6161H62.368V23.2001H59.68V30.0161H57.736ZM63.414 30.0161V21.6161H67.05C67.802 21.6161 68.45 21.7401 68.994 21.9881C69.538 22.2281 69.958 22.5761 70.254 23.0321C70.55 23.4881 70.698 24.0321 70.698 24.6641C70.698 25.2881 70.55 25.8281 70.254 26.2841C69.958 26.7321 69.538 27.0761 68.994 27.3161C68.45 27.5561 67.802 27.6761 67.05 27.6761H64.494L65.358 26.8241V30.0161H63.414ZM68.754 30.0161L66.654 26.9681H68.73L70.854 30.0161H68.754ZM65.358 27.0401L64.494 26.1281H66.942C67.542 26.1281 67.99 26.0001 68.286 25.7441C68.582 25.4801 68.73 25.1201 68.73 24.6641C68.73 24.2001 68.582 23.8401 68.286 23.5841C67.99 23.3281 67.542 23.2001 66.942 23.2001H64.494L65.358 22.2761V27.0401ZM72.2382 30.0161V21.6161H74.1822V30.0161H72.2382ZM75.0717 30.0161L78.8157 21.6161H80.7357L84.4917 30.0161H82.4517L79.3797 22.6001H80.1477L77.0637 30.0161H75.0717ZM76.9437 28.2161L77.4597 26.7401H81.7797L82.3077 28.2161H76.9437ZM86.6813 30.0161V23.2001H83.9933V21.6161H91.3133V23.2001H88.6253V30.0161H86.6813ZM98.1193 21.6161H100.063V30.0161H98.1193V21.6161ZM94.3033 30.0161H92.3593V21.6161H94.3033V30.0161ZM98.2633 26.5721H94.1593V24.9281H98.2633V26.5721ZM102.051 30.0161V21.6161H103.995V28.4321H108.207V30.0161H102.051ZM113.232 30.1601C112.568 30.1601 111.952 30.0521 111.384 29.8361C110.824 29.6201 110.336 29.3161 109.92 28.9241C109.512 28.5321 109.192 28.0721 108.96 27.5441C108.736 27.0161 108.624 26.4401 108.624 25.8161C108.624 25.1921 108.736 24.6161 108.96 24.0881C109.192 23.5601 109.516 23.1001 109.932 22.7081C110.348 22.3161 110.836 22.0121 111.396 21.7961C111.956 21.5801 112.564 21.4721 113.22 21.4721C113.884 21.4721 114.492 21.5801 115.044 21.7961C115.604 22.0121 116.088 22.3161 116.496 22.7081C116.912 23.1001 117.236 23.5601 117.468 24.0881C117.7 24.6081 117.816 25.1841 117.816 25.8161C117.816 26.4401 117.7 27.0201 117.468 27.5561C117.236 28.0841 116.912 28.5441 116.496 28.9361C116.088 29.3201 115.604 29.6201 115.044 29.8361C114.492 30.0521 113.888 30.1601 113.232 30.1601ZM113.22 28.5041C113.596 28.5041 113.94 28.4401 114.252 28.3121C114.572 28.1841 114.852 28.0001 115.092 27.7601C115.332 27.5201 115.516 27.2361 115.644 26.9081C115.78 26.5801 115.848 26.2161 115.848 25.8161C115.848 25.4161 115.78 25.0521 115.644 24.7241C115.516 24.3961 115.332 24.1121 115.092 23.8721C114.86 23.6321 114.584 23.4481 114.264 23.3201C113.944 23.1921 113.596 23.1281 113.22 23.1281C112.844 23.1281 112.496 23.1921 112.176 23.3201C111.864 23.4481 111.588 23.6321 111.348 23.8721C111.108 24.1121 110.92 24.3961 110.784 24.7241C110.656 25.0521 110.592 25.4161 110.592 25.8161C110.592 26.2081 110.656 26.5721 110.784 26.9081C110.92 27.2361 111.104 27.5201 111.336 27.7601C111.576 28.0001 111.856 28.1841 112.176 28.3121C112.496 28.4401 112.844 28.5041 113.22 28.5041ZM119.277 30.0161V21.6161H120.885L125.841 27.6641H125.061V21.6161H126.981V30.0161H125.385L120.417 23.9681H121.197V30.0161H119.277ZM60.016 44.1601C59.368 44.1601 58.764 44.0561 58.204 43.8481C57.652 43.6321 57.172 43.3281 56.764 42.9361C56.356 42.5441 56.036 42.0841 55.804 41.5561C55.58 41.0281 55.468 40.4481 55.468 39.8161C55.468 39.1841 55.58 38.6041 55.804 38.0761C56.036 37.5481 56.356 37.0881 56.764 36.6961C57.18 36.3041 57.664 36.0041 58.216 35.7961C58.768 35.5801 59.372 35.4721 60.028 35.4721C60.756 35.4721 61.412 35.6001 61.996 35.8561C62.588 36.1041 63.084 36.4721 63.484 36.9601L62.236 38.1121C61.948 37.7841 61.628 37.5401 61.276 37.3801C60.924 37.2121 60.54 37.1281 60.124 37.1281C59.732 37.1281 59.372 37.1921 59.044 37.3201C58.716 37.4481 58.432 37.6321 58.192 37.8721C57.952 38.1121 57.764 38.3961 57.628 38.7241C57.5 39.0521 57.436 39.4161 57.436 39.8161C57.436 40.2161 57.5 40.5801 57.628 40.9081C57.764 41.2361 57.952 41.5201 58.192 41.7601C58.432 42.0001 58.716 42.1841 59.044 42.3121C59.372 42.4401 59.732 42.5041 60.124 42.5041C60.54 42.5041 60.924 42.4241 61.276 42.2641C61.628 42.0961 61.948 41.8441 62.236 41.5081L63.484 42.6601C63.084 43.1481 62.588 43.5201 61.996 43.7761C61.412 44.0321 60.752 44.1601 60.016 44.1601ZM66.5848 39.0001H70.6288V40.5121H66.5848V39.0001ZM66.7288 42.4561H71.3008V44.0161H64.7968V35.6161H71.1448V37.1761H66.7288V42.4561ZM72.8476 44.0161V35.6161H74.4556L79.4116 41.6641H78.6316V35.6161H80.5516V44.0161H78.9556L73.9876 37.9681H74.7676V44.0161H72.8476ZM84.279 44.0161V37.2001H81.591V35.6161H88.911V37.2001H86.223V44.0161H84.279ZM91.7449 39.0001H95.7889V40.5121H91.7449V39.0001ZM91.8889 42.4561H96.4609V44.0161H89.9569V35.6161H96.3049V37.1761H91.8889V42.4561ZM98.0077 44.0161V35.6161H101.644C102.396 35.6161 103.044 35.7401 103.588 35.9881C104.132 36.2281 104.552 36.5761 104.848 37.0321C105.144 37.4881 105.292 38.0321 105.292 38.6641C105.292 39.2881 105.144 39.8281 104.848 40.2841C104.552 40.7321 104.132 41.0761 103.588 41.3161C103.044 41.5561 102.396 41.6761 101.644 41.6761H99.0877L99.9517 40.8241V44.0161H98.0077ZM103.348 44.0161L101.248 40.9681H103.324L105.448 44.0161H103.348ZM99.9517 41.0401L99.0877 40.1281H101.536C102.136 40.1281 102.584 40.0001 102.88 39.7441C103.176 39.4801 103.324 39.1201 103.324 38.6641C103.324 38.2001 103.176 37.8401 102.88 37.5841C102.584 37.3281 102.136 37.2001 101.536 37.2001H99.0877L99.9517 36.2761V41.0401Z" fill="#013D83"/>
<path d="M48.136 1H25.8633L48.136 22.6655V1Z" fill="#0082C6" stroke="#0082C6" stroke-width="1.06061"/>
<path d="M48.6663 25.3076H26.3936L48.6663 46.9731V25.3076Z" fill="#0082C6" stroke="#0082C6" stroke-width="1.06061"/>
<path d="M24.2727 1H2L24.2727 22.6655V1Z" fill="#0082C6" stroke="#0082C6" stroke-width="1.06061"/>
</svg>
