<svg width="70" height="70" viewBox="0 0 70 70" fill="none" xmlns="http://www.w3.org/2000/svg">
<path d="M26.2505 37.1875L32.813 43.75L43.7505 28.4375M61.2505 35C61.2505 38.4472 60.5715 41.8606 59.2523 45.0454C57.9331 48.2302 55.9996 51.124 53.562 53.5616C51.1245 55.9991 48.2307 57.9327 45.0459 59.2518C41.8611 60.571 38.4477 61.25 35.0005 61.25C31.5533 61.25 28.1398 60.571 24.955 59.2518C21.7703 57.9327 18.8765 55.9991 16.4389 53.5616C14.0014 51.124 12.0678 48.2302 10.7487 45.0454C9.42946 41.8606 8.75049 38.4472 8.75049 35C8.75049 28.0381 11.5161 21.3613 16.4389 16.4384C21.3618 11.5156 28.0386 8.75 35.0005 8.75C41.9624 8.75 48.6392 11.5156 53.562 16.4384C58.4849 21.3613 61.2505 28.0381 61.2505 35Z" stroke="#27AE60" stroke-width="2.88967" stroke-linecap="round" stroke-linejoin="round"/>
</svg>
