<svg width="150" height="150" viewBox="0 0 150 150" fill="none" xmlns="http://www.w3.org/2000/svg">
<path d="M98.9075 86.0647C98.879 86.1002 98.8507 86.1364 98.8228 86.1734C98.3779 86.7636 98.1902 87.3287 98.11 87.6623C98.1077 87.6719 98.1055 87.6813 98.1034 87.6907C98.1021 87.6961 98.1009 87.7014 98.0997 87.7068C98.0996 87.707 98.0996 87.7072 98.0995 87.7075C98.0993 87.7087 98.099 87.7099 98.0987 87.7111C98.1029 87.7293 98.1073 87.748 98.1121 87.7671C98.1911 88.0852 98.3654 88.5924 98.7522 89.1282C98.7753 89.1602 98.7987 89.1917 98.8223 89.2226C98.869 89.1655 98.9136 89.1077 98.9561 89.0494C98.9562 89.0494 98.9562 89.0494 98.9562 89.0494C98.9612 89.0424 98.9663 89.0355 98.9713 89.0286C99.124 88.8167 99.25 88.5986 99.3515 88.3819L98.9075 86.0647ZM98.9075 86.0647C98.9292 86.1022 98.9505 86.1404 98.9713 86.1792C99.0016 86.2361 99.031 86.2944 99.0591 86.3542C99.07 86.3775 99.0806 86.4007 99.0909 86.4239" stroke="#FAA831" stroke-width="10"/>
</svg>
